<svg width="270" height="230" viewBox="0 0 270 230" fill="none" xmlns="http://www.w3.org/2000/svg">
<rect x="0.5" y="0.5" width="269" height="229" rx="3.5" stroke="black" stroke-opacity="0.3"/>
<path opacity="0.3" d="M174.5 70C174.5 92.0914 156.591 110 134.5 110C112.409 110 94.5 92.0914 94.5 70C94.5 47.9086 112.409 30 134.5 30C156.591 30 174.5 47.9086 174.5 70ZM105.407 70C105.407 86.0675 118.432 99.0929 134.5 99.0929C150.568 99.0929 163.593 86.0675 163.593 70C163.593 53.9325 150.568 40.9071 134.5 40.9071C118.432 40.9071 105.407 53.9325 105.407 70Z" fill="#2F2E30"/>
<circle cx="134.5" cy="70" r="29" fill="black"/>
<path d="M148.642 55H141.988L142.822 63.3333C142.822 63.3333 144.488 65 146.988 65C148.301 65.0017 149.568 64.524 150.553 63.6567C150.657 63.5594 150.735 63.4372 150.779 63.3016C150.822 63.166 150.831 63.0214 150.803 62.8817L149.627 55.8333C149.587 55.6005 149.467 55.3891 149.286 55.2366C149.106 55.084 148.878 55.0002 148.642 55V55Z" stroke="white" stroke-width="2"/>
<path d="M141.988 55L142.822 63.3333C142.822 63.3333 141.155 65 138.655 65C136.155 65 134.488 63.3333 134.488 63.3333V55H141.988Z" stroke="#FAFAFA" stroke-width="2"/>
<path d="M134.489 55V63.3333C134.489 63.3333 132.822 65 130.322 65C127.822 65 126.155 63.3333 126.155 63.3333L126.989 55H134.489Z" stroke="#FAFAFA" stroke-width="2"/>
<path d="M126.988 55H120.337C120.1 54.9999 119.871 55.0838 119.69 55.2367C119.51 55.3896 119.389 55.6016 119.35 55.835L118.175 62.8833C118.147 63.0231 118.156 63.1676 118.2 63.3032C118.243 63.4387 118.321 63.5609 118.425 63.6583C118.972 64.1417 120.193 65.0017 121.988 65.0017C124.488 65.0017 126.155 63.335 126.155 63.335L126.988 55.0017V55Z" stroke="#FAFAFA" stroke-width="2"/>
<path d="M119.5 65V81.6667C119.5 82.5507 119.851 83.3986 120.476 84.0237C121.101 84.6488 121.949 85 122.833 85H146.167C147.051 85 147.899 84.6488 148.524 84.0237C149.149 83.3986 149.5 82.5507 149.5 81.6667V65" stroke="#FAFAFA" stroke-width="2"/>
<path d="M139.222 85V75C139.222 74.1159 138.87 73.2681 138.245 72.6429C137.62 72.0178 136.772 71.6666 135.888 71.6666H132.555C131.671 71.6666 130.823 72.0178 130.198 72.6429C129.573 73.2681 129.222 74.1159 129.222 75V85" stroke="#FAFAFA" stroke-width="2" stroke-miterlimit="16"/>
<path d="M100.511 137.727V161H95.5909V142.398H95.4545L90.125 145.739V141.375L95.8864 137.727H100.511ZM116.448 161.511C114.493 161.504 112.811 161.023 111.402 160.068C110.001 159.114 108.921 157.731 108.164 155.92C107.414 154.11 107.042 151.932 107.05 149.386C107.05 146.848 107.425 144.686 108.175 142.898C108.932 141.11 110.012 139.75 111.414 138.818C112.823 137.879 114.501 137.409 116.448 137.409C118.395 137.409 120.069 137.879 121.47 138.818C122.879 139.758 123.963 141.121 124.72 142.909C125.478 144.689 125.853 146.848 125.845 149.386C125.845 151.939 125.467 154.121 124.709 155.932C123.959 157.742 122.883 159.125 121.482 160.08C120.08 161.034 118.402 161.511 116.448 161.511ZM116.448 157.432C117.781 157.432 118.845 156.761 119.641 155.42C120.436 154.08 120.83 152.068 120.823 149.386C120.823 147.621 120.641 146.152 120.277 144.977C119.921 143.803 119.414 142.92 118.754 142.33C118.103 141.739 117.334 141.443 116.448 141.443C115.122 141.443 114.061 142.106 113.266 143.432C112.47 144.758 112.069 146.742 112.061 149.386C112.061 151.174 112.239 152.667 112.595 153.864C112.959 155.053 113.47 155.947 114.129 156.545C114.789 157.136 115.561 157.432 116.448 157.432ZM132.571 161.295C131.821 161.295 131.177 161.03 130.64 160.5C130.109 159.962 129.844 159.318 129.844 158.568C129.844 157.826 130.109 157.189 130.64 156.659C131.177 156.129 131.821 155.864 132.571 155.864C133.299 155.864 133.935 156.129 134.48 156.659C135.026 157.189 135.299 157.826 135.299 158.568C135.299 159.068 135.17 159.527 134.912 159.943C134.662 160.352 134.333 160.682 133.924 160.932C133.515 161.174 133.064 161.295 132.571 161.295ZM148.82 161.318C147.214 161.318 145.782 161.023 144.525 160.432C143.275 159.841 142.282 159.027 141.547 157.989C140.813 156.951 140.43 155.761 140.4 154.42H145.172C145.225 155.322 145.604 156.053 146.309 156.614C147.013 157.174 147.85 157.455 148.82 157.455C149.593 157.455 150.275 157.284 150.866 156.943C151.464 156.595 151.93 156.114 152.263 155.5C152.604 154.879 152.775 154.167 152.775 153.364C152.775 152.545 152.6 151.826 152.252 151.205C151.911 150.583 151.438 150.098 150.831 149.75C150.225 149.402 149.532 149.223 148.752 149.216C148.07 149.216 147.407 149.356 146.763 149.636C146.127 149.917 145.631 150.299 145.275 150.784L140.9 150L142.002 137.727H156.229V141.75H146.059L145.456 147.58H145.593C146.002 147.004 146.619 146.527 147.445 146.148C148.271 145.769 149.195 145.58 150.218 145.58C151.619 145.58 152.869 145.909 153.968 146.568C155.066 147.227 155.934 148.133 156.57 149.284C157.206 150.428 157.521 151.746 157.513 153.239C157.521 154.807 157.157 156.201 156.422 157.42C155.695 158.633 154.676 159.587 153.366 160.284C152.063 160.973 150.547 161.318 148.82 161.318ZM166.657 155.977L166.668 150.17H167.373L172.964 143.545H178.521L171.009 152.318H169.861L166.657 155.977ZM162.271 161V137.727H167.111V161H162.271ZM173.18 161L168.043 153.398L171.271 149.977L178.85 161H173.18Z" fill="black"/>
<path d="M54.8696 194.112C54.1336 194.112 53.4722 193.984 52.8856 193.728C52.3096 193.461 51.8562 193.099 51.5256 192.64C51.1949 192.171 51.0242 191.632 51.0136 191.024H52.5656C52.6189 191.547 52.8322 191.989 53.2056 192.352C53.5896 192.704 54.1442 192.88 54.8696 192.88C55.5629 192.88 56.1069 192.709 56.5016 192.368C56.9069 192.016 57.1096 191.568 57.1096 191.024C57.1096 190.597 56.9922 190.251 56.7576 189.984C56.5229 189.717 56.2296 189.515 55.8776 189.376C55.5256 189.237 55.0509 189.088 54.4536 188.928C53.7176 188.736 53.1256 188.544 52.6776 188.352C52.2402 188.16 51.8616 187.861 51.5416 187.456C51.2322 187.04 51.0776 186.485 51.0776 185.792C51.0776 185.184 51.2322 184.645 51.5416 184.176C51.8509 183.707 52.2829 183.344 52.8376 183.088C53.4029 182.832 54.0482 182.704 54.7736 182.704C55.8189 182.704 56.6722 182.965 57.3336 183.488C58.0056 184.011 58.3842 184.704 58.4696 185.568H56.8696C56.8162 185.141 56.5922 184.768 56.1976 184.448C55.8029 184.117 55.2802 183.952 54.6296 183.952C54.0216 183.952 53.5256 184.112 53.1416 184.432C52.7576 184.741 52.5656 185.179 52.5656 185.744C52.5656 186.149 52.6776 186.48 52.9016 186.736C53.1362 186.992 53.4189 187.189 53.7496 187.328C54.0909 187.456 54.5656 187.605 55.1736 187.776C55.9096 187.979 56.5016 188.181 56.9496 188.384C57.3976 188.576 57.7816 188.88 58.1016 189.296C58.4216 189.701 58.5816 190.256 58.5816 190.96C58.5816 191.504 58.4376 192.016 58.1496 192.496C57.8616 192.976 57.4349 193.365 56.8696 193.664C56.3042 193.963 55.6376 194.112 54.8696 194.112ZM60.1802 189.584C60.1802 188.688 60.3615 187.904 60.7242 187.232C61.0869 186.549 61.5829 186.021 62.2122 185.648C62.8522 185.275 63.5615 185.088 64.3402 185.088C65.1082 185.088 65.7749 185.253 66.3402 185.584C66.9055 185.915 67.3269 186.331 67.6042 186.832V185.232H69.0762V194H67.6042V192.368C67.3162 192.88 66.8842 193.307 66.3082 193.648C65.7429 193.979 65.0815 194.144 64.3242 194.144C63.5455 194.144 62.8415 193.952 62.2122 193.568C61.5829 193.184 61.0869 192.645 60.7242 191.952C60.3615 191.259 60.1802 190.469 60.1802 189.584ZM67.6042 189.6C67.6042 188.939 67.4709 188.363 67.2042 187.872C66.9375 187.381 66.5749 187.008 66.1162 186.752C65.6682 186.485 65.1722 186.352 64.6282 186.352C64.0842 186.352 63.5882 186.48 63.1402 186.736C62.6922 186.992 62.3349 187.365 62.0682 187.856C61.8015 188.347 61.6682 188.923 61.6682 189.584C61.6682 190.256 61.8015 190.843 62.0682 191.344C62.3349 191.835 62.6922 192.213 63.1402 192.48C63.5882 192.736 64.0842 192.864 64.6282 192.864C65.1722 192.864 65.6682 192.736 66.1162 192.48C66.5749 192.213 66.9375 191.835 67.2042 191.344C67.4709 190.843 67.6042 190.261 67.6042 189.6ZM72.9927 182.16V194H71.5367V182.16H72.9927ZM76.9302 182.16V194H75.4742V182.16H76.9302ZM87.4117 189.28C87.4117 189.557 87.3957 189.851 87.3637 190.16H80.3557C80.409 191.024 80.7024 191.701 81.2357 192.192C81.7797 192.672 82.4357 192.912 83.2037 192.912C83.833 192.912 84.3557 192.768 84.7717 192.48C85.1984 192.181 85.497 191.787 85.6677 191.296H87.2357C87.001 192.139 86.5317 192.827 85.8277 193.36C85.1237 193.883 84.249 194.144 83.2037 194.144C82.3717 194.144 81.625 193.957 80.9637 193.584C80.313 193.211 79.801 192.683 79.4277 192C79.0544 191.307 78.8677 190.507 78.8677 189.6C78.8677 188.693 79.049 187.899 79.4117 187.216C79.7744 186.533 80.281 186.011 80.9317 185.648C81.593 185.275 82.3504 185.088 83.2037 185.088C84.0357 185.088 84.7717 185.269 85.4117 185.632C86.0517 185.995 86.5424 186.496 86.8837 187.136C87.2357 187.765 87.4117 188.48 87.4117 189.28ZM85.9077 188.976C85.9077 188.421 85.785 187.947 85.5397 187.552C85.2944 187.147 84.9584 186.843 84.5317 186.64C84.1157 186.427 83.6517 186.32 83.1397 186.32C82.4037 186.32 81.7744 186.555 81.2517 187.024C80.7397 187.493 80.4464 188.144 80.3717 188.976H85.9077ZM90.7896 186.656C91.0456 186.155 91.4082 185.765 91.8776 185.488C92.3576 185.211 92.9389 185.072 93.6216 185.072V186.576H93.2376C91.6056 186.576 90.7896 187.461 90.7896 189.232V194H89.3336V185.232H90.7896V186.656ZM98.4063 194.144C97.7343 194.144 97.1316 194.032 96.5983 193.808C96.065 193.573 95.6436 193.253 95.3343 192.848C95.025 192.432 94.8543 191.957 94.8223 191.424H96.3263C96.369 191.861 96.5716 192.219 96.9343 192.496C97.3076 192.773 97.793 192.912 98.3903 192.912C98.945 192.912 99.3823 192.789 99.7023 192.544C100.022 192.299 100.182 191.989 100.182 191.616C100.182 191.232 100.012 190.949 99.6703 190.768C99.329 190.576 98.801 190.389 98.0863 190.208C97.4356 190.037 96.9023 189.867 96.4863 189.696C96.081 189.515 95.729 189.253 95.4303 188.912C95.1423 188.56 94.9983 188.101 94.9983 187.536C94.9983 187.088 95.1316 186.677 95.3983 186.304C95.665 185.931 96.0436 185.637 96.5343 185.424C97.025 185.2 97.585 185.088 98.2143 185.088C99.185 185.088 99.969 185.333 100.566 185.824C101.164 186.315 101.484 186.987 101.526 187.84H100.07C100.038 187.381 99.8516 187.013 99.5103 186.736C99.1796 186.459 98.7316 186.32 98.1663 186.32C97.6436 186.32 97.2276 186.432 96.9183 186.656C96.609 186.88 96.4543 187.173 96.4543 187.536C96.4543 187.824 96.545 188.064 96.7263 188.256C96.9183 188.437 97.153 188.587 97.4303 188.704C97.7183 188.811 98.113 188.933 98.6143 189.072C99.2436 189.243 99.7556 189.413 100.15 189.584C100.545 189.744 100.881 189.989 101.158 190.32C101.446 190.651 101.596 191.083 101.606 191.616C101.606 192.096 101.473 192.528 101.206 192.912C100.94 193.296 100.561 193.6 100.07 193.824C99.5903 194.037 99.0356 194.144 98.4063 194.144ZM107.383 189.584C107.383 188.688 107.565 187.904 107.927 187.232C108.29 186.549 108.786 186.021 109.415 185.648C110.055 185.275 110.765 185.088 111.543 185.088C112.311 185.088 112.978 185.253 113.543 185.584C114.109 185.915 114.53 186.331 114.807 186.832V185.232H116.279V194H114.807V192.368C114.519 192.88 114.087 193.307 113.511 193.648C112.946 193.979 112.285 194.144 111.527 194.144C110.749 194.144 110.045 193.952 109.415 193.568C108.786 193.184 108.29 192.645 107.927 191.952C107.565 191.259 107.383 190.469 107.383 189.584ZM114.807 189.6C114.807 188.939 114.674 188.363 114.407 187.872C114.141 187.381 113.778 187.008 113.319 186.752C112.871 186.485 112.375 186.352 111.831 186.352C111.287 186.352 110.791 186.48 110.343 186.736C109.895 186.992 109.538 187.365 109.271 187.856C109.005 188.347 108.871 188.923 108.871 189.584C108.871 190.256 109.005 190.843 109.271 191.344C109.538 191.835 109.895 192.213 110.343 192.48C110.791 192.736 111.287 192.864 111.831 192.864C112.375 192.864 112.871 192.736 113.319 192.48C113.778 192.213 114.141 191.835 114.407 191.344C114.674 190.843 114.807 190.261 114.807 189.6ZM118.196 189.6C118.196 188.693 118.377 187.904 118.74 187.232C119.102 186.549 119.604 186.021 120.244 185.648C120.894 185.275 121.636 185.088 122.468 185.088C123.545 185.088 124.43 185.349 125.124 185.872C125.828 186.395 126.292 187.12 126.516 188.048H124.948C124.798 187.515 124.505 187.093 124.068 186.784C123.641 186.475 123.108 186.32 122.468 186.32C121.636 186.32 120.964 186.608 120.452 187.184C119.94 187.749 119.684 188.555 119.684 189.6C119.684 190.656 119.94 191.472 120.452 192.048C120.964 192.624 121.636 192.912 122.468 192.912C123.108 192.912 123.641 192.763 124.068 192.464C124.494 192.165 124.788 191.739 124.948 191.184H126.516C126.281 192.08 125.812 192.8 125.108 193.344C124.404 193.877 123.524 194.144 122.468 194.144C121.636 194.144 120.894 193.957 120.244 193.584C119.604 193.211 119.102 192.683 118.74 192C118.377 191.317 118.196 190.517 118.196 189.6ZM130.235 186.432V191.6C130.235 192.027 130.325 192.331 130.507 192.512C130.688 192.683 131.003 192.768 131.451 192.768H132.523V194H131.211C130.4 194 129.792 193.813 129.387 193.44C128.981 193.067 128.779 192.453 128.779 191.6V186.432H127.643V185.232H128.779V183.024H130.235V185.232H132.523V186.432H130.235ZM135.039 183.808C134.761 183.808 134.527 183.712 134.335 183.52C134.143 183.328 134.047 183.093 134.047 182.816C134.047 182.539 134.143 182.304 134.335 182.112C134.527 181.92 134.761 181.824 135.039 181.824C135.305 181.824 135.529 181.92 135.711 182.112C135.903 182.304 135.999 182.539 135.999 182.816C135.999 183.093 135.903 183.328 135.711 183.52C135.529 183.712 135.305 183.808 135.039 183.808ZM135.743 185.232V194H134.287V185.232H135.743ZM141.488 192.656L144.208 185.232H145.76L142.32 194H140.624L137.184 185.232H138.752L141.488 192.656ZM155.193 189.28C155.193 189.557 155.177 189.851 155.145 190.16H148.137C148.19 191.024 148.484 191.701 149.017 192.192C149.561 192.672 150.217 192.912 150.985 192.912C151.614 192.912 152.137 192.768 152.553 192.48C152.98 192.181 153.278 191.787 153.449 191.296H155.017C154.782 192.139 154.313 192.827 153.609 193.36C152.905 193.883 152.03 194.144 150.985 194.144C150.153 194.144 149.406 193.957 148.745 193.584C148.094 193.211 147.582 192.683 147.209 192C146.836 191.307 146.649 190.507 146.649 189.6C146.649 188.693 146.83 187.899 147.193 187.216C147.556 186.533 148.062 186.011 148.713 185.648C149.374 185.275 150.132 185.088 150.985 185.088C151.817 185.088 152.553 185.269 153.193 185.632C153.833 185.995 154.324 186.496 154.665 187.136C155.017 187.765 155.193 188.48 155.193 189.28ZM153.689 188.976C153.689 188.421 153.566 187.947 153.321 187.552C153.076 187.147 152.74 186.843 152.313 186.64C151.897 186.427 151.433 186.32 150.921 186.32C150.185 186.32 149.556 186.555 149.033 187.024C148.521 187.493 148.228 188.144 148.153 188.976H153.689ZM165.204 194.144C164.383 194.144 163.636 193.957 162.964 193.584C162.303 193.211 161.78 192.683 161.396 192C161.023 191.307 160.836 190.507 160.836 189.6C160.836 188.704 161.028 187.915 161.412 187.232C161.807 186.539 162.34 186.011 163.012 185.648C163.684 185.275 164.436 185.088 165.268 185.088C166.1 185.088 166.852 185.275 167.524 185.648C168.196 186.011 168.724 186.533 169.108 187.216C169.503 187.899 169.7 188.693 169.7 189.6C169.7 190.507 169.498 191.307 169.092 192C168.698 192.683 168.159 193.211 167.476 193.584C166.794 193.957 166.036 194.144 165.204 194.144ZM165.204 192.864C165.727 192.864 166.218 192.741 166.676 192.496C167.135 192.251 167.503 191.883 167.78 191.392C168.068 190.901 168.212 190.304 168.212 189.6C168.212 188.896 168.074 188.299 167.796 187.808C167.519 187.317 167.156 186.955 166.708 186.72C166.26 186.475 165.775 186.352 165.252 186.352C164.719 186.352 164.228 186.475 163.78 186.72C163.343 186.955 162.991 187.317 162.724 187.808C162.458 188.299 162.324 188.896 162.324 189.6C162.324 190.315 162.452 190.917 162.708 191.408C162.975 191.899 163.327 192.267 163.764 192.512C164.202 192.747 164.682 192.864 165.204 192.864ZM179.391 185.232V194H177.935V192.704C177.657 193.152 177.268 193.504 176.767 193.76C176.276 194.005 175.732 194.128 175.135 194.128C174.452 194.128 173.839 193.989 173.295 193.712C172.751 193.424 172.319 192.997 171.999 192.432C171.689 191.867 171.535 191.179 171.535 190.368V185.232H172.975V190.176C172.975 191.04 173.193 191.707 173.631 192.176C174.068 192.635 174.665 192.864 175.423 192.864C176.201 192.864 176.815 192.624 177.263 192.144C177.711 191.664 177.935 190.965 177.935 190.048V185.232H179.391ZM183.305 186.656C183.561 186.155 183.924 185.765 184.393 185.488C184.873 185.211 185.455 185.072 186.137 185.072V186.576H185.753C184.121 186.576 183.305 187.461 183.305 189.232V194H181.849V185.232H183.305V186.656ZM195.188 194.144C194.516 194.144 193.913 194.032 193.38 193.808C192.846 193.573 192.425 193.253 192.116 192.848C191.806 192.432 191.636 191.957 191.604 191.424H193.108C193.15 191.861 193.353 192.219 193.716 192.496C194.089 192.773 194.574 192.912 195.172 192.912C195.726 192.912 196.164 192.789 196.484 192.544C196.804 192.299 196.964 191.989 196.964 191.616C196.964 191.232 196.793 190.949 196.452 190.768C196.11 190.576 195.582 190.389 194.868 190.208C194.217 190.037 193.684 189.867 193.268 189.696C192.862 189.515 192.51 189.253 192.212 188.912C191.924 188.56 191.78 188.101 191.78 187.536C191.78 187.088 191.913 186.677 192.18 186.304C192.446 185.931 192.825 185.637 193.316 185.424C193.806 185.2 194.366 185.088 194.996 185.088C195.966 185.088 196.75 185.333 197.348 185.824C197.945 186.315 198.265 186.987 198.308 187.84H196.852C196.82 187.381 196.633 187.013 196.292 186.736C195.961 186.459 195.513 186.32 194.948 186.32C194.425 186.32 194.009 186.432 193.7 186.656C193.39 186.88 193.236 187.173 193.236 187.536C193.236 187.824 193.326 188.064 193.508 188.256C193.7 188.437 193.934 188.587 194.212 188.704C194.5 188.811 194.894 188.933 195.396 189.072C196.025 189.243 196.537 189.413 196.932 189.584C197.326 189.744 197.662 189.989 197.94 190.32C198.228 190.651 198.377 191.083 198.388 191.616C198.388 192.096 198.254 192.528 197.988 192.912C197.721 193.296 197.342 193.6 196.852 193.824C196.372 194.037 195.817 194.144 195.188 194.144ZM201.195 183.808C200.918 183.808 200.683 183.712 200.491 183.52C200.299 183.328 200.203 183.093 200.203 182.816C200.203 182.539 200.299 182.304 200.491 182.112C200.683 181.92 200.918 181.824 201.195 181.824C201.462 181.824 201.686 181.92 201.867 182.112C202.059 182.304 202.155 182.539 202.155 182.816C202.155 183.093 202.059 183.328 201.867 183.52C201.686 183.712 201.462 183.808 201.195 183.808ZM201.899 185.232V194H200.443V185.232H201.899ZM206.156 186.432V191.6C206.156 192.027 206.247 192.331 206.428 192.512C206.61 192.683 206.924 192.768 207.372 192.768H208.444V194H207.132C206.322 194 205.714 193.813 205.308 193.44C204.903 193.067 204.7 192.453 204.7 191.6V186.432H203.564V185.232H204.7V183.024H206.156V185.232H208.444V186.432H206.156ZM218.209 189.28C218.209 189.557 218.193 189.851 218.161 190.16H211.153C211.206 191.024 211.499 191.701 212.033 192.192C212.577 192.672 213.233 192.912 214.001 192.912C214.63 192.912 215.153 192.768 215.569 192.48C215.995 192.181 216.294 191.787 216.465 191.296H218.033C217.798 192.139 217.329 192.827 216.625 193.36C215.921 193.883 215.046 194.144 214.001 194.144C213.169 194.144 212.422 193.957 211.761 193.584C211.11 193.211 210.598 192.683 210.225 192C209.851 191.307 209.665 190.507 209.665 189.6C209.665 188.693 209.846 187.899 210.209 187.216C210.571 186.533 211.078 186.011 211.729 185.648C212.39 185.275 213.147 185.088 214.001 185.088C214.833 185.088 215.569 185.269 216.209 185.632C216.849 185.995 217.339 186.496 217.681 187.136C218.033 187.765 218.209 188.48 218.209 189.28ZM216.705 188.976C216.705 188.421 216.582 187.947 216.337 187.552C216.091 187.147 215.755 186.843 215.329 186.64C214.913 186.427 214.449 186.32 213.937 186.32C213.201 186.32 212.571 186.555 212.049 187.024C211.537 187.493 211.243 188.144 211.169 188.976H216.705Z" fill="black"/>
</svg>
