<svg width="294" height="254" viewBox="0 0 294 254" fill="none" xmlns="http://www.w3.org/2000/svg">
<g filter="url(#filter0_d_238_4703)">
<rect x="12" y="10" width="270" height="230" rx="4" fill="#DB4444"/>
<path opacity="0.3" d="M187 82C187 104.091 169.091 122 147 122C124.909 122 107 104.091 107 82C107 59.9086 124.909 42 147 42C169.091 42 187 59.9086 187 82ZM117.907 82C117.907 98.0675 130.932 111.093 147 111.093C163.068 111.093 176.093 98.0675 176.093 82C176.093 65.9325 163.068 52.9071 147 52.9071C130.932 52.9071 117.907 65.9325 117.907 82Z" fill="white"/>
<circle cx="147" cy="82" r="29" fill="white"/>
<path d="M147 99.2728C156.54 99.2728 164.273 91.5395 164.273 82C164.273 72.4606 156.54 64.7273 147 64.7273C137.461 64.7273 129.728 72.4606 129.728 82C129.728 91.5395 137.461 99.2728 147 99.2728Z" stroke="black" stroke-width="2" stroke-linecap="round" stroke-linejoin="round"/>
<path d="M152.091 76.547C151.762 75.9758 151.283 75.505 150.707 75.1848C150.13 74.8646 149.478 74.7072 148.819 74.7294H145.182C144.218 74.7294 143.293 75.1124 142.611 75.7941C141.929 76.4759 141.546 77.4005 141.546 78.3647C141.546 79.3288 141.929 80.2535 142.611 80.9353C143.293 81.617 144.218 82 145.182 82H148.819C149.783 82 150.708 82.383 151.39 83.0648C152.072 83.7465 152.455 84.6712 152.455 85.6354C152.455 86.5995 152.072 87.5242 151.39 88.2059C150.708 88.8877 149.783 89.2707 148.819 89.2707H145.182C144.523 89.2929 143.87 89.1354 143.294 88.8153C142.717 88.4951 142.239 88.0242 141.91 87.453" stroke="black" stroke-width="2.75" stroke-linecap="round" stroke-linejoin="round"/>
<path d="M147 70.1818V74.1212M147 89.8787V93.8181" stroke="black" stroke-width="2.75" stroke-linecap="round" stroke-linejoin="round"/>
<path d="M125.489 173.318C123.792 173.318 122.28 173.027 120.955 172.443C119.636 171.852 118.595 171.042 117.83 170.011C117.072 168.973 116.682 167.777 116.659 166.42H121.614C121.644 166.989 121.83 167.489 122.17 167.92C122.519 168.345 122.981 168.674 123.557 168.909C124.133 169.144 124.78 169.261 125.5 169.261C126.25 169.261 126.913 169.129 127.489 168.864C128.064 168.598 128.515 168.231 128.841 167.761C129.167 167.292 129.33 166.75 129.33 166.136C129.33 165.515 129.155 164.966 128.807 164.489C128.466 164.004 127.973 163.625 127.33 163.352C126.693 163.08 125.936 162.943 125.057 162.943H122.886V159.33H125.057C125.799 159.33 126.455 159.201 127.023 158.943C127.598 158.686 128.045 158.33 128.364 157.875C128.682 157.413 128.841 156.875 128.841 156.261C128.841 155.678 128.701 155.167 128.42 154.727C128.148 154.28 127.761 153.932 127.261 153.682C126.769 153.432 126.193 153.307 125.534 153.307C124.867 153.307 124.258 153.428 123.705 153.67C123.152 153.905 122.708 154.242 122.375 154.682C122.042 155.121 121.864 155.636 121.841 156.227H117.125C117.148 154.886 117.53 153.705 118.273 152.682C119.015 151.659 120.015 150.86 121.273 150.284C122.538 149.701 123.966 149.409 125.557 149.409C127.163 149.409 128.568 149.701 129.773 150.284C130.977 150.867 131.913 151.655 132.58 152.648C133.254 153.633 133.587 154.739 133.58 155.966C133.587 157.269 133.182 158.356 132.364 159.227C131.553 160.098 130.496 160.652 129.193 160.886V161.068C130.905 161.288 132.208 161.883 133.102 162.852C134.004 163.814 134.451 165.019 134.443 166.466C134.451 167.792 134.068 168.97 133.295 170C132.53 171.03 131.473 171.841 130.125 172.432C128.777 173.023 127.231 173.318 125.489 173.318ZM147.862 173.318C146.165 173.318 144.654 173.027 143.328 172.443C142.01 171.852 140.968 171.042 140.203 170.011C139.446 168.973 139.056 167.777 139.033 166.42H143.987C144.018 166.989 144.203 167.489 144.544 167.92C144.893 168.345 145.355 168.674 145.931 168.909C146.506 169.144 147.154 169.261 147.874 169.261C148.624 169.261 149.287 169.129 149.862 168.864C150.438 168.598 150.889 168.231 151.215 167.761C151.54 167.292 151.703 166.75 151.703 166.136C151.703 165.515 151.529 164.966 151.181 164.489C150.84 164.004 150.347 163.625 149.703 163.352C149.067 163.08 148.309 162.943 147.431 162.943H145.26V159.33H147.431C148.173 159.33 148.828 159.201 149.396 158.943C149.972 158.686 150.419 158.33 150.737 157.875C151.056 157.413 151.215 156.875 151.215 156.261C151.215 155.678 151.075 155.167 150.794 154.727C150.521 154.28 150.135 153.932 149.635 153.682C149.143 153.432 148.567 153.307 147.908 153.307C147.241 153.307 146.631 153.428 146.078 153.67C145.525 153.905 145.082 154.242 144.749 154.682C144.415 155.121 144.237 155.636 144.215 156.227H139.499C139.521 154.886 139.904 153.705 140.646 152.682C141.389 151.659 142.389 150.86 143.646 150.284C144.912 149.701 146.34 149.409 147.931 149.409C149.537 149.409 150.942 149.701 152.146 150.284C153.351 150.867 154.287 151.655 154.953 152.648C155.628 153.633 155.961 154.739 155.953 155.966C155.961 157.269 155.556 158.356 154.737 159.227C153.927 160.098 152.87 160.652 151.567 160.886V161.068C153.279 161.288 154.582 161.883 155.476 162.852C156.378 163.814 156.825 165.019 156.817 166.466C156.825 167.792 156.442 168.97 155.669 170C154.904 171.03 153.847 171.841 152.499 172.432C151.15 173.023 149.605 173.318 147.862 173.318ZM166.066 167.977L166.077 162.17H166.782L172.373 155.545H177.929L170.418 164.318H169.27L166.066 167.977ZM161.679 173V149.727H166.52V173H161.679ZM172.588 173L167.452 165.398L170.679 161.977L178.259 173H172.588Z" fill="white"/>
<path d="M59.544 190.928V202H58.088V193.744L54.408 202H53.384L49.688 193.728V202H48.232V190.928H49.8L53.896 200.08L57.992 190.928H59.544ZM65.8373 202.144C65.0159 202.144 64.2693 201.957 63.5973 201.584C62.9359 201.211 62.4133 200.683 62.0293 200C61.6559 199.307 61.4693 198.507 61.4693 197.6C61.4693 196.704 61.6613 195.915 62.0453 195.232C62.4399 194.539 62.9733 194.011 63.6453 193.648C64.3173 193.275 65.0693 193.088 65.9013 193.088C66.7333 193.088 67.4853 193.275 68.1573 193.648C68.8293 194.011 69.3573 194.533 69.7413 195.216C70.1359 195.899 70.3333 196.693 70.3333 197.6C70.3333 198.507 70.1306 199.307 69.7253 200C69.3306 200.683 68.7919 201.211 68.1093 201.584C67.4266 201.957 66.6693 202.144 65.8373 202.144ZM65.8373 200.864C66.3599 200.864 66.8506 200.741 67.3093 200.496C67.7679 200.251 68.1359 199.883 68.4133 199.392C68.7013 198.901 68.8453 198.304 68.8453 197.6C68.8453 196.896 68.7066 196.299 68.4293 195.808C68.1519 195.317 67.7893 194.955 67.3413 194.72C66.8933 194.475 66.4079 194.352 65.8853 194.352C65.3519 194.352 64.8613 194.475 64.4133 194.72C63.9759 194.955 63.6239 195.317 63.3573 195.808C63.0906 196.299 62.9573 196.896 62.9573 197.6C62.9573 198.315 63.0853 198.917 63.3413 199.408C63.6079 199.899 63.9599 200.267 64.3973 200.512C64.8346 200.747 65.3146 200.864 65.8373 200.864ZM73.7036 194.848C73.9916 194.347 74.4183 193.931 74.9836 193.6C75.5596 193.259 76.2263 193.088 76.9836 193.088C77.7623 193.088 78.4663 193.275 79.0956 193.648C79.7356 194.021 80.237 194.549 80.5996 195.232C80.9623 195.904 81.1436 196.688 81.1436 197.584C81.1436 198.469 80.9623 199.259 80.5996 199.952C80.237 200.645 79.7356 201.184 79.0956 201.568C78.4663 201.952 77.7623 202.144 76.9836 202.144C76.237 202.144 75.5756 201.979 74.9996 201.648C74.4343 201.307 74.0023 200.885 73.7036 200.384V206.16H72.2476V193.232H73.7036V194.848ZM79.6556 197.584C79.6556 196.923 79.5223 196.347 79.2556 195.856C78.989 195.365 78.6263 194.992 78.1676 194.736C77.7196 194.48 77.2236 194.352 76.6796 194.352C76.1463 194.352 75.6503 194.485 75.1916 194.752C74.7436 195.008 74.381 195.387 74.1036 195.888C73.837 196.379 73.7036 196.949 73.7036 197.6C73.7036 198.261 73.837 198.843 74.1036 199.344C74.381 199.835 74.7436 200.213 75.1916 200.48C75.6503 200.736 76.1463 200.864 76.6796 200.864C77.2236 200.864 77.7196 200.736 78.1676 200.48C78.6263 200.213 78.989 199.835 79.2556 199.344C79.5223 198.843 79.6556 198.256 79.6556 197.584ZM87.3321 193.072C88.3988 193.072 89.2628 193.397 89.9241 194.048C90.5855 194.688 90.9161 195.616 90.9161 196.832V202H89.4761V197.04C89.4761 196.165 89.2575 195.499 88.8201 195.04C88.3828 194.571 87.7855 194.336 87.0281 194.336C86.2601 194.336 85.6468 194.576 85.1881 195.056C84.7401 195.536 84.5161 196.235 84.5161 197.152V202H83.0601V193.232H84.5161V194.48C84.8041 194.032 85.1935 193.685 85.6841 193.44C86.1855 193.195 86.7348 193.072 87.3321 193.072ZM95.0705 194.432V199.6C95.0705 200.027 95.1612 200.331 95.3425 200.512C95.5238 200.683 95.8385 200.768 96.2865 200.768H97.3585V202H96.0465C95.2358 202 94.6278 201.813 94.2225 201.44C93.8172 201.067 93.6145 200.453 93.6145 199.6V194.432H92.4785V193.232H93.6145V191.024H95.0705V193.232H97.3585V194.432H95.0705ZM103.475 193.072C104.136 193.072 104.733 193.216 105.267 193.504C105.8 193.781 106.216 194.203 106.515 194.768C106.824 195.333 106.979 196.021 106.979 196.832V202H105.539V197.04C105.539 196.165 105.32 195.499 104.883 195.04C104.445 194.571 103.848 194.336 103.091 194.336C102.323 194.336 101.709 194.576 101.251 195.056C100.803 195.536 100.579 196.235 100.579 197.152V202H99.1226V190.16H100.579V194.48C100.867 194.032 101.261 193.685 101.763 193.44C102.275 193.195 102.845 193.072 103.475 193.072ZM110.813 190.16V202H109.357V190.16H110.813ZM120.847 193.232L115.567 206.128H114.062L115.791 201.904L112.255 193.232H113.871L116.623 200.336L119.343 193.232H120.847ZM134.032 194.112C134.032 195.04 133.712 195.813 133.072 196.432C132.442 197.04 131.477 197.344 130.176 197.344H128.032V202H126.576V190.848H130.176C131.434 190.848 132.389 191.152 133.04 191.76C133.701 192.368 134.032 193.152 134.032 194.112ZM130.176 196.144C130.986 196.144 131.584 195.968 131.968 195.616C132.352 195.264 132.544 194.763 132.544 194.112C132.544 192.736 131.754 192.048 130.176 192.048H128.032V196.144H130.176ZM137.297 194.656C137.553 194.155 137.916 193.765 138.385 193.488C138.865 193.211 139.447 193.072 140.129 193.072V194.576H139.745C138.113 194.576 137.297 195.461 137.297 197.232V202H135.841V193.232H137.297V194.656ZM145.634 202.144C144.813 202.144 144.066 201.957 143.394 201.584C142.733 201.211 142.21 200.683 141.826 200C141.453 199.307 141.266 198.507 141.266 197.6C141.266 196.704 141.458 195.915 141.842 195.232C142.237 194.539 142.77 194.011 143.442 193.648C144.114 193.275 144.866 193.088 145.698 193.088C146.53 193.088 147.282 193.275 147.954 193.648C148.626 194.011 149.154 194.533 149.538 195.216C149.933 195.899 150.13 196.693 150.13 197.6C150.13 198.507 149.927 199.307 149.522 200C149.127 200.683 148.589 201.211 147.906 201.584C147.223 201.957 146.466 202.144 145.634 202.144ZM145.634 200.864C146.157 200.864 146.647 200.741 147.106 200.496C147.565 200.251 147.933 199.883 148.21 199.392C148.498 198.901 148.642 198.304 148.642 197.6C148.642 196.896 148.503 196.299 148.226 195.808C147.949 195.317 147.586 194.955 147.138 194.72C146.69 194.475 146.205 194.352 145.682 194.352C145.149 194.352 144.658 194.475 144.21 194.72C143.773 194.955 143.421 195.317 143.154 195.808C142.887 196.299 142.754 196.896 142.754 197.6C142.754 198.315 142.882 198.917 143.138 199.408C143.405 199.899 143.757 200.267 144.194 200.512C144.631 200.747 145.111 200.864 145.634 200.864ZM151.501 197.584C151.501 196.688 151.682 195.904 152.045 195.232C152.407 194.549 152.903 194.021 153.533 193.648C154.173 193.275 154.887 193.088 155.677 193.088C156.359 193.088 156.994 193.248 157.581 193.568C158.167 193.877 158.615 194.288 158.925 194.8V190.16H160.397V202H158.925V200.352C158.637 200.875 158.21 201.307 157.645 201.648C157.079 201.979 156.418 202.144 155.661 202.144C154.882 202.144 154.173 201.952 153.533 201.568C152.903 201.184 152.407 200.645 152.045 199.952C151.682 199.259 151.501 198.469 151.501 197.584ZM158.925 197.6C158.925 196.939 158.791 196.363 158.525 195.872C158.258 195.381 157.895 195.008 157.437 194.752C156.989 194.485 156.493 194.352 155.949 194.352C155.405 194.352 154.909 194.48 154.461 194.736C154.013 194.992 153.655 195.365 153.389 195.856C153.122 196.347 152.989 196.923 152.989 197.584C152.989 198.256 153.122 198.843 153.389 199.344C153.655 199.835 154.013 200.213 154.461 200.48C154.909 200.736 155.405 200.864 155.949 200.864C156.493 200.864 156.989 200.736 157.437 200.48C157.895 200.213 158.258 199.835 158.525 199.344C158.791 198.843 158.925 198.261 158.925 197.6ZM170.633 193.232V202H169.177V200.704C168.9 201.152 168.51 201.504 168.009 201.76C167.518 202.005 166.974 202.128 166.377 202.128C165.694 202.128 165.081 201.989 164.537 201.712C163.993 201.424 163.561 200.997 163.241 200.432C162.932 199.867 162.777 199.179 162.777 198.368V193.232H164.217V198.176C164.217 199.04 164.436 199.707 164.873 200.176C165.31 200.635 165.908 200.864 166.665 200.864C167.444 200.864 168.057 200.624 168.505 200.144C168.953 199.664 169.177 198.965 169.177 198.048V193.232H170.633ZM172.547 197.584C172.547 196.688 172.729 195.904 173.091 195.232C173.454 194.549 173.95 194.021 174.579 193.648C175.219 193.275 175.934 193.088 176.723 193.088C177.406 193.088 178.041 193.248 178.627 193.568C179.214 193.877 179.662 194.288 179.971 194.8V190.16H181.443V202H179.971V200.352C179.683 200.875 179.257 201.307 178.691 201.648C178.126 201.979 177.465 202.144 176.707 202.144C175.929 202.144 175.219 201.952 174.579 201.568C173.95 201.184 173.454 200.645 173.091 199.952C172.729 199.259 172.547 198.469 172.547 197.584ZM179.971 197.6C179.971 196.939 179.838 196.363 179.571 195.872C179.305 195.381 178.942 195.008 178.483 194.752C178.035 194.485 177.539 194.352 176.995 194.352C176.451 194.352 175.955 194.48 175.507 194.736C175.059 194.992 174.702 195.365 174.435 195.856C174.169 196.347 174.035 196.923 174.035 197.584C174.035 198.256 174.169 198.843 174.435 199.344C174.702 199.835 175.059 200.213 175.507 200.48C175.955 200.736 176.451 200.864 176.995 200.864C177.539 200.864 178.035 200.736 178.483 200.48C178.942 200.213 179.305 199.835 179.571 199.344C179.838 198.843 179.971 198.261 179.971 197.6ZM191.68 193.232V202H190.224V200.704C189.947 201.152 189.557 201.504 189.056 201.76C188.565 202.005 188.021 202.128 187.424 202.128C186.741 202.128 186.128 201.989 185.584 201.712C185.04 201.424 184.608 200.997 184.288 200.432C183.979 199.867 183.824 199.179 183.824 198.368V193.232H185.264V198.176C185.264 199.04 185.483 199.707 185.92 200.176C186.357 200.635 186.955 200.864 187.712 200.864C188.491 200.864 189.104 200.624 189.552 200.144C190 199.664 190.224 198.965 190.224 198.048V193.232H191.68ZM193.594 197.6C193.594 196.693 193.776 195.904 194.138 195.232C194.501 194.549 195.002 194.021 195.642 193.648C196.293 193.275 197.034 193.088 197.866 193.088C198.944 193.088 199.829 193.349 200.522 193.872C201.226 194.395 201.69 195.12 201.914 196.048H200.346C200.197 195.515 199.904 195.093 199.466 194.784C199.04 194.475 198.506 194.32 197.866 194.32C197.034 194.32 196.362 194.608 195.85 195.184C195.338 195.749 195.082 196.555 195.082 197.6C195.082 198.656 195.338 199.472 195.85 200.048C196.362 200.624 197.034 200.912 197.866 200.912C198.506 200.912 199.04 200.763 199.466 200.464C199.893 200.165 200.186 199.739 200.346 199.184H201.914C201.68 200.08 201.21 200.8 200.506 201.344C199.802 201.877 198.922 202.144 197.866 202.144C197.034 202.144 196.293 201.957 195.642 201.584C195.002 201.211 194.501 200.683 194.138 200C193.776 199.317 193.594 198.517 193.594 197.6ZM205.633 194.432V199.6C205.633 200.027 205.724 200.331 205.905 200.512C206.086 200.683 206.401 200.768 206.849 200.768H207.921V202H206.609C205.798 202 205.19 201.813 204.785 201.44C204.38 201.067 204.177 200.453 204.177 199.6V194.432H203.041V193.232H204.177V191.024H205.633V193.232H207.921V194.432H205.633ZM217.487 202.112C216.751 202.112 216.089 201.984 215.503 201.728C214.927 201.461 214.473 201.099 214.143 200.64C213.812 200.171 213.641 199.632 213.631 199.024H215.183C215.236 199.547 215.449 199.989 215.823 200.352C216.207 200.704 216.761 200.88 217.487 200.88C218.18 200.88 218.724 200.709 219.119 200.368C219.524 200.016 219.727 199.568 219.727 199.024C219.727 198.597 219.609 198.251 219.375 197.984C219.14 197.717 218.847 197.515 218.495 197.376C218.143 197.237 217.668 197.088 217.071 196.928C216.335 196.736 215.743 196.544 215.295 196.352C214.857 196.16 214.479 195.861 214.159 195.456C213.849 195.04 213.695 194.485 213.695 193.792C213.695 193.184 213.849 192.645 214.159 192.176C214.468 191.707 214.9 191.344 215.455 191.088C216.02 190.832 216.665 190.704 217.391 190.704C218.436 190.704 219.289 190.965 219.951 191.488C220.623 192.011 221.001 192.704 221.087 193.568H219.487C219.433 193.141 219.209 192.768 218.815 192.448C218.42 192.117 217.897 191.952 217.247 191.952C216.639 191.952 216.143 192.112 215.759 192.432C215.375 192.741 215.183 193.179 215.183 193.744C215.183 194.149 215.295 194.48 215.519 194.736C215.753 194.992 216.036 195.189 216.367 195.328C216.708 195.456 217.183 195.605 217.791 195.776C218.527 195.979 219.119 196.181 219.567 196.384C220.015 196.576 220.399 196.88 220.719 197.296C221.039 197.701 221.199 198.256 221.199 198.96C221.199 199.504 221.055 200.016 220.767 200.496C220.479 200.976 220.052 201.365 219.487 201.664C218.921 201.963 218.255 202.112 217.487 202.112ZM222.797 197.584C222.797 196.688 222.979 195.904 223.341 195.232C223.704 194.549 224.2 194.021 224.829 193.648C225.469 193.275 226.179 193.088 226.957 193.088C227.725 193.088 228.392 193.253 228.957 193.584C229.523 193.915 229.944 194.331 230.221 194.832V193.232H231.693V202H230.221V200.368C229.933 200.88 229.501 201.307 228.925 201.648C228.36 201.979 227.699 202.144 226.941 202.144C226.163 202.144 225.459 201.952 224.829 201.568C224.2 201.184 223.704 200.645 223.341 199.952C222.979 199.259 222.797 198.469 222.797 197.584ZM230.221 197.6C230.221 196.939 230.088 196.363 229.821 195.872C229.555 195.381 229.192 195.008 228.733 194.752C228.285 194.485 227.789 194.352 227.245 194.352C226.701 194.352 226.205 194.48 225.757 194.736C225.309 194.992 224.952 195.365 224.685 195.856C224.419 196.347 224.285 196.923 224.285 197.584C224.285 198.256 224.419 198.843 224.685 199.344C224.952 199.835 225.309 200.213 225.757 200.48C226.205 200.736 226.701 200.864 227.245 200.864C227.789 200.864 228.285 200.736 228.733 200.48C229.192 200.213 229.555 199.835 229.821 199.344C230.088 198.843 230.221 198.261 230.221 197.6ZM235.61 190.16V202H234.154V190.16H235.61ZM246.091 197.28C246.091 197.557 246.075 197.851 246.043 198.16H239.035C239.089 199.024 239.382 199.701 239.915 200.192C240.459 200.672 241.115 200.912 241.883 200.912C242.513 200.912 243.035 200.768 243.451 200.48C243.878 200.181 244.177 199.787 244.347 199.296H245.915C245.681 200.139 245.211 200.827 244.507 201.36C243.803 201.883 242.929 202.144 241.883 202.144C241.051 202.144 240.305 201.957 239.643 201.584C238.993 201.211 238.481 200.683 238.107 200C237.734 199.307 237.547 198.507 237.547 197.6C237.547 196.693 237.729 195.899 238.091 195.216C238.454 194.533 238.961 194.011 239.611 193.648C240.273 193.275 241.03 193.088 241.883 193.088C242.715 193.088 243.451 193.269 244.091 193.632C244.731 193.995 245.222 194.496 245.563 195.136C245.915 195.765 246.091 196.48 246.091 197.28ZM244.587 196.976C244.587 196.421 244.465 195.947 244.219 195.552C243.974 195.147 243.638 194.843 243.211 194.64C242.795 194.427 242.331 194.32 241.819 194.32C241.083 194.32 240.454 194.555 239.931 195.024C239.419 195.493 239.126 196.144 239.051 196.976H244.587Z" fill="white"/>
</g>
<defs>
<filter id="filter0_d_238_4703" x="0" y="0" width="294" height="254" filterUnits="userSpaceOnUse" color-interpolation-filters="sRGB">
<feFlood flood-opacity="0" result="BackgroundImageFix"/>
<feColorMatrix in="SourceAlpha" type="matrix" values="0 0 0 0 0 0 0 0 0 0 0 0 0 0 0 0 0 0 127 0" result="hardAlpha"/>
<feMorphology radius="2" operator="dilate" in="SourceAlpha" result="effect1_dropShadow_238_4703"/>
<feOffset dy="2"/>
<feGaussianBlur stdDeviation="5"/>
<feComposite in2="hardAlpha" operator="out"/>
<feColorMatrix type="matrix" values="0 0 0 0 0 0 0 0 0 0 0 0 0 0 0 0 0 0 0.2 0"/>
<feBlend mode="normal" in2="BackgroundImageFix" result="effect1_dropShadow_238_4703"/>
<feBlend mode="normal" in="SourceGraphic" in2="effect1_dropShadow_238_4703" result="shape"/>
</filter>
</defs>
</svg>
