<svg width="270" height="230" viewBox="0 0 270 230" fill="none" xmlns="http://www.w3.org/2000/svg">
<rect x="0.5" y="0.5" width="269" height="229" rx="3.5" stroke="black" stroke-opacity="0.3"/>
<path opacity="0.3" d="M175 70C175 92.0914 157.091 110 135 110C112.909 110 95 92.0914 95 70C95 47.9086 112.909 30 135 30C157.091 30 175 47.9086 175 70ZM105.907 70C105.907 86.0675 118.932 99.0929 135 99.0929C151.068 99.0929 164.093 86.0675 164.093 70C164.093 53.9325 151.068 40.9071 135 40.9071C118.932 40.9071 105.907 53.9325 105.907 70Z" fill="#2F2E30"/>
<circle cx="135" cy="70" r="29" fill="black"/>
<path d="M126.667 61.6667V58.3334C126.667 57.3682 126.946 56.4236 127.471 55.6137C127.996 54.8038 128.745 54.1632 129.626 53.7691C130.507 53.3751 131.483 53.2445 132.437 53.3931C133.391 53.5418 134.281 53.9633 135 54.6067C135.72 53.9633 136.61 53.5418 137.564 53.3931C138.517 53.2445 139.494 53.3751 140.375 53.7691C141.256 54.1632 142.004 54.8038 142.529 55.6137C143.054 56.4236 143.334 57.3682 143.334 58.3334V61.6667H145.834C146.497 61.6667 147.133 61.9301 147.601 62.399C148.07 62.8678 148.334 63.5037 148.334 64.1667V80.8417C148.334 82.3866 147.72 83.8682 146.628 84.9606C145.535 86.053 144.054 86.6667 142.509 86.6667H128.334C126.566 86.6667 124.87 85.9643 123.62 84.7141C122.369 83.4639 121.667 81.7682 121.667 80.0001V64.1667C121.667 63.5037 121.93 62.8678 122.399 62.399C122.868 61.9301 123.504 61.6667 124.167 61.6667H126.667ZM137.725 84.1667C137.045 83.1914 136.682 82.0306 136.684 80.8417V64.1667H124.167V80.0001C124.167 80.5472 124.275 81.089 124.484 81.5946C124.694 82.1001 125 82.5594 125.387 82.9463C125.774 83.3332 126.234 83.6402 126.739 83.8496C127.245 84.0589 127.786 84.1667 128.334 84.1667H137.725ZM134.167 61.6667V58.3334C134.167 57.6703 133.904 57.0345 133.435 56.5656C132.966 56.0968 132.33 55.8334 131.667 55.8334C131.004 55.8334 130.368 56.0968 129.899 56.5656C129.43 57.0345 129.167 57.6703 129.167 58.3334V61.6667H134.167ZM136.667 61.6667H140.834V58.3334C140.834 57.8188 140.675 57.3167 140.379 56.8957C140.083 56.4746 139.665 56.1552 139.18 55.9809C138.696 55.8066 138.17 55.786 137.674 55.9219C137.177 56.0577 136.735 56.3435 136.407 56.7401C136.575 57.2401 136.667 57.7767 136.667 58.3334V61.6667ZM139.184 80.8417C139.184 81.7236 139.534 82.5693 140.158 83.1929C140.781 83.8164 141.627 84.1667 142.509 84.1667C143.391 84.1667 144.236 83.8164 144.86 83.1929C145.483 82.5693 145.834 81.7236 145.834 80.8417V64.1667H139.184V80.8417Z" fill="white"/>
<path d="M88.5341 156.909V153.034L98.25 137.727H101.591V143.091H99.6136L93.4886 152.784V152.966H107.295V156.909H88.5341ZM99.7045 161V155.727L99.7955 154.011V137.727H104.409V161H99.7045ZM120.354 161.318C118.748 161.318 117.316 161.023 116.058 160.432C114.808 159.841 113.816 159.027 113.081 157.989C112.346 156.951 111.964 155.761 111.933 154.42H116.706C116.759 155.322 117.138 156.053 117.843 156.614C118.547 157.174 119.384 157.455 120.354 157.455C121.127 157.455 121.808 157.284 122.399 156.943C122.998 156.595 123.464 156.114 123.797 155.5C124.138 154.879 124.308 154.167 124.308 153.364C124.308 152.545 124.134 151.826 123.786 151.205C123.445 150.583 122.971 150.098 122.365 149.75C121.759 149.402 121.066 149.223 120.286 149.216C119.604 149.216 118.941 149.356 118.297 149.636C117.661 149.917 117.164 150.299 116.808 150.784L112.433 150L113.536 137.727H127.763V141.75H117.593L116.99 147.58H117.127C117.536 147.004 118.153 146.527 118.979 146.148C119.805 145.769 120.729 145.58 121.752 145.58C123.153 145.58 124.403 145.909 125.502 146.568C126.6 147.227 127.468 148.133 128.104 149.284C128.74 150.428 129.055 151.746 129.047 153.239C129.055 154.807 128.691 156.201 127.956 157.42C127.229 158.633 126.21 159.587 124.899 160.284C123.596 160.973 122.081 161.318 120.354 161.318ZM135.884 161.295C135.134 161.295 134.49 161.03 133.952 160.5C133.422 159.962 133.157 159.318 133.157 158.568C133.157 157.826 133.422 157.189 133.952 156.659C134.49 156.129 135.134 155.864 135.884 155.864C136.611 155.864 137.248 156.129 137.793 156.659C138.338 157.189 138.611 157.826 138.611 158.568C138.611 159.068 138.482 159.527 138.225 159.943C137.975 160.352 137.645 160.682 137.236 160.932C136.827 161.174 136.376 161.295 135.884 161.295ZM152.133 161.318C150.527 161.318 149.095 161.023 147.837 160.432C146.587 159.841 145.595 159.027 144.86 157.989C144.125 156.951 143.742 155.761 143.712 154.42H148.485C148.538 155.322 148.917 156.053 149.621 156.614C150.326 157.174 151.163 157.455 152.133 157.455C152.905 157.455 153.587 157.284 154.178 156.943C154.777 156.595 155.242 156.114 155.576 155.5C155.917 154.879 156.087 154.167 156.087 153.364C156.087 152.545 155.913 151.826 155.564 151.205C155.224 150.583 154.75 150.098 154.144 149.75C153.538 149.402 152.845 149.223 152.064 149.216C151.383 149.216 150.72 149.356 150.076 149.636C149.439 149.917 148.943 150.299 148.587 150.784L144.212 150L145.314 137.727H159.542V141.75H149.371L148.769 147.58H148.905C149.314 147.004 149.932 146.527 150.758 146.148C151.583 145.769 152.508 145.58 153.53 145.58C154.932 145.58 156.182 145.909 157.28 146.568C158.379 147.227 159.246 148.133 159.883 149.284C160.519 150.428 160.833 151.746 160.826 153.239C160.833 154.807 160.47 156.201 159.735 157.42C159.008 158.633 157.989 159.587 156.678 160.284C155.375 160.973 153.86 161.318 152.133 161.318ZM169.969 155.977L169.981 150.17H170.685L176.276 143.545H181.833L174.322 152.318H173.174L169.969 155.977ZM165.583 161V137.727H170.424V161H165.583ZM176.492 161L171.356 153.398L174.583 149.977L182.163 161H176.492Z" fill="black"/>
<path d="M28.188 188.416C28.188 187.328 28.4333 186.352 28.924 185.488C29.4147 184.613 30.0813 183.931 30.924 183.44C31.7773 182.949 32.7213 182.704 33.756 182.704C34.972 182.704 36.0333 182.997 36.94 183.584C37.8467 184.171 38.508 185.003 38.924 186.08H37.18C36.8707 185.408 36.4227 184.891 35.836 184.528C35.26 184.165 34.5667 183.984 33.756 183.984C32.9773 183.984 32.2787 184.165 31.66 184.528C31.0413 184.891 30.556 185.408 30.204 186.08C29.852 186.741 29.676 187.52 29.676 188.416C29.676 189.301 29.852 190.08 30.204 190.752C30.556 191.413 31.0413 191.925 31.66 192.288C32.2787 192.651 32.9773 192.832 33.756 192.832C34.5667 192.832 35.26 192.656 35.836 192.304C36.4227 191.941 36.8707 191.424 37.18 190.752H38.924C38.508 191.819 37.8467 192.645 36.94 193.232C36.0333 193.808 34.972 194.096 33.756 194.096C32.7213 194.096 31.7773 193.856 30.924 193.376C30.0813 192.885 29.4147 192.208 28.924 191.344C28.4333 190.48 28.188 189.504 28.188 188.416ZM48.8674 185.232V194H47.4114V192.704C47.134 193.152 46.7447 193.504 46.2434 193.76C45.7527 194.005 45.2087 194.128 44.6114 194.128C43.9287 194.128 43.3154 193.989 42.7714 193.712C42.2274 193.424 41.7954 192.997 41.4754 192.432C41.166 191.867 41.0114 191.179 41.0114 190.368V185.232H42.4514V190.176C42.4514 191.04 42.67 191.707 43.1074 192.176C43.5447 192.635 44.142 192.864 44.8994 192.864C45.678 192.864 46.2914 192.624 46.7394 192.144C47.1874 191.664 47.4114 190.965 47.4114 190.048V185.232H48.8674ZM54.4298 194.144C53.7578 194.144 53.1551 194.032 52.6218 193.808C52.0884 193.573 51.6671 193.253 51.3578 192.848C51.0484 192.432 50.8778 191.957 50.8458 191.424H52.3498C52.3924 191.861 52.5951 192.219 52.9578 192.496C53.3311 192.773 53.8164 192.912 54.4138 192.912C54.9684 192.912 55.4058 192.789 55.7258 192.544C56.0458 192.299 56.2058 191.989 56.2058 191.616C56.2058 191.232 56.0351 190.949 55.6938 190.768C55.3524 190.576 54.8244 190.389 54.1098 190.208C53.4591 190.037 52.9258 189.867 52.5098 189.696C52.1044 189.515 51.7524 189.253 51.4538 188.912C51.1658 188.56 51.0218 188.101 51.0218 187.536C51.0218 187.088 51.1551 186.677 51.4218 186.304C51.6884 185.931 52.0671 185.637 52.5578 185.424C53.0484 185.2 53.6084 185.088 54.2378 185.088C55.2084 185.088 55.9924 185.333 56.5898 185.824C57.1871 186.315 57.5071 186.987 57.5498 187.84H56.0938C56.0618 187.381 55.8751 187.013 55.5338 186.736C55.2031 186.459 54.7551 186.32 54.1898 186.32C53.6671 186.32 53.2511 186.432 52.9418 186.656C52.6324 186.88 52.4778 187.173 52.4778 187.536C52.4778 187.824 52.5684 188.064 52.7498 188.256C52.9418 188.437 53.1764 188.587 53.4538 188.704C53.7418 188.811 54.1364 188.933 54.6378 189.072C55.2671 189.243 55.7791 189.413 56.1738 189.584C56.5684 189.744 56.9044 189.989 57.1818 190.32C57.4698 190.651 57.6191 191.083 57.6298 191.616C57.6298 192.096 57.4964 192.528 57.2298 192.912C56.9631 193.296 56.5844 193.6 56.0938 193.824C55.6138 194.037 55.0591 194.144 54.4298 194.144ZM61.4611 186.432V191.6C61.4611 192.027 61.5518 192.331 61.7331 192.512C61.9145 192.683 62.2291 192.768 62.6771 192.768H63.7491V194H62.4371C61.6265 194 61.0185 193.813 60.6131 193.44C60.2078 193.067 60.0051 192.453 60.0051 191.6V186.432H58.8691V185.232H60.0051V183.024H61.4611V185.232H63.7491V186.432H61.4611ZM69.3373 194.144C68.5159 194.144 67.7693 193.957 67.0973 193.584C66.4359 193.211 65.9133 192.683 65.5293 192C65.1559 191.307 64.9693 190.507 64.9693 189.6C64.9693 188.704 65.1613 187.915 65.5453 187.232C65.9399 186.539 66.4733 186.011 67.1453 185.648C67.8173 185.275 68.5693 185.088 69.4013 185.088C70.2333 185.088 70.9853 185.275 71.6573 185.648C72.3293 186.011 72.8573 186.533 73.2413 187.216C73.6359 187.899 73.8333 188.693 73.8333 189.6C73.8333 190.507 73.6306 191.307 73.2253 192C72.8306 192.683 72.2919 193.211 71.6093 193.584C70.9266 193.957 70.1693 194.144 69.3373 194.144ZM69.3373 192.864C69.8599 192.864 70.3506 192.741 70.8093 192.496C71.2679 192.251 71.6359 191.883 71.9133 191.392C72.2013 190.901 72.3453 190.304 72.3453 189.6C72.3453 188.896 72.2066 188.299 71.9293 187.808C71.6519 187.317 71.2893 186.955 70.8413 186.72C70.3933 186.475 69.9079 186.352 69.3853 186.352C68.8519 186.352 68.3613 186.475 67.9133 186.72C67.4759 186.955 67.1239 187.317 66.8573 187.808C66.5906 188.299 66.4573 188.896 66.4573 189.6C66.4573 190.315 66.5853 190.917 66.8413 191.408C67.1079 191.899 67.4599 192.267 67.8973 192.512C68.3346 192.747 68.8146 192.864 69.3373 192.864ZM86.2916 185.072C86.9743 185.072 87.5823 185.216 88.1156 185.504C88.649 185.781 89.0703 186.203 89.3796 186.768C89.689 187.333 89.8436 188.021 89.8436 188.832V194H88.4036V189.04C88.4036 188.165 88.185 187.499 87.7476 187.04C87.321 186.571 86.7396 186.336 86.0036 186.336C85.2463 186.336 84.6436 186.581 84.1956 187.072C83.7476 187.552 83.5236 188.251 83.5236 189.168V194H82.0836V189.04C82.0836 188.165 81.865 187.499 81.4276 187.04C81.001 186.571 80.4196 186.336 79.6836 186.336C78.9263 186.336 78.3236 186.581 77.8756 187.072C77.4276 187.552 77.2036 188.251 77.2036 189.168V194H75.7476V185.232H77.2036V186.496C77.4916 186.037 77.8756 185.685 78.3556 185.44C78.8463 185.195 79.385 185.072 79.9716 185.072C80.7076 185.072 81.3583 185.237 81.9236 185.568C82.489 185.899 82.9103 186.384 83.1876 187.024C83.433 186.405 83.8383 185.925 84.4036 185.584C84.969 185.243 85.5983 185.072 86.2916 185.072ZM100.232 189.28C100.232 189.557 100.216 189.851 100.184 190.16H93.176C93.2293 191.024 93.5227 191.701 94.056 192.192C94.6 192.672 95.256 192.912 96.024 192.912C96.6533 192.912 97.176 192.768 97.592 192.48C98.0187 192.181 98.3173 191.787 98.488 191.296H100.056C99.8213 192.139 99.352 192.827 98.648 193.36C97.944 193.883 97.0693 194.144 96.024 194.144C95.192 194.144 94.4453 193.957 93.784 193.584C93.1333 193.211 92.6213 192.683 92.248 192C91.8747 191.307 91.688 190.507 91.688 189.6C91.688 188.693 91.8693 187.899 92.232 187.216C92.5947 186.533 93.1013 186.011 93.752 185.648C94.4133 185.275 95.1707 185.088 96.024 185.088C96.856 185.088 97.592 185.269 98.232 185.632C98.872 185.995 99.3627 186.496 99.704 187.136C100.056 187.765 100.232 188.48 100.232 189.28ZM98.728 188.976C98.728 188.421 98.6053 187.947 98.36 187.552C98.1147 187.147 97.7787 186.843 97.352 186.64C96.936 186.427 96.472 186.32 95.96 186.32C95.224 186.32 94.5947 186.555 94.072 187.024C93.56 187.493 93.2667 188.144 93.192 188.976H98.728ZM103.61 186.656C103.866 186.155 104.229 185.765 104.698 185.488C105.178 185.211 105.759 185.072 106.442 185.072V186.576H106.058C104.426 186.576 103.61 187.461 103.61 189.232V194H102.154V185.232H103.61V186.656ZM111.844 189.584C111.844 188.688 112.026 187.904 112.388 187.232C112.751 186.549 113.247 186.021 113.876 185.648C114.516 185.275 115.226 185.088 116.004 185.088C116.772 185.088 117.439 185.253 118.004 185.584C118.57 185.915 118.991 186.331 119.268 186.832V185.232H120.74V194H119.268V192.368C118.98 192.88 118.548 193.307 117.972 193.648C117.407 193.979 116.746 194.144 115.988 194.144C115.21 194.144 114.506 193.952 113.876 193.568C113.247 193.184 112.751 192.645 112.388 191.952C112.026 191.259 111.844 190.469 111.844 189.584ZM119.268 189.6C119.268 188.939 119.135 188.363 118.868 187.872C118.602 187.381 118.239 187.008 117.78 186.752C117.332 186.485 116.836 186.352 116.292 186.352C115.748 186.352 115.252 186.48 114.804 186.736C114.356 186.992 113.999 187.365 113.732 187.856C113.466 188.347 113.332 188.923 113.332 189.584C113.332 190.256 113.466 190.843 113.732 191.344C113.999 191.835 114.356 192.213 114.804 192.48C115.252 192.736 115.748 192.864 116.292 192.864C116.836 192.864 117.332 192.736 117.78 192.48C118.239 192.213 118.602 191.835 118.868 191.344C119.135 190.843 119.268 190.261 119.268 189.6ZM122.657 189.6C122.657 188.693 122.838 187.904 123.201 187.232C123.563 186.549 124.065 186.021 124.705 185.648C125.355 185.275 126.097 185.088 126.929 185.088C128.006 185.088 128.891 185.349 129.585 185.872C130.289 186.395 130.753 187.12 130.977 188.048H129.409C129.259 187.515 128.966 187.093 128.529 186.784C128.102 186.475 127.569 186.32 126.929 186.32C126.097 186.32 125.425 186.608 124.913 187.184C124.401 187.749 124.145 188.555 124.145 189.6C124.145 190.656 124.401 191.472 124.913 192.048C125.425 192.624 126.097 192.912 126.929 192.912C127.569 192.912 128.102 192.763 128.529 192.464C128.955 192.165 129.249 191.739 129.409 191.184H130.977C130.742 192.08 130.273 192.8 129.569 193.344C128.865 193.877 127.985 194.144 126.929 194.144C126.097 194.144 125.355 193.957 124.705 193.584C124.065 193.211 123.563 192.683 123.201 192C122.838 191.317 122.657 190.517 122.657 189.6ZM134.696 186.432V191.6C134.696 192.027 134.786 192.331 134.968 192.512C135.149 192.683 135.464 192.768 135.911 192.768H136.984V194H135.672C134.861 194 134.253 193.813 133.848 193.44C133.442 193.067 133.24 192.453 133.24 191.6V186.432H132.104V185.232H133.24V183.024H134.696V185.232H136.984V186.432H134.696ZM139.5 183.808C139.222 183.808 138.988 183.712 138.796 183.52C138.604 183.328 138.508 183.093 138.508 182.816C138.508 182.539 138.604 182.304 138.796 182.112C138.988 181.92 139.222 181.824 139.5 181.824C139.766 181.824 139.99 181.92 140.172 182.112C140.364 182.304 140.46 182.539 140.46 182.816C140.46 183.093 140.364 183.328 140.172 183.52C139.99 183.712 139.766 183.808 139.5 183.808ZM140.204 185.232V194H138.748V185.232H140.204ZM145.949 192.656L148.669 185.232H150.221L146.781 194H145.085L141.645 185.232H143.213L145.949 192.656ZM159.654 189.28C159.654 189.557 159.638 189.851 159.606 190.16H152.598C152.651 191.024 152.945 191.701 153.478 192.192C154.022 192.672 154.678 192.912 155.446 192.912C156.075 192.912 156.598 192.768 157.014 192.48C157.441 192.181 157.739 191.787 157.91 191.296H159.478C159.243 192.139 158.774 192.827 158.07 193.36C157.366 193.883 156.491 194.144 155.446 194.144C154.614 194.144 153.867 193.957 153.206 193.584C152.555 193.211 152.043 192.683 151.67 192C151.297 191.307 151.11 190.507 151.11 189.6C151.11 188.693 151.291 187.899 151.654 187.216C152.017 186.533 152.523 186.011 153.174 185.648C153.835 185.275 154.593 185.088 155.446 185.088C156.278 185.088 157.014 185.269 157.654 185.632C158.294 185.995 158.785 186.496 159.126 187.136C159.478 187.765 159.654 188.48 159.654 189.28ZM158.15 188.976C158.15 188.421 158.027 187.947 157.782 187.552C157.537 187.147 157.201 186.843 156.774 186.64C156.358 186.427 155.894 186.32 155.382 186.32C154.646 186.32 154.017 186.555 153.494 187.024C152.982 187.493 152.689 188.144 152.614 188.976H158.15ZM166.593 183.808C166.316 183.808 166.081 183.712 165.889 183.52C165.697 183.328 165.601 183.093 165.601 182.816C165.601 182.539 165.697 182.304 165.889 182.112C166.081 181.92 166.316 181.824 166.593 181.824C166.86 181.824 167.084 181.92 167.265 182.112C167.457 182.304 167.553 182.539 167.553 182.816C167.553 183.093 167.457 183.328 167.265 183.52C167.084 183.712 166.86 183.808 166.593 183.808ZM167.297 185.232V194H165.841V185.232H167.297ZM174.051 185.072C175.118 185.072 175.982 185.397 176.643 186.048C177.304 186.688 177.635 187.616 177.635 188.832V194H176.195V189.04C176.195 188.165 175.976 187.499 175.539 187.04C175.102 186.571 174.504 186.336 173.747 186.336C172.979 186.336 172.366 186.576 171.907 187.056C171.459 187.536 171.235 188.235 171.235 189.152V194H169.779V185.232H171.235V186.48C171.523 186.032 171.912 185.685 172.403 185.44C172.904 185.195 173.454 185.072 174.051 185.072ZM188.103 194.144C187.282 194.144 186.535 193.957 185.863 193.584C185.202 193.211 184.679 192.683 184.295 192C183.922 191.307 183.735 190.507 183.735 189.6C183.735 188.704 183.927 187.915 184.311 187.232C184.706 186.539 185.239 186.011 185.911 185.648C186.583 185.275 187.335 185.088 188.167 185.088C188.999 185.088 189.751 185.275 190.423 185.648C191.095 186.011 191.623 186.533 192.007 187.216C192.402 187.899 192.599 188.693 192.599 189.6C192.599 190.507 192.396 191.307 191.991 192C191.596 192.683 191.058 193.211 190.375 193.584C189.692 193.957 188.935 194.144 188.103 194.144ZM188.103 192.864C188.626 192.864 189.116 192.741 189.575 192.496C190.034 192.251 190.402 191.883 190.679 191.392C190.967 190.901 191.111 190.304 191.111 189.6C191.111 188.896 190.972 188.299 190.695 187.808C190.418 187.317 190.055 186.955 189.607 186.72C189.159 186.475 188.674 186.352 188.151 186.352C187.618 186.352 187.127 186.475 186.679 186.72C186.242 186.955 185.89 187.317 185.623 187.808C185.356 188.299 185.223 188.896 185.223 189.6C185.223 190.315 185.351 190.917 185.607 191.408C185.874 191.899 186.226 192.267 186.663 192.512C187.1 192.747 187.58 192.864 188.103 192.864ZM202.289 185.232V194H200.833V192.704C200.556 193.152 200.167 193.504 199.665 193.76C199.175 194.005 198.631 194.128 198.033 194.128C197.351 194.128 196.737 193.989 196.193 193.712C195.649 193.424 195.217 192.997 194.897 192.432C194.588 191.867 194.433 191.179 194.433 190.368V185.232H195.873V190.176C195.873 191.04 196.092 191.707 196.529 192.176C196.967 192.635 197.564 192.864 198.321 192.864C199.1 192.864 199.713 192.624 200.161 192.144C200.609 191.664 200.833 190.965 200.833 190.048V185.232H202.289ZM206.204 186.656C206.46 186.155 206.822 185.765 207.292 185.488C207.772 185.211 208.353 185.072 209.036 185.072V186.576H208.652C207.02 186.576 206.204 187.461 206.204 189.232V194H204.748V185.232H206.204V186.656ZM218.086 194.144C217.414 194.144 216.811 194.032 216.278 193.808C215.745 193.573 215.323 193.253 215.014 192.848C214.705 192.432 214.534 191.957 214.502 191.424H216.006C216.049 191.861 216.251 192.219 216.614 192.496C216.987 192.773 217.473 192.912 218.07 192.912C218.625 192.912 219.062 192.789 219.382 192.544C219.702 192.299 219.862 191.989 219.862 191.616C219.862 191.232 219.691 190.949 219.35 190.768C219.009 190.576 218.481 190.389 217.766 190.208C217.115 190.037 216.582 189.867 216.166 189.696C215.761 189.515 215.409 189.253 215.11 188.912C214.822 188.56 214.678 188.101 214.678 187.536C214.678 187.088 214.811 186.677 215.078 186.304C215.345 185.931 215.723 185.637 216.214 185.424C216.705 185.2 217.265 185.088 217.894 185.088C218.865 185.088 219.649 185.333 220.246 185.824C220.843 186.315 221.163 186.987 221.206 187.84H219.75C219.718 187.381 219.531 187.013 219.19 186.736C218.859 186.459 218.411 186.32 217.846 186.32C217.323 186.32 216.907 186.432 216.598 186.656C216.289 186.88 216.134 187.173 216.134 187.536C216.134 187.824 216.225 188.064 216.406 188.256C216.598 188.437 216.833 188.587 217.11 188.704C217.398 188.811 217.793 188.933 218.294 189.072C218.923 189.243 219.435 189.413 219.83 189.584C220.225 189.744 220.561 189.989 220.838 190.32C221.126 190.651 221.275 191.083 221.286 191.616C221.286 192.096 221.153 192.528 220.886 192.912C220.619 193.296 220.241 193.6 219.75 193.824C219.27 194.037 218.715 194.144 218.086 194.144ZM224.093 183.808C223.816 183.808 223.581 183.712 223.389 183.52C223.197 183.328 223.101 183.093 223.101 182.816C223.101 182.539 223.197 182.304 223.389 182.112C223.581 181.92 223.816 181.824 224.093 181.824C224.36 181.824 224.584 181.92 224.765 182.112C224.957 182.304 225.053 182.539 225.053 182.816C225.053 183.093 224.957 183.328 224.765 183.52C224.584 183.712 224.36 183.808 224.093 183.808ZM224.797 185.232V194H223.341V185.232H224.797ZM229.055 186.432V191.6C229.055 192.027 229.146 192.331 229.327 192.512C229.508 192.683 229.823 192.768 230.271 192.768H231.343V194H230.031C229.22 194 228.612 193.813 228.207 193.44C227.802 193.067 227.599 192.453 227.599 191.6V186.432H226.463V185.232H227.599V183.024H229.055V185.232H231.343V186.432H229.055ZM241.107 189.28C241.107 189.557 241.091 189.851 241.059 190.16H234.051C234.104 191.024 234.398 191.701 234.931 192.192C235.475 192.672 236.131 192.912 236.899 192.912C237.528 192.912 238.051 192.768 238.467 192.48C238.894 192.181 239.192 191.787 239.363 191.296H240.931C240.696 192.139 240.227 192.827 239.523 193.36C238.819 193.883 237.944 194.144 236.899 194.144C236.067 194.144 235.32 193.957 234.659 193.584C234.008 193.211 233.496 192.683 233.123 192C232.75 191.307 232.563 190.507 232.563 189.6C232.563 188.693 232.744 187.899 233.107 187.216C233.47 186.533 233.976 186.011 234.627 185.648C235.288 185.275 236.046 185.088 236.899 185.088C237.731 185.088 238.467 185.269 239.107 185.632C239.747 185.995 240.238 186.496 240.579 187.136C240.931 187.765 241.107 188.48 241.107 189.28ZM239.603 188.976C239.603 188.421 239.48 187.947 239.235 187.552C238.99 187.147 238.654 186.843 238.227 186.64C237.811 186.427 237.347 186.32 236.835 186.32C236.099 186.32 235.47 186.555 234.947 187.024C234.435 187.493 234.142 188.144 234.067 188.976H239.603Z" fill="black"/>
</svg>
