<svg width="570" height="284" viewBox="0 0 570 284" fill="none" xmlns="http://www.w3.org/2000/svg">
<g clip-path="url(#clip0_95_2550)">
<rect width="570" height="284" rx="4" fill="#0D0D0D"/>
<rect width="432" height="286" transform="matrix(-1 0 0 1 570 0)"/>
<path d="M29.3949 159L24.4688 141.545H27.8693L31.0142 154.372H31.1761L34.5341 141.545H37.6278L40.9943 154.381H41.1477L44.2926 141.545H47.6932L42.767 159H39.6477L36.1534 146.753H36.017L32.5142 159H29.3949ZM54.8436 159.256C53.5652 159.256 52.4572 158.974 51.5197 158.412C50.5822 157.849 49.8549 157.062 49.3379 156.051C48.8265 155.04 48.5709 153.858 48.5709 152.506C48.5709 151.153 48.8265 149.969 49.3379 148.952C49.8549 147.935 50.5822 147.145 51.5197 146.582C52.4572 146.02 53.5652 145.739 54.8436 145.739C56.122 145.739 57.2299 146.02 58.1674 146.582C59.1049 147.145 59.8294 147.935 60.3407 148.952C60.8578 149.969 61.1163 151.153 61.1163 152.506C61.1163 153.858 60.8578 155.04 60.3407 156.051C59.8294 157.062 59.1049 157.849 58.1674 158.412C57.2299 158.974 56.122 159.256 54.8436 159.256ZM54.8606 156.784C55.5538 156.784 56.1334 156.594 56.5993 156.213C57.0652 155.827 57.4118 155.31 57.639 154.662C57.872 154.014 57.9885 153.293 57.9885 152.497C57.9885 151.696 57.872 150.972 57.639 150.324C57.4118 149.67 57.0652 149.151 56.5993 148.764C56.1334 148.378 55.5538 148.185 54.8606 148.185C54.1504 148.185 53.5595 148.378 53.0879 148.764C52.622 149.151 52.2726 149.67 52.0396 150.324C51.8123 150.972 51.6987 151.696 51.6987 152.497C51.6987 153.293 51.8123 154.014 52.0396 154.662C52.2726 155.31 52.622 155.827 53.0879 156.213C53.5595 156.594 54.1504 156.784 54.8606 156.784ZM64.4549 159V145.909H67.4038V148.134H67.5572C67.8299 147.384 68.2816 146.798 68.9123 146.378C69.543 145.952 70.2958 145.739 71.1708 145.739C72.0572 145.739 72.8043 145.955 73.4123 146.386C74.0259 146.812 74.4578 147.395 74.7078 148.134H74.8441C75.1339 147.406 75.6225 146.827 76.31 146.395C77.0032 145.957 77.8242 145.739 78.7731 145.739C79.9776 145.739 80.9606 146.119 81.722 146.881C82.4833 147.642 82.864 148.753 82.864 150.213V159H79.7703V150.69C79.7703 149.878 79.5543 149.284 79.1225 148.909C78.6907 148.528 78.1623 148.338 77.5373 148.338C76.793 148.338 76.2106 148.571 75.7901 149.037C75.3754 149.497 75.168 150.097 75.168 150.835V159H72.1424V150.562C72.1424 149.886 71.9379 149.347 71.5288 148.943C71.1254 148.54 70.597 148.338 69.9435 148.338C69.5004 148.338 69.097 148.452 68.7333 148.679C68.3697 148.901 68.0799 149.216 67.864 149.625C67.6481 150.028 67.5401 150.5 67.5401 151.04V159H64.4549ZM92.5094 159.256C91.1969 159.256 90.0634 158.983 89.1089 158.438C88.16 157.886 87.4299 157.108 86.9185 156.102C86.4072 155.091 86.1515 153.901 86.1515 152.531C86.1515 151.185 86.4072 150.003 86.9185 148.986C87.4356 147.963 88.1572 147.168 89.0833 146.599C90.0094 146.026 91.0975 145.739 92.3475 145.739C93.1543 145.739 93.9157 145.869 94.6316 146.131C95.3532 146.386 95.9895 146.784 96.5407 147.324C97.0975 147.864 97.535 148.551 97.8532 149.386C98.1714 150.216 98.3305 151.205 98.3305 152.352V153.298H87.6003V151.219H95.3731C95.3674 150.628 95.2395 150.102 94.9895 149.642C94.7395 149.176 94.3901 148.81 93.9412 148.543C93.4981 148.276 92.981 148.142 92.3901 148.142C91.7594 148.142 91.2055 148.295 90.7282 148.602C90.2509 148.903 89.8788 149.301 89.6117 149.795C89.3503 150.284 89.2168 150.821 89.2111 151.406V153.222C89.2111 153.983 89.3503 154.636 89.6287 155.182C89.9072 155.722 90.2964 156.136 90.7964 156.426C91.2964 156.71 91.8816 156.852 92.552 156.852C93.0009 156.852 93.4072 156.79 93.7708 156.665C94.1344 156.534 94.4498 156.344 94.7168 156.094C94.9839 155.844 95.1856 155.534 95.3219 155.165L98.2026 155.489C98.0208 156.25 97.6742 156.915 97.1628 157.483C96.6572 158.045 96.0094 158.483 95.2197 158.795C94.4299 159.102 93.5265 159.256 92.5094 159.256ZM104.746 151.33V159H101.661V145.909H104.609V148.134H104.763C105.064 147.401 105.544 146.818 106.203 146.386C106.868 145.955 107.689 145.739 108.666 145.739C109.57 145.739 110.357 145.932 111.027 146.318C111.703 146.705 112.226 147.264 112.595 147.997C112.97 148.73 113.155 149.619 113.149 150.665V159H110.064V151.142C110.064 150.267 109.837 149.582 109.382 149.088C108.933 148.594 108.311 148.347 107.516 148.347C106.976 148.347 106.496 148.466 106.075 148.705C105.661 148.937 105.334 149.276 105.095 149.719C104.862 150.162 104.746 150.699 104.746 151.33ZM119.622 141.545V143.284C119.622 143.784 119.525 144.304 119.332 144.844C119.145 145.378 118.886 145.889 118.557 146.378C118.227 146.861 117.852 147.276 117.432 147.622L116 146.693C116.312 146.222 116.585 145.713 116.818 145.168C117.051 144.616 117.167 143.994 117.167 143.301V141.545H119.622ZM131.494 149.369L128.682 149.676C128.602 149.392 128.463 149.125 128.264 148.875C128.071 148.625 127.809 148.423 127.48 148.27C127.15 148.116 126.747 148.04 126.27 148.04C125.628 148.04 125.088 148.179 124.65 148.457C124.218 148.736 124.005 149.097 124.011 149.54C124.005 149.92 124.145 150.23 124.429 150.469C124.718 150.707 125.196 150.903 125.86 151.057L128.093 151.534C129.332 151.801 130.253 152.224 130.855 152.804C131.463 153.384 131.77 154.142 131.775 155.08C131.77 155.903 131.528 156.631 131.051 157.261C130.579 157.886 129.923 158.375 129.082 158.727C128.241 159.08 127.275 159.256 126.184 159.256C124.582 159.256 123.292 158.92 122.315 158.25C121.338 157.574 120.755 156.634 120.568 155.429L123.576 155.139C123.713 155.73 124.003 156.176 124.446 156.477C124.889 156.778 125.466 156.929 126.176 156.929C126.909 156.929 127.497 156.778 127.94 156.477C128.389 156.176 128.613 155.804 128.613 155.361C128.613 154.986 128.468 154.676 128.179 154.432C127.895 154.187 127.451 154 126.849 153.869L124.616 153.401C123.36 153.139 122.432 152.699 121.829 152.08C121.227 151.455 120.929 150.665 120.934 149.71C120.929 148.903 121.147 148.205 121.591 147.614C122.039 147.017 122.662 146.557 123.457 146.233C124.258 145.903 125.182 145.739 126.227 145.739C127.761 145.739 128.968 146.065 129.849 146.719C130.735 147.372 131.284 148.256 131.494 149.369ZM156.789 147.435H153.602C153.511 146.912 153.343 146.449 153.099 146.045C152.854 145.636 152.55 145.29 152.187 145.006C151.823 144.722 151.408 144.509 150.943 144.366C150.482 144.219 149.985 144.145 149.451 144.145C148.502 144.145 147.661 144.384 146.928 144.861C146.195 145.332 145.622 146.026 145.207 146.94C144.792 147.849 144.585 148.96 144.585 150.273C144.585 151.608 144.792 152.733 145.207 153.648C145.627 154.557 146.201 155.244 146.928 155.71C147.661 156.17 148.499 156.401 149.443 156.401C149.965 156.401 150.454 156.332 150.908 156.196C151.369 156.054 151.781 155.847 152.144 155.574C152.514 155.301 152.823 154.966 153.073 154.568C153.329 154.17 153.505 153.716 153.602 153.205L156.789 153.222C156.67 154.051 156.411 154.83 156.014 155.557C155.622 156.284 155.107 156.926 154.471 157.483C153.835 158.034 153.09 158.466 152.238 158.778C151.386 159.085 150.44 159.239 149.4 159.239C147.866 159.239 146.497 158.884 145.292 158.173C144.087 157.463 143.139 156.438 142.445 155.097C141.752 153.756 141.406 152.148 141.406 150.273C141.406 148.392 141.755 146.784 142.454 145.449C143.153 144.108 144.104 143.082 145.309 142.372C146.514 141.662 147.877 141.307 149.4 141.307C150.372 141.307 151.275 141.443 152.11 141.716C152.945 141.989 153.69 142.389 154.343 142.918C154.997 143.44 155.533 144.082 155.954 144.844C156.38 145.599 156.658 146.463 156.789 147.435ZM165.979 159.256C164.7 159.256 163.592 158.974 162.655 158.412C161.717 157.849 160.99 157.062 160.473 156.051C159.962 155.04 159.706 153.858 159.706 152.506C159.706 151.153 159.962 149.969 160.473 148.952C160.99 147.935 161.717 147.145 162.655 146.582C163.592 146.02 164.7 145.739 165.979 145.739C167.257 145.739 168.365 146.02 169.302 146.582C170.24 147.145 170.964 147.935 171.476 148.952C171.993 149.969 172.251 151.153 172.251 152.506C172.251 153.858 171.993 155.04 171.476 156.051C170.964 157.062 170.24 157.849 169.302 158.412C168.365 158.974 167.257 159.256 165.979 159.256ZM165.996 156.784C166.689 156.784 167.268 156.594 167.734 156.213C168.2 155.827 168.547 155.31 168.774 154.662C169.007 154.014 169.123 153.293 169.123 152.497C169.123 151.696 169.007 150.972 168.774 150.324C168.547 149.67 168.2 149.151 167.734 148.764C167.268 148.378 166.689 148.185 165.996 148.185C165.285 148.185 164.694 148.378 164.223 148.764C163.757 149.151 163.408 149.67 163.175 150.324C162.947 150.972 162.834 151.696 162.834 152.497C162.834 153.293 162.947 154.014 163.175 154.662C163.408 155.31 163.757 155.827 164.223 156.213C164.694 156.594 165.285 156.784 165.996 156.784ZM178.675 141.545V159H175.59V141.545H178.675ZM185.653 141.545V159H182.568V141.545H185.653ZM195.341 159.256C194.028 159.256 192.895 158.983 191.94 158.438C190.992 157.886 190.261 157.108 189.75 156.102C189.239 155.091 188.983 153.901 188.983 152.531C188.983 151.185 189.239 150.003 189.75 148.986C190.267 147.963 190.989 147.168 191.915 146.599C192.841 146.026 193.929 145.739 195.179 145.739C195.986 145.739 196.747 145.869 197.463 146.131C198.185 146.386 198.821 146.784 199.372 147.324C199.929 147.864 200.367 148.551 200.685 149.386C201.003 150.216 201.162 151.205 201.162 152.352V153.298H190.432V151.219H198.205C198.199 150.628 198.071 150.102 197.821 149.642C197.571 149.176 197.222 148.81 196.773 148.543C196.33 148.276 195.813 148.142 195.222 148.142C194.591 148.142 194.037 148.295 193.56 148.602C193.082 148.903 192.71 149.301 192.443 149.795C192.182 150.284 192.048 150.821 192.043 151.406V153.222C192.043 153.983 192.182 154.636 192.46 155.182C192.739 155.722 193.128 156.136 193.628 156.426C194.128 156.71 194.713 156.852 195.384 156.852C195.832 156.852 196.239 156.79 196.602 156.665C196.966 156.534 197.281 156.344 197.548 156.094C197.815 155.844 198.017 155.534 198.153 155.165L201.034 155.489C200.852 156.25 200.506 156.915 199.994 157.483C199.489 158.045 198.841 158.483 198.051 158.795C197.261 159.102 196.358 159.256 195.341 159.256ZM210.202 159.256C208.896 159.256 207.773 158.969 206.836 158.395C205.904 157.821 205.185 157.028 204.68 156.017C204.18 155 203.93 153.83 203.93 152.506C203.93 151.176 204.185 150.003 204.697 148.986C205.208 147.963 205.93 147.168 206.861 146.599C207.799 146.026 208.907 145.739 210.185 145.739C211.248 145.739 212.188 145.935 213.006 146.327C213.83 146.713 214.486 147.261 214.975 147.972C215.464 148.676 215.742 149.5 215.81 150.443H212.861C212.742 149.812 212.458 149.287 212.009 148.866C211.566 148.44 210.972 148.227 210.228 148.227C209.597 148.227 209.043 148.398 208.566 148.739C208.089 149.074 207.717 149.557 207.449 150.188C207.188 150.818 207.057 151.574 207.057 152.455C207.057 153.347 207.188 154.114 207.449 154.756C207.711 155.392 208.077 155.884 208.549 156.23C209.026 156.571 209.586 156.741 210.228 156.741C210.682 156.741 211.089 156.656 211.447 156.486C211.81 156.31 212.114 156.057 212.359 155.727C212.603 155.398 212.771 154.997 212.861 154.526H215.81C215.736 155.452 215.464 156.273 214.992 156.989C214.521 157.699 213.878 158.256 213.066 158.659C212.253 159.057 211.299 159.256 210.202 159.256ZM225.601 145.909V148.295H218.075V145.909H225.601ZM219.933 142.773H223.018V155.062C223.018 155.477 223.081 155.795 223.206 156.017C223.336 156.233 223.507 156.381 223.717 156.46C223.927 156.54 224.16 156.58 224.416 156.58C224.609 156.58 224.785 156.565 224.944 156.537C225.109 156.509 225.234 156.483 225.319 156.46L225.839 158.872C225.674 158.929 225.439 158.991 225.132 159.06C224.831 159.128 224.461 159.168 224.024 159.179C223.251 159.202 222.555 159.085 221.936 158.83C221.317 158.568 220.825 158.165 220.461 157.619C220.103 157.074 219.927 156.392 219.933 155.574V142.773ZM228.901 159V145.909H231.986V159H228.901ZM230.452 144.051C229.963 144.051 229.543 143.889 229.191 143.565C228.838 143.236 228.662 142.841 228.662 142.381C228.662 141.915 228.838 141.52 229.191 141.196C229.543 140.866 229.963 140.702 230.452 140.702C230.946 140.702 231.367 140.866 231.713 141.196C232.066 141.52 232.242 141.915 232.242 142.381C232.242 142.841 232.066 143.236 231.713 143.565C231.367 143.889 230.946 144.051 230.452 144.051ZM241.589 159.256C240.31 159.256 239.203 158.974 238.265 158.412C237.328 157.849 236.6 157.062 236.083 156.051C235.572 155.04 235.316 153.858 235.316 152.506C235.316 151.153 235.572 149.969 236.083 148.952C236.6 147.935 237.328 147.145 238.265 146.582C239.203 146.02 240.31 145.739 241.589 145.739C242.867 145.739 243.975 146.02 244.913 146.582C245.85 147.145 246.575 147.935 247.086 148.952C247.603 149.969 247.862 151.153 247.862 152.506C247.862 153.858 247.603 155.04 247.086 156.051C246.575 157.062 245.85 157.849 244.913 158.412C243.975 158.974 242.867 159.256 241.589 159.256ZM241.606 156.784C242.299 156.784 242.879 156.594 243.345 156.213C243.81 155.827 244.157 155.31 244.384 154.662C244.617 154.014 244.734 153.293 244.734 152.497C244.734 151.696 244.617 150.972 244.384 150.324C244.157 149.67 243.81 149.151 243.345 148.764C242.879 148.378 242.299 148.185 241.606 148.185C240.896 148.185 240.305 148.378 239.833 148.764C239.367 149.151 239.018 149.67 238.785 150.324C238.558 150.972 238.444 151.696 238.444 152.497C238.444 153.293 238.558 154.014 238.785 154.662C239.018 155.31 239.367 155.827 239.833 156.213C240.305 156.594 240.896 156.784 241.606 156.784ZM254.285 151.33V159H251.2V145.909H254.149V148.134H254.303C254.604 147.401 255.084 146.818 255.743 146.386C256.408 145.955 257.229 145.739 258.206 145.739C259.109 145.739 259.896 145.932 260.567 146.318C261.243 146.705 261.766 147.264 262.135 147.997C262.51 148.73 262.695 149.619 262.689 150.665V159H259.604V151.142C259.604 150.267 259.376 149.582 258.922 149.088C258.473 148.594 257.851 148.347 257.055 148.347C256.516 148.347 256.035 148.466 255.615 148.705C255.2 148.937 254.874 149.276 254.635 149.719C254.402 150.162 254.285 150.699 254.285 151.33ZM276.892 149.369L274.079 149.676C274 149.392 273.861 149.125 273.662 148.875C273.469 148.625 273.207 148.423 272.878 148.27C272.548 148.116 272.145 148.04 271.667 148.04C271.025 148.04 270.486 148.179 270.048 148.457C269.616 148.736 269.403 149.097 269.409 149.54C269.403 149.92 269.542 150.23 269.826 150.469C270.116 150.707 270.594 150.903 271.258 151.057L273.491 151.534C274.73 151.801 275.65 152.224 276.253 152.804C276.861 153.384 277.167 154.142 277.173 155.08C277.167 155.903 276.926 156.631 276.449 157.261C275.977 157.886 275.321 158.375 274.48 158.727C273.639 159.08 272.673 159.256 271.582 159.256C269.98 159.256 268.69 158.92 267.713 158.25C266.736 157.574 266.153 156.634 265.966 155.429L268.974 155.139C269.111 155.73 269.4 156.176 269.844 156.477C270.287 156.778 270.863 156.929 271.574 156.929C272.307 156.929 272.895 156.778 273.338 156.477C273.787 156.176 274.011 155.804 274.011 155.361C274.011 154.986 273.866 154.676 273.576 154.432C273.292 154.187 272.849 154 272.247 153.869L270.014 153.401C268.758 153.139 267.829 152.699 267.227 152.08C266.625 151.455 266.326 150.665 266.332 149.71C266.326 148.903 266.545 148.205 266.988 147.614C267.437 147.017 268.059 146.557 268.855 146.233C269.656 145.903 270.579 145.739 271.625 145.739C273.159 145.739 274.366 146.065 275.247 146.719C276.133 147.372 276.682 148.256 276.892 149.369Z" fill="#FAFAFA"/>
<path d="M30.594 183.242V184.278H26.352V187.568H29.796V188.604H26.352V193H25.078V183.242H30.594ZM39.1327 188.87C39.1327 189.113 39.1187 189.369 39.0907 189.64H32.9587C33.0054 190.396 33.262 190.989 33.7287 191.418C34.2047 191.838 34.7787 192.048 35.4507 192.048C36.0014 192.048 36.4587 191.922 36.8227 191.67C37.196 191.409 37.4574 191.063 37.6067 190.634H38.9787C38.7734 191.371 38.3627 191.973 37.7467 192.44C37.1307 192.897 36.3654 193.126 35.4507 193.126C34.7227 193.126 34.0694 192.963 33.4907 192.636C32.9214 192.309 32.4734 191.847 32.1467 191.25C31.82 190.643 31.6567 189.943 31.6567 189.15C31.6567 188.357 31.8154 187.661 32.1327 187.064C32.45 186.467 32.8934 186.009 33.4627 185.692C34.0414 185.365 34.704 185.202 35.4507 185.202C36.1787 185.202 36.8227 185.361 37.3827 185.678C37.9427 185.995 38.372 186.434 38.6707 186.994C38.9787 187.545 39.1327 188.17 39.1327 188.87ZM37.8167 188.604C37.8167 188.119 37.7094 187.703 37.4947 187.358C37.28 187.003 36.986 186.737 36.6127 186.56C36.2487 186.373 35.8427 186.28 35.3947 186.28C34.7507 186.28 34.2 186.485 33.7427 186.896C33.2947 187.307 33.038 187.876 32.9727 188.604H37.8167ZM40.3383 189.136C40.3383 188.352 40.497 187.666 40.8143 187.078C41.1317 186.481 41.5657 186.019 42.1163 185.692C42.6763 185.365 43.297 185.202 43.9783 185.202C44.6503 185.202 45.2337 185.347 45.7283 185.636C46.223 185.925 46.5917 186.289 46.8343 186.728V185.328H48.1223V193H46.8343V191.572C46.5823 192.02 46.2043 192.393 45.7003 192.692C45.2057 192.981 44.627 193.126 43.9643 193.126C43.283 193.126 42.667 192.958 42.1163 192.622C41.5657 192.286 41.1317 191.815 40.8143 191.208C40.497 190.601 40.3383 189.911 40.3383 189.136ZM46.8343 189.15C46.8343 188.571 46.7177 188.067 46.4843 187.638C46.251 187.209 45.9337 186.882 45.5323 186.658C45.1403 186.425 44.7063 186.308 44.2303 186.308C43.7543 186.308 43.3203 186.42 42.9283 186.644C42.5363 186.868 42.2237 187.195 41.9903 187.624C41.757 188.053 41.6403 188.557 41.6403 189.136C41.6403 189.724 41.757 190.237 41.9903 190.676C42.2237 191.105 42.5363 191.437 42.9283 191.67C43.3203 191.894 43.7543 192.006 44.2303 192.006C44.7063 192.006 45.1403 191.894 45.5323 191.67C45.9337 191.437 46.251 191.105 46.4843 190.676C46.7177 190.237 46.8343 189.729 46.8343 189.15ZM51.8293 186.378V190.9C51.8293 191.273 51.9086 191.539 52.0673 191.698C52.2259 191.847 52.5013 191.922 52.8933 191.922H53.8313V193H52.6833C51.9739 193 51.4419 192.837 51.0873 192.51C50.7326 192.183 50.5553 191.647 50.5553 190.9V186.378H49.5613V185.328H50.5553V183.396H51.8293V185.328H53.8313V186.378H51.8293ZM62.1789 185.328V193H60.9049V191.866C60.6622 192.258 60.3215 192.566 59.8829 192.79C59.4535 193.005 58.9775 193.112 58.4549 193.112C57.8575 193.112 57.3209 192.991 56.8449 192.748C56.3689 192.496 55.9909 192.123 55.7109 191.628C55.4402 191.133 55.3049 190.531 55.3049 189.822V185.328H56.5649V189.654C56.5649 190.41 56.7562 190.993 57.1389 191.404C57.5215 191.805 58.0442 192.006 58.7069 192.006C59.3882 192.006 59.9249 191.796 60.3169 191.376C60.7089 190.956 60.9049 190.345 60.9049 189.542V185.328H62.1789ZM65.604 186.574C65.828 186.135 66.1453 185.795 66.556 185.552C66.976 185.309 67.4846 185.188 68.082 185.188V186.504H67.746C66.318 186.504 65.604 187.279 65.604 188.828V193H64.33V185.328H65.604V186.574ZM76.5526 188.87C76.5526 189.113 76.5386 189.369 76.5106 189.64H70.3786C70.4253 190.396 70.6819 190.989 71.1486 191.418C71.6246 191.838 72.1986 192.048 72.8706 192.048C73.4213 192.048 73.8786 191.922 74.2426 191.67C74.6159 191.409 74.8773 191.063 75.0266 190.634H76.3986C76.1933 191.371 75.7826 191.973 75.1666 192.44C74.5506 192.897 73.7853 193.126 72.8706 193.126C72.1426 193.126 71.4893 192.963 70.9106 192.636C70.3413 192.309 69.8933 191.847 69.5666 191.25C69.2399 190.643 69.0766 189.943 69.0766 189.15C69.0766 188.357 69.2353 187.661 69.5526 187.064C69.8699 186.467 70.3133 186.009 70.8826 185.692C71.4613 185.365 72.1239 185.202 72.8706 185.202C73.5986 185.202 74.2426 185.361 74.8026 185.678C75.3626 185.995 75.7919 186.434 76.0906 186.994C76.3986 187.545 76.5526 188.17 76.5526 188.87ZM75.2366 188.604C75.2366 188.119 75.1293 187.703 74.9146 187.358C74.6999 187.003 74.4059 186.737 74.0326 186.56C73.6686 186.373 73.2626 186.28 72.8146 186.28C72.1706 186.28 71.6199 186.485 71.1626 186.896C70.7146 187.307 70.4579 187.876 70.3926 188.604H75.2366ZM77.7583 189.136C77.7583 188.352 77.9169 187.666 78.2343 187.078C78.5516 186.481 78.9856 186.019 79.5363 185.692C80.0963 185.365 80.7216 185.202 81.4123 185.202C82.0096 185.202 82.5649 185.342 83.0783 185.622C83.5916 185.893 83.9836 186.252 84.2543 186.7V182.64H85.5423V193H84.2543V191.558C84.0023 192.015 83.6289 192.393 83.1343 192.692C82.6396 192.981 82.0609 193.126 81.3983 193.126C80.7169 193.126 80.0963 192.958 79.5363 192.622C78.9856 192.286 78.5516 191.815 78.2343 191.208C77.9169 190.601 77.7583 189.911 77.7583 189.136ZM84.2543 189.15C84.2543 188.571 84.1376 188.067 83.9043 187.638C83.6709 187.209 83.3536 186.882 82.9523 186.658C82.5603 186.425 82.1263 186.308 81.6503 186.308C81.1743 186.308 80.7403 186.42 80.3483 186.644C79.9563 186.868 79.6436 187.195 79.4103 187.624C79.1769 188.053 79.0603 188.557 79.0603 189.136C79.0603 189.724 79.1769 190.237 79.4103 190.676C79.6436 191.105 79.9563 191.437 80.3483 191.67C80.7403 191.894 81.1743 192.006 81.6503 192.006C82.1263 192.006 82.5603 191.894 82.9523 191.67C83.3536 191.437 83.6709 191.105 83.9043 190.676C84.1376 190.237 84.2543 189.729 84.2543 189.15ZM101.648 185.328L99.2536 193H97.9376L96.0896 186.91L94.2416 193H92.9256L90.5176 185.328H91.8196L93.5836 191.768L95.4876 185.328H96.7896L98.6516 191.782L100.388 185.328H101.648ZM106.258 193.126C105.539 193.126 104.886 192.963 104.298 192.636C103.719 192.309 103.262 191.847 102.926 191.25C102.599 190.643 102.436 189.943 102.436 189.15C102.436 188.366 102.604 187.675 102.94 187.078C103.285 186.471 103.752 186.009 104.34 185.692C104.928 185.365 105.586 185.202 106.314 185.202C107.042 185.202 107.7 185.365 108.288 185.692C108.876 186.009 109.338 186.467 109.674 187.064C110.019 187.661 110.192 188.357 110.192 189.15C110.192 189.943 110.015 190.643 109.66 191.25C109.315 191.847 108.843 192.309 108.246 192.636C107.649 192.963 106.986 193.126 106.258 193.126ZM106.258 192.006C106.715 192.006 107.145 191.899 107.546 191.684C107.947 191.469 108.269 191.147 108.512 190.718C108.764 190.289 108.89 189.766 108.89 189.15C108.89 188.534 108.769 188.011 108.526 187.582C108.283 187.153 107.966 186.835 107.574 186.63C107.182 186.415 106.757 186.308 106.3 186.308C105.833 186.308 105.404 186.415 105.012 186.63C104.629 186.835 104.321 187.153 104.088 187.582C103.855 188.011 103.738 188.534 103.738 189.15C103.738 189.775 103.85 190.303 104.074 190.732C104.307 191.161 104.615 191.483 104.998 191.698C105.381 191.903 105.801 192.006 106.258 192.006ZM121.093 185.188C121.69 185.188 122.222 185.314 122.689 185.566C123.156 185.809 123.524 186.177 123.795 186.672C124.066 187.167 124.201 187.769 124.201 188.478V193H122.941V188.66C122.941 187.895 122.75 187.311 122.367 186.91C121.994 186.499 121.485 186.294 120.841 186.294C120.178 186.294 119.651 186.509 119.259 186.938C118.867 187.358 118.671 187.969 118.671 188.772V193H117.411V188.66C117.411 187.895 117.22 187.311 116.837 186.91C116.464 186.499 115.955 186.294 115.311 186.294C114.648 186.294 114.121 186.509 113.729 186.938C113.337 187.358 113.141 187.969 113.141 188.772V193H111.867V185.328H113.141V186.434C113.393 186.033 113.729 185.725 114.149 185.51C114.578 185.295 115.05 185.188 115.563 185.188C116.207 185.188 116.776 185.333 117.271 185.622C117.766 185.911 118.134 186.336 118.377 186.896C118.592 186.355 118.946 185.935 119.441 185.636C119.936 185.337 120.486 185.188 121.093 185.188ZM125.815 189.136C125.815 188.352 125.974 187.666 126.291 187.078C126.608 186.481 127.042 186.019 127.593 185.692C128.153 185.365 128.774 185.202 129.455 185.202C130.127 185.202 130.71 185.347 131.205 185.636C131.7 185.925 132.068 186.289 132.311 186.728V185.328H133.599V193H132.311V191.572C132.059 192.02 131.681 192.393 131.177 192.692C130.682 192.981 130.104 193.126 129.441 193.126C128.76 193.126 128.144 192.958 127.593 192.622C127.042 192.286 126.608 191.815 126.291 191.208C125.974 190.601 125.815 189.911 125.815 189.136ZM132.311 189.15C132.311 188.571 132.194 188.067 131.961 187.638C131.728 187.209 131.41 186.882 131.009 186.658C130.617 186.425 130.183 186.308 129.707 186.308C129.231 186.308 128.797 186.42 128.405 186.644C128.013 186.868 127.7 187.195 127.467 187.624C127.234 188.053 127.117 188.557 127.117 189.136C127.117 189.724 127.234 190.237 127.467 190.676C127.7 191.105 128.013 191.437 128.405 191.67C128.797 191.894 129.231 192.006 129.707 192.006C130.183 192.006 130.617 191.894 131.009 191.67C131.41 191.437 131.728 191.105 131.961 190.676C132.194 190.237 132.311 189.729 132.311 189.15ZM139.49 185.188C140.423 185.188 141.179 185.473 141.758 186.042C142.336 186.602 142.626 187.414 142.626 188.478V193H141.366V188.66C141.366 187.895 141.174 187.311 140.792 186.91C140.409 186.499 139.886 186.294 139.224 186.294C138.552 186.294 138.015 186.504 137.614 186.924C137.222 187.344 137.026 187.955 137.026 188.758V193H135.752V185.328H137.026V186.42C137.278 186.028 137.618 185.725 138.048 185.51C138.486 185.295 138.967 185.188 139.49 185.188ZM147.963 189.15C147.963 188.357 148.122 187.666 148.439 187.078C148.757 186.481 149.195 186.019 149.755 185.692C150.325 185.365 150.973 185.202 151.701 185.202C152.644 185.202 153.419 185.431 154.025 185.888C154.641 186.345 155.047 186.98 155.243 187.792H153.871C153.741 187.325 153.484 186.957 153.101 186.686C152.728 186.415 152.261 186.28 151.701 186.28C150.973 186.28 150.385 186.532 149.937 187.036C149.489 187.531 149.265 188.235 149.265 189.15C149.265 190.074 149.489 190.788 149.937 191.292C150.385 191.796 150.973 192.048 151.701 192.048C152.261 192.048 152.728 191.917 153.101 191.656C153.475 191.395 153.731 191.021 153.871 190.536H155.243C155.038 191.32 154.627 191.95 154.011 192.426C153.395 192.893 152.625 193.126 151.701 193.126C150.973 193.126 150.325 192.963 149.755 192.636C149.195 192.309 148.757 191.847 148.439 191.25C148.122 190.653 147.963 189.953 147.963 189.15ZM160.289 193.126C159.571 193.126 158.917 192.963 158.329 192.636C157.751 192.309 157.293 191.847 156.957 191.25C156.631 190.643 156.467 189.943 156.467 189.15C156.467 188.366 156.635 187.675 156.971 187.078C157.317 186.471 157.783 186.009 158.371 185.692C158.959 185.365 159.617 185.202 160.345 185.202C161.073 185.202 161.731 185.365 162.319 185.692C162.907 186.009 163.369 186.467 163.705 187.064C164.051 187.661 164.223 188.357 164.223 189.15C164.223 189.943 164.046 190.643 163.691 191.25C163.346 191.847 162.875 192.309 162.277 192.636C161.68 192.963 161.017 193.126 160.289 193.126ZM160.289 192.006C160.747 192.006 161.176 191.899 161.577 191.684C161.979 191.469 162.301 191.147 162.543 190.718C162.795 190.289 162.921 189.766 162.921 189.15C162.921 188.534 162.8 188.011 162.557 187.582C162.315 187.153 161.997 186.835 161.605 186.63C161.213 186.415 160.789 186.308 160.331 186.308C159.865 186.308 159.435 186.415 159.043 186.63C158.661 186.835 158.353 187.153 158.119 187.582C157.886 188.011 157.769 188.534 157.769 189.15C157.769 189.775 157.881 190.303 158.105 190.732C158.339 191.161 158.647 191.483 159.029 191.698C159.412 191.903 159.832 192.006 160.289 192.006ZM167.172 182.64V193H165.898V182.64H167.172ZM170.618 182.64V193H169.344V182.64H170.618ZM179.789 188.87C179.789 189.113 179.775 189.369 179.747 189.64H173.615C173.662 190.396 173.918 190.989 174.385 191.418C174.861 191.838 175.435 192.048 176.107 192.048C176.658 192.048 177.115 191.922 177.479 191.67C177.852 191.409 178.114 191.063 178.263 190.634H179.635C179.43 191.371 179.019 191.973 178.403 192.44C177.787 192.897 177.022 193.126 176.107 193.126C175.379 193.126 174.726 192.963 174.147 192.636C173.578 192.309 173.13 191.847 172.803 191.25C172.476 190.643 172.313 189.943 172.313 189.15C172.313 188.357 172.472 187.661 172.789 187.064C173.106 186.467 173.55 186.009 174.119 185.692C174.698 185.365 175.36 185.202 176.107 185.202C176.835 185.202 177.479 185.361 178.039 185.678C178.599 185.995 179.028 186.434 179.327 186.994C179.635 187.545 179.789 188.17 179.789 188.87ZM178.473 188.604C178.473 188.119 178.366 187.703 178.151 187.358C177.936 187.003 177.642 186.737 177.269 186.56C176.905 186.373 176.499 186.28 176.051 186.28C175.407 186.28 174.856 186.485 174.399 186.896C173.951 187.307 173.694 187.876 173.629 188.604H178.473ZM180.995 189.15C180.995 188.357 181.153 187.666 181.471 187.078C181.788 186.481 182.227 186.019 182.787 185.692C183.356 185.365 184.005 185.202 184.733 185.202C185.675 185.202 186.45 185.431 187.057 185.888C187.673 186.345 188.079 186.98 188.275 187.792H186.903C186.772 187.325 186.515 186.957 186.133 186.686C185.759 186.415 185.293 186.28 184.733 186.28C184.005 186.28 183.417 186.532 182.969 187.036C182.521 187.531 182.297 188.235 182.297 189.15C182.297 190.074 182.521 190.788 182.969 191.292C183.417 191.796 184.005 192.048 184.733 192.048C185.293 192.048 185.759 191.917 186.133 191.656C186.506 191.395 186.763 191.021 186.903 190.536H188.275C188.069 191.32 187.659 191.95 187.043 192.426C186.427 192.893 185.657 193.126 184.733 193.126C184.005 193.126 183.356 192.963 182.787 192.636C182.227 192.309 181.788 191.847 181.471 191.25C181.153 190.653 180.995 189.953 180.995 189.15ZM191.528 186.378V190.9C191.528 191.273 191.608 191.539 191.766 191.698C191.925 191.847 192.2 191.922 192.592 191.922H193.53V193H192.382C191.673 193 191.141 192.837 190.786 192.51C190.432 192.183 190.254 191.647 190.254 190.9V186.378H189.26V185.328H190.254V183.396H191.528V185.328H193.53V186.378H191.528ZM195.732 184.082C195.489 184.082 195.284 183.998 195.116 183.83C194.948 183.662 194.864 183.457 194.864 183.214C194.864 182.971 194.948 182.766 195.116 182.598C195.284 182.43 195.489 182.346 195.732 182.346C195.965 182.346 196.161 182.43 196.32 182.598C196.488 182.766 196.572 182.971 196.572 183.214C196.572 183.457 196.488 183.662 196.32 183.83C196.161 183.998 195.965 184.082 195.732 184.082ZM196.348 185.328V193H195.074V185.328H196.348ZM201.865 193.126C201.147 193.126 200.493 192.963 199.905 192.636C199.327 192.309 198.869 191.847 198.533 191.25C198.207 190.643 198.043 189.943 198.043 189.15C198.043 188.366 198.211 187.675 198.547 187.078C198.893 186.471 199.359 186.009 199.947 185.692C200.535 185.365 201.193 185.202 201.921 185.202C202.649 185.202 203.307 185.365 203.895 185.692C204.483 186.009 204.945 186.467 205.281 187.064C205.627 187.661 205.799 188.357 205.799 189.15C205.799 189.943 205.622 190.643 205.267 191.25C204.922 191.847 204.451 192.309 203.853 192.636C203.256 192.963 202.593 193.126 201.865 193.126ZM201.865 192.006C202.323 192.006 202.752 191.899 203.153 191.684C203.555 191.469 203.877 191.147 204.119 190.718C204.371 190.289 204.497 189.766 204.497 189.15C204.497 188.534 204.376 188.011 204.133 187.582C203.891 187.153 203.573 186.835 203.181 186.63C202.789 186.415 202.365 186.308 201.907 186.308C201.441 186.308 201.011 186.415 200.619 186.63C200.237 186.835 199.929 187.153 199.695 187.582C199.462 188.011 199.345 188.534 199.345 189.15C199.345 189.775 199.457 190.303 199.681 190.732C199.915 191.161 200.223 191.483 200.605 191.698C200.988 191.903 201.408 192.006 201.865 192.006ZM211.212 185.188C212.146 185.188 212.902 185.473 213.48 186.042C214.059 186.602 214.348 187.414 214.348 188.478V193H213.088V188.66C213.088 187.895 212.897 187.311 212.514 186.91C212.132 186.499 211.609 186.294 210.946 186.294C210.274 186.294 209.738 186.504 209.336 186.924C208.944 187.344 208.748 187.955 208.748 188.758V193H207.474V185.328H208.748V186.42C209 186.028 209.341 185.725 209.77 185.51C210.209 185.295 210.69 185.188 211.212 185.188ZM219.146 193.126C218.558 193.126 218.03 193.028 217.564 192.832C217.097 192.627 216.728 192.347 216.458 191.992C216.187 191.628 216.038 191.213 216.01 190.746H217.326C217.363 191.129 217.54 191.441 217.858 191.684C218.184 191.927 218.609 192.048 219.132 192.048C219.617 192.048 220 191.941 220.28 191.726C220.56 191.511 220.7 191.241 220.7 190.914C220.7 190.578 220.55 190.331 220.252 190.172C219.953 190.004 219.491 189.841 218.866 189.682C218.296 189.533 217.83 189.383 217.466 189.234C217.111 189.075 216.803 188.847 216.542 188.548C216.29 188.24 216.164 187.839 216.164 187.344C216.164 186.952 216.28 186.593 216.514 186.266C216.747 185.939 217.078 185.683 217.508 185.496C217.937 185.3 218.427 185.202 218.978 185.202C219.827 185.202 220.513 185.417 221.036 185.846C221.558 186.275 221.838 186.863 221.876 187.61H220.602C220.574 187.209 220.41 186.887 220.112 186.644C219.822 186.401 219.43 186.28 218.936 186.28C218.478 186.28 218.114 186.378 217.844 186.574C217.573 186.77 217.438 187.027 217.438 187.344C217.438 187.596 217.517 187.806 217.676 187.974C217.844 188.133 218.049 188.263 218.292 188.366C218.544 188.459 218.889 188.567 219.328 188.688C219.878 188.837 220.326 188.987 220.672 189.136C221.017 189.276 221.311 189.491 221.554 189.78C221.806 190.069 221.936 190.447 221.946 190.914C221.946 191.334 221.829 191.712 221.596 192.048C221.362 192.384 221.031 192.65 220.602 192.846C220.182 193.033 219.696 193.126 219.146 193.126ZM229.03 186.378V190.9C229.03 191.273 229.11 191.539 229.268 191.698C229.427 191.847 229.702 191.922 230.094 191.922H231.032V193H229.884C229.175 193 228.643 192.837 228.288 192.51C227.934 192.183 227.756 191.647 227.756 190.9V186.378H226.762V185.328H227.756V183.396H229.03V185.328H231.032V186.378H229.03ZM236.384 185.188C236.963 185.188 237.485 185.314 237.952 185.566C238.419 185.809 238.783 186.177 239.044 186.672C239.315 187.167 239.45 187.769 239.45 188.478V193H238.19V188.66C238.19 187.895 237.999 187.311 237.616 186.91C237.233 186.499 236.711 186.294 236.048 186.294C235.376 186.294 234.839 186.504 234.438 186.924C234.046 187.344 233.85 187.955 233.85 188.758V193H232.576V182.64H233.85V186.42C234.102 186.028 234.447 185.725 234.886 185.51C235.334 185.295 235.833 185.188 236.384 185.188ZM241.055 189.136C241.055 188.352 241.214 187.666 241.531 187.078C241.848 186.481 242.282 186.019 242.833 185.692C243.393 185.365 244.014 185.202 244.695 185.202C245.367 185.202 245.95 185.347 246.445 185.636C246.94 185.925 247.308 186.289 247.551 186.728V185.328H248.839V193H247.551V191.572C247.299 192.02 246.921 192.393 246.417 192.692C245.922 192.981 245.344 193.126 244.681 193.126C244 193.126 243.384 192.958 242.833 192.622C242.282 192.286 241.848 191.815 241.531 191.208C241.214 190.601 241.055 189.911 241.055 189.136ZM247.551 189.15C247.551 188.571 247.434 188.067 247.201 187.638C246.968 187.209 246.65 186.882 246.249 186.658C245.857 186.425 245.423 186.308 244.947 186.308C244.471 186.308 244.037 186.42 243.645 186.644C243.253 186.868 242.94 187.195 242.707 187.624C242.474 188.053 242.357 188.557 242.357 189.136C242.357 189.724 242.474 190.237 242.707 190.676C242.94 191.105 243.253 191.437 243.645 191.67C244.037 191.894 244.471 192.006 244.947 192.006C245.423 192.006 245.857 191.894 246.249 191.67C246.65 191.437 246.968 191.105 247.201 190.676C247.434 190.237 247.551 189.729 247.551 189.15ZM252.546 186.378V190.9C252.546 191.273 252.625 191.539 252.784 191.698C252.943 191.847 253.218 191.922 253.61 191.922H254.548V193H253.4C252.691 193 252.159 192.837 251.804 192.51C251.449 192.183 251.272 191.647 251.272 190.9V186.378H250.278V185.328H251.272V183.396H252.546V185.328H254.548V186.378H252.546ZM28.242 206.202C28.9047 206.202 29.4833 206.347 29.978 206.636C30.482 206.925 30.8553 207.289 31.098 207.728V206.328H32.386V214.168C32.386 214.868 32.2367 215.489 31.938 216.03C31.6393 216.581 31.21 217.01 30.65 217.318C30.0993 217.626 29.4553 217.78 28.718 217.78C27.71 217.78 26.87 217.542 26.198 217.066C25.526 216.59 25.1293 215.941 25.008 215.12H26.268C26.408 215.587 26.6973 215.96 27.136 216.24C27.5747 216.529 28.102 216.674 28.718 216.674C29.418 216.674 29.9873 216.455 30.426 216.016C30.874 215.577 31.098 214.961 31.098 214.168V212.558C30.846 213.006 30.4727 213.379 29.978 213.678C29.4833 213.977 28.9047 214.126 28.242 214.126C27.5607 214.126 26.94 213.958 26.38 213.622C25.8293 213.286 25.3953 212.815 25.078 212.208C24.7607 211.601 24.602 210.911 24.602 210.136C24.602 209.352 24.7607 208.666 25.078 208.078C25.3953 207.481 25.8293 207.019 26.38 206.692C26.94 206.365 27.5607 206.202 28.242 206.202ZM31.098 210.15C31.098 209.571 30.9813 209.067 30.748 208.638C30.5147 208.209 30.1973 207.882 29.796 207.658C29.404 207.425 28.97 207.308 28.494 207.308C28.018 207.308 27.584 207.42 27.192 207.644C26.8 207.868 26.4873 208.195 26.254 208.624C26.0207 209.053 25.904 209.557 25.904 210.136C25.904 210.724 26.0207 211.237 26.254 211.676C26.4873 212.105 26.8 212.437 27.192 212.67C27.584 212.894 28.018 213.006 28.494 213.006C28.97 213.006 29.404 212.894 29.796 212.67C30.1973 212.437 30.5147 212.105 30.748 211.676C30.9813 211.237 31.098 210.729 31.098 210.15ZM35.1969 205.082C34.9543 205.082 34.7489 204.998 34.5809 204.83C34.4129 204.662 34.3289 204.457 34.3289 204.214C34.3289 203.971 34.4129 203.766 34.5809 203.598C34.7489 203.43 34.9543 203.346 35.1969 203.346C35.4303 203.346 35.6263 203.43 35.7849 203.598C35.9529 203.766 36.0369 203.971 36.0369 204.214C36.0369 204.457 35.9529 204.662 35.7849 204.83C35.6263 204.998 35.4303 205.082 35.1969 205.082ZM35.8129 206.328V214H34.5389V206.328H35.8129ZM40.8403 212.824L43.2203 206.328H44.5783L41.5683 214H40.0843L37.0743 206.328H38.4463L40.8403 212.824ZM52.8319 209.87C52.8319 210.113 52.8179 210.369 52.7899 210.64H46.6579C46.7046 211.396 46.9612 211.989 47.4279 212.418C47.9039 212.838 48.4779 213.048 49.1499 213.048C49.7006 213.048 50.1579 212.922 50.5219 212.67C50.8952 212.409 51.1566 212.063 51.3059 211.634H52.6779C52.4726 212.371 52.0619 212.973 51.4459 213.44C50.8299 213.897 50.0646 214.126 49.1499 214.126C48.4219 214.126 47.7686 213.963 47.1899 213.636C46.6206 213.309 46.1726 212.847 45.8459 212.25C45.5192 211.643 45.3559 210.943 45.3559 210.15C45.3559 209.357 45.5146 208.661 45.8319 208.064C46.1492 207.467 46.5926 207.009 47.1619 206.692C47.7406 206.365 48.4032 206.202 49.1499 206.202C49.8779 206.202 50.5219 206.361 51.0819 206.678C51.6419 206.995 52.0712 207.434 52.3699 207.994C52.6779 208.545 52.8319 209.17 52.8319 209.87ZM51.5159 209.604C51.5159 209.119 51.4086 208.703 51.1939 208.358C50.9792 208.003 50.6852 207.737 50.3119 207.56C49.9479 207.373 49.5419 207.28 49.0939 207.28C48.4499 207.28 47.8992 207.485 47.4419 207.896C46.9939 208.307 46.7372 208.876 46.6719 209.604H51.5159ZM64.854 206.328L60.234 217.612H58.918L60.43 213.916L57.336 206.328H58.75L61.158 212.544L63.538 206.328H64.854ZM69.4806 214.126C68.762 214.126 68.1086 213.963 67.5206 213.636C66.942 213.309 66.4846 212.847 66.1486 212.25C65.822 211.643 65.6586 210.943 65.6586 210.15C65.6586 209.366 65.8266 208.675 66.1626 208.078C66.508 207.471 66.9746 207.009 67.5626 206.692C68.1506 206.365 68.8086 206.202 69.5366 206.202C70.2646 206.202 70.9226 206.365 71.5106 206.692C72.0986 207.009 72.5606 207.467 72.8966 208.064C73.242 208.661 73.4146 209.357 73.4146 210.15C73.4146 210.943 73.2373 211.643 72.8826 212.25C72.5373 212.847 72.066 213.309 71.4686 213.636C70.8713 213.963 70.2086 214.126 69.4806 214.126ZM69.4806 213.006C69.938 213.006 70.3673 212.899 70.7686 212.684C71.17 212.469 71.492 212.147 71.7346 211.718C71.9866 211.289 72.1126 210.766 72.1126 210.15C72.1126 209.534 71.9913 209.011 71.7486 208.582C71.506 208.153 71.1886 207.835 70.7966 207.63C70.4046 207.415 69.98 207.308 69.5226 207.308C69.056 207.308 68.6266 207.415 68.2346 207.63C67.852 207.835 67.544 208.153 67.3106 208.582C67.0773 209.011 66.9606 209.534 66.9606 210.15C66.9606 210.775 67.0726 211.303 67.2966 211.732C67.53 212.161 67.838 212.483 68.2206 212.698C68.6033 212.903 69.0233 213.006 69.4806 213.006ZM81.8937 206.328V214H80.6197V212.866C80.3771 213.258 80.0364 213.566 79.5977 213.79C79.1684 214.005 78.6924 214.112 78.1697 214.112C77.5724 214.112 77.0357 213.991 76.5597 213.748C76.0837 213.496 75.7057 213.123 75.4257 212.628C75.1551 212.133 75.0197 211.531 75.0197 210.822V206.328H76.2797V210.654C76.2797 211.41 76.4711 211.993 76.8537 212.404C77.2364 212.805 77.7591 213.006 78.4217 213.006C79.1031 213.006 79.6397 212.796 80.0317 212.376C80.4237 211.956 80.6197 211.345 80.6197 210.542V206.328H81.8937ZM87.3012 210.136C87.3012 209.352 87.4599 208.666 87.7772 208.078C88.0946 207.481 88.5286 207.019 89.0792 206.692C89.6392 206.365 90.2599 206.202 90.9412 206.202C91.6132 206.202 92.1966 206.347 92.6912 206.636C93.1859 206.925 93.5546 207.289 93.7972 207.728V206.328H95.0852V214H93.7972V212.572C93.5452 213.02 93.1672 213.393 92.6632 213.692C92.1686 213.981 91.5899 214.126 90.9272 214.126C90.2459 214.126 89.6299 213.958 89.0792 213.622C88.5286 213.286 88.0946 212.815 87.7772 212.208C87.4599 211.601 87.3012 210.911 87.3012 210.136ZM93.7972 210.15C93.7972 209.571 93.6806 209.067 93.4472 208.638C93.2139 208.209 92.8966 207.882 92.4952 207.658C92.1032 207.425 91.6692 207.308 91.1932 207.308C90.7172 207.308 90.2832 207.42 89.8912 207.644C89.4992 207.868 89.1866 208.195 88.9532 208.624C88.7199 209.053 88.6032 209.557 88.6032 210.136C88.6032 210.724 88.7199 211.237 88.9532 211.676C89.1866 212.105 89.4992 212.437 89.8912 212.67C90.2832 212.894 90.7172 213.006 91.1932 213.006C91.6692 213.006 92.1032 212.894 92.4952 212.67C92.8966 212.437 93.2139 212.105 93.4472 211.676C93.6806 211.237 93.7972 210.729 93.7972 210.15ZM100.976 206.188C101.909 206.188 102.665 206.473 103.244 207.042C103.823 207.602 104.112 208.414 104.112 209.478V214H102.852V209.66C102.852 208.895 102.661 208.311 102.278 207.91C101.895 207.499 101.373 207.294 100.71 207.294C100.038 207.294 99.5015 207.504 99.1002 207.924C98.7082 208.344 98.5122 208.955 98.5122 209.758V214H97.2382V206.328H98.5122V207.42C98.7642 207.028 99.1048 206.725 99.5342 206.51C99.9728 206.295 100.453 206.188 100.976 206.188ZM109.539 214.126C108.821 214.126 108.167 213.963 107.579 213.636C107.001 213.309 106.543 212.847 106.207 212.25C105.881 211.643 105.717 210.943 105.717 210.15C105.717 209.366 105.885 208.675 106.221 208.078C106.567 207.471 107.033 207.009 107.621 206.692C108.209 206.365 108.867 206.202 109.595 206.202C110.323 206.202 110.981 206.365 111.569 206.692C112.157 207.009 112.619 207.467 112.955 208.064C113.301 208.661 113.473 209.357 113.473 210.15C113.473 210.943 113.296 211.643 112.941 212.25C112.596 212.847 112.125 213.309 111.527 213.636C110.93 213.963 110.267 214.126 109.539 214.126ZM109.539 213.006C109.997 213.006 110.426 212.899 110.827 212.684C111.229 212.469 111.551 212.147 111.793 211.718C112.045 211.289 112.171 210.766 112.171 210.15C112.171 209.534 112.05 209.011 111.807 208.582C111.565 208.153 111.247 207.835 110.855 207.63C110.463 207.415 110.039 207.308 109.581 207.308C109.115 207.308 108.685 207.415 108.293 207.63C107.911 207.835 107.603 208.153 107.369 208.582C107.136 209.011 107.019 209.534 107.019 210.15C107.019 210.775 107.131 211.303 107.355 211.732C107.589 212.161 107.897 212.483 108.279 212.698C108.662 212.903 109.082 213.006 109.539 213.006ZM116.702 207.378V211.9C116.702 212.273 116.782 212.539 116.94 212.698C117.099 212.847 117.374 212.922 117.766 212.922H118.704V214H117.556C116.847 214 116.315 213.837 115.96 213.51C115.606 213.183 115.428 212.647 115.428 211.9V207.378H114.434V206.328H115.428V204.396H116.702V206.328H118.704V207.378H116.702ZM124.056 206.188C124.635 206.188 125.157 206.314 125.624 206.566C126.091 206.809 126.455 207.177 126.716 207.672C126.987 208.167 127.122 208.769 127.122 209.478V214H125.862V209.66C125.862 208.895 125.671 208.311 125.288 207.91C124.905 207.499 124.383 207.294 123.72 207.294C123.048 207.294 122.511 207.504 122.11 207.924C121.718 208.344 121.522 208.955 121.522 209.758V214H120.248V203.64H121.522V207.42C121.774 207.028 122.119 206.725 122.558 206.51C123.006 206.295 123.505 206.188 124.056 206.188ZM136.203 209.87C136.203 210.113 136.189 210.369 136.161 210.64H130.029C130.076 211.396 130.332 211.989 130.799 212.418C131.275 212.838 131.849 213.048 132.521 213.048C133.072 213.048 133.529 212.922 133.893 212.67C134.266 212.409 134.528 212.063 134.677 211.634H136.049C135.844 212.371 135.433 212.973 134.817 213.44C134.201 213.897 133.436 214.126 132.521 214.126C131.793 214.126 131.14 213.963 130.561 213.636C129.992 213.309 129.544 212.847 129.217 212.25C128.89 211.643 128.727 210.943 128.727 210.15C128.727 209.357 128.886 208.661 129.203 208.064C129.52 207.467 129.964 207.009 130.533 206.692C131.112 206.365 131.774 206.202 132.521 206.202C133.249 206.202 133.893 206.361 134.453 206.678C135.013 206.995 135.442 207.434 135.741 207.994C136.049 208.545 136.203 209.17 136.203 209.87ZM134.887 209.604C134.887 209.119 134.78 208.703 134.565 208.358C134.35 208.003 134.056 207.737 133.683 207.56C133.319 207.373 132.913 207.28 132.465 207.28C131.821 207.28 131.27 207.485 130.813 207.896C130.365 208.307 130.108 208.876 130.043 209.604H134.887ZM139.159 207.574C139.383 207.135 139.7 206.795 140.111 206.552C140.531 206.309 141.039 206.188 141.637 206.188V207.504H141.301C139.873 207.504 139.159 208.279 139.159 209.828V214H137.885V206.328H139.159V207.574ZM149.696 212.824L152.076 206.328H153.434L150.424 214H148.94L145.93 206.328H147.302L149.696 212.824ZM155.345 205.082C155.103 205.082 154.897 204.998 154.729 204.83C154.561 204.662 154.477 204.457 154.477 204.214C154.477 203.971 154.561 203.766 154.729 203.598C154.897 203.43 155.103 203.346 155.345 203.346C155.579 203.346 155.775 203.43 155.933 203.598C156.101 203.766 156.185 203.971 156.185 204.214C156.185 204.457 156.101 204.662 155.933 204.83C155.775 204.998 155.579 205.082 155.345 205.082ZM155.961 206.328V214H154.687V206.328H155.961ZM159.407 207.756C159.668 207.299 160.051 206.925 160.555 206.636C161.059 206.347 161.633 206.202 162.277 206.202C162.967 206.202 163.588 206.365 164.139 206.692C164.689 207.019 165.123 207.481 165.441 208.078C165.758 208.666 165.917 209.352 165.917 210.136C165.917 210.911 165.758 211.601 165.441 212.208C165.123 212.815 164.685 213.286 164.125 213.622C163.574 213.958 162.958 214.126 162.277 214.126C161.614 214.126 161.031 213.981 160.527 213.692C160.032 213.403 159.659 213.034 159.407 212.586V214H158.133V203.64H159.407V207.756ZM164.615 210.136C164.615 209.557 164.498 209.053 164.265 208.624C164.031 208.195 163.714 207.868 163.313 207.644C162.921 207.42 162.487 207.308 162.011 207.308C161.544 207.308 161.11 207.425 160.709 207.658C160.317 207.882 159.999 208.213 159.757 208.652C159.523 209.081 159.407 209.581 159.407 210.15C159.407 210.729 159.523 211.237 159.757 211.676C159.999 212.105 160.317 212.437 160.709 212.67C161.11 212.894 161.544 213.006 162.011 213.006C162.487 213.006 162.921 212.894 163.313 212.67C163.714 212.437 164.031 212.105 164.265 211.676C164.498 211.237 164.615 210.724 164.615 210.136ZM174.594 209.87C174.594 210.113 174.58 210.369 174.552 210.64H168.42C168.466 211.396 168.723 211.989 169.19 212.418C169.666 212.838 170.24 213.048 170.912 213.048C171.462 213.048 171.92 212.922 172.284 212.67C172.657 212.409 172.918 212.063 173.068 211.634H174.44C174.234 212.371 173.824 212.973 173.208 213.44C172.592 213.897 171.826 214.126 170.912 214.126C170.184 214.126 169.53 213.963 168.952 213.636C168.382 213.309 167.934 212.847 167.608 212.25C167.281 211.643 167.118 210.943 167.118 210.15C167.118 209.357 167.276 208.661 167.594 208.064C167.911 207.467 168.354 207.009 168.924 206.692C169.502 206.365 170.165 206.202 170.912 206.202C171.64 206.202 172.284 206.361 172.844 206.678C173.404 206.995 173.833 207.434 174.132 207.994C174.44 208.545 174.594 209.17 174.594 209.87ZM173.278 209.604C173.278 209.119 173.17 208.703 172.956 208.358C172.741 208.003 172.447 207.737 172.074 207.56C171.71 207.373 171.304 207.28 170.856 207.28C170.212 207.28 169.661 207.485 169.204 207.896C168.756 208.307 168.499 208.876 168.434 209.604H173.278ZM176.681 214.084C176.439 214.084 176.233 214 176.065 213.832C175.897 213.664 175.813 213.459 175.813 213.216C175.813 212.973 175.897 212.768 176.065 212.6C176.233 212.432 176.439 212.348 176.681 212.348C176.915 212.348 177.111 212.432 177.269 212.6C177.437 212.768 177.521 212.973 177.521 213.216C177.521 213.459 177.437 213.664 177.269 213.832C177.111 214 176.915 214.084 176.681 214.084Z" fill="#FAFAFA"/>
<path d="M28.864 254.112C28.1173 254.112 27.4453 253.984 26.848 253.728C26.2507 253.461 25.7813 253.088 25.44 252.608C25.0987 252.128 24.928 251.568 24.928 250.928H26.88C26.9227 251.408 27.1093 251.803 27.44 252.112C27.7813 252.421 28.256 252.576 28.864 252.576C29.4933 252.576 29.984 252.427 30.336 252.128C30.688 251.819 30.864 251.424 30.864 250.944C30.864 250.571 30.752 250.267 30.528 250.032C30.3147 249.797 30.0427 249.616 29.712 249.488C29.392 249.36 28.944 249.221 28.368 249.072C27.6427 248.88 27.0507 248.688 26.592 248.496C26.144 248.293 25.76 247.984 25.44 247.568C25.12 247.152 24.96 246.597 24.96 245.904C24.96 245.264 25.12 244.704 25.44 244.224C25.76 243.744 26.208 243.376 26.784 243.12C27.36 242.864 28.0267 242.736 28.784 242.736C29.8613 242.736 30.7413 243.008 31.424 243.552C32.1173 244.085 32.5013 244.821 32.576 245.76H30.56C30.528 245.355 30.336 245.008 29.984 244.72C29.632 244.432 29.168 244.288 28.592 244.288C28.0693 244.288 27.6427 244.421 27.312 244.688C26.9813 244.955 26.816 245.339 26.816 245.84C26.816 246.181 26.9173 246.464 27.12 246.688C27.3333 246.901 27.6 247.072 27.92 247.2C28.24 247.328 28.6773 247.467 29.232 247.616C29.968 247.819 30.5653 248.021 31.024 248.224C31.4933 248.427 31.888 248.741 32.208 249.168C32.5387 249.584 32.704 250.144 32.704 250.848C32.704 251.413 32.5493 251.947 32.24 252.448C31.9413 252.949 31.4987 253.355 30.912 253.664C30.336 253.963 29.6533 254.112 28.864 254.112ZM39.4163 245.04C40.0883 245.04 40.6856 245.184 41.2083 245.472C41.7416 245.76 42.1576 246.187 42.4563 246.752C42.7656 247.317 42.9203 248 42.9203 248.8V254H41.1123V249.072C41.1123 248.283 40.9149 247.68 40.5203 247.264C40.1256 246.837 39.5869 246.624 38.9043 246.624C38.2216 246.624 37.6776 246.837 37.2723 247.264C36.8776 247.68 36.6803 248.283 36.6803 249.072V254H34.8563V242.16H36.6803V246.208C36.9896 245.835 37.3789 245.547 37.8483 245.344C38.3283 245.141 38.8509 245.04 39.4163 245.04ZM49.0709 254.144C48.2389 254.144 47.4869 253.957 46.8149 253.584C46.1429 253.2 45.6149 252.667 45.2309 251.984C44.8469 251.291 44.6549 250.491 44.6549 249.584C44.6549 248.688 44.8522 247.893 45.2469 247.2C45.6415 246.507 46.1802 245.973 46.8629 245.6C47.5455 245.227 48.3082 245.04 49.1509 245.04C49.9935 245.04 50.7562 245.227 51.4389 245.6C52.1215 245.973 52.6602 246.507 53.0549 247.2C53.4495 247.893 53.6469 248.688 53.6469 249.584C53.6469 250.48 53.4442 251.275 53.0389 251.968C52.6335 252.661 52.0789 253.2 51.3749 253.584C50.6815 253.957 49.9135 254.144 49.0709 254.144ZM49.0709 252.56C49.5402 252.56 49.9775 252.448 50.3829 252.224C50.7989 252 51.1349 251.664 51.3909 251.216C51.6469 250.768 51.7749 250.224 51.7749 249.584C51.7749 248.944 51.6522 248.405 51.4069 247.968C51.1615 247.52 50.8362 247.184 50.4309 246.96C50.0255 246.736 49.5882 246.624 49.1189 246.624C48.6495 246.624 48.2122 246.736 47.8069 246.96C47.4122 247.184 47.0975 247.52 46.8629 247.968C46.6282 248.405 46.5109 248.944 46.5109 249.584C46.5109 250.533 46.7509 251.269 47.2309 251.792C47.7215 252.304 48.3349 252.56 49.0709 252.56ZM57.274 246.48C57.5833 246.075 58.0047 245.733 58.538 245.456C59.0713 245.179 59.674 245.04 60.346 245.04C61.114 245.04 61.8127 245.232 62.442 245.616C63.082 245.989 63.5833 246.517 63.946 247.2C64.3087 247.883 64.49 248.667 64.49 249.552C64.49 250.437 64.3087 251.232 63.946 251.936C63.5833 252.629 63.082 253.173 62.442 253.568C61.8127 253.952 61.114 254.144 60.346 254.144C59.674 254.144 59.0767 254.011 58.554 253.744C58.0313 253.467 57.6047 253.125 57.274 252.72V258.192H55.45V245.184H57.274V246.48ZM62.634 249.552C62.634 248.944 62.506 248.421 62.25 247.984C62.0047 247.536 61.674 247.2 61.258 246.976C60.8527 246.741 60.4153 246.624 59.946 246.624C59.4873 246.624 59.05 246.741 58.634 246.976C58.2287 247.211 57.898 247.552 57.642 248C57.3967 248.448 57.274 248.976 57.274 249.584C57.274 250.192 57.3967 250.725 57.642 251.184C57.898 251.632 58.2287 251.973 58.634 252.208C59.05 252.443 59.4873 252.56 59.946 252.56C60.4153 252.56 60.8527 252.443 61.258 252.208C61.674 251.963 62.0047 251.611 62.25 251.152C62.506 250.693 62.634 250.16 62.634 249.552ZM79.586 254H77.762L72.274 245.696V254H70.45V242.864H72.274L77.762 251.152V242.864H79.586V254ZM85.8053 254.144C84.9733 254.144 84.2213 253.957 83.5493 253.584C82.8773 253.2 82.3493 252.667 81.9653 251.984C81.5813 251.291 81.3893 250.491 81.3893 249.584C81.3893 248.688 81.5866 247.893 81.9813 247.2C82.3759 246.507 82.9146 245.973 83.5973 245.6C84.2799 245.227 85.0426 245.04 85.8853 245.04C86.7279 245.04 87.4906 245.227 88.1733 245.6C88.8559 245.973 89.3946 246.507 89.7893 247.2C90.1839 247.893 90.3813 248.688 90.3813 249.584C90.3813 250.48 90.1786 251.275 89.7733 251.968C89.3679 252.661 88.8133 253.2 88.1093 253.584C87.4159 253.957 86.6479 254.144 85.8053 254.144ZM85.8053 252.56C86.2746 252.56 86.7119 252.448 87.1173 252.224C87.5333 252 87.8693 251.664 88.1253 251.216C88.3813 250.768 88.5093 250.224 88.5093 249.584C88.5093 248.944 88.3866 248.405 88.1413 247.968C87.8959 247.52 87.5706 247.184 87.1653 246.96C86.7599 246.736 86.3226 246.624 85.8533 246.624C85.3839 246.624 84.9466 246.736 84.5413 246.96C84.1466 247.184 83.8319 247.52 83.5973 247.968C83.3626 248.405 83.2453 248.944 83.2453 249.584C83.2453 250.533 83.4853 251.269 83.9653 251.792C84.4559 252.304 85.0693 252.56 85.8053 252.56ZM104.024 245.184L101.288 254H99.3684L97.5924 247.488L95.8164 254H93.8964L91.1444 245.184H93.0004L94.8404 252.272L96.7124 245.184H98.6164L100.408 252.24L102.232 245.184H104.024Z" fill="white"/>
<g opacity="0.5">
<line x1="24" y1="259.5" x2="105" y2="259.5" stroke="white"/>
</g>
</g>
<defs>
<clipPath id="clip0_95_2550">
<rect width="570" height="284" rx="4" fill="white"/>
</clipPath>
</defs>
</svg>
