<svg width="270" height="230" viewBox="0 0 270 230" fill="none" xmlns="http://www.w3.org/2000/svg">
<rect x="0.5" y="0.5" width="269" height="229" rx="3.5" stroke="black" stroke-opacity="0.3"/>
<path opacity="0.3" d="M174.5 70C174.5 92.0914 156.591 110 134.5 110C112.409 110 94.5 92.0914 94.5 70C94.5 47.9086 112.409 30 134.5 30C156.591 30 174.5 47.9086 174.5 70ZM105.407 70C105.407 86.0675 118.432 99.0929 134.5 99.0929C150.568 99.0929 163.593 86.0675 163.593 70C163.593 53.9325 150.568 40.9071 134.5 40.9071C118.432 40.9071 105.407 53.9325 105.407 70Z" fill="#2F2E30"/>
<circle cx="134.5" cy="70" r="29" fill="black"/>
<path d="M134.928 68.1456V68.6456L135.428 68.6456C136.092 68.6457 136.739 68.8514 137.281 69.2346C137.823 69.6178 138.233 70.1595 138.454 70.7851C138.473 70.8381 138.481 70.8941 138.478 70.9502C138.475 71.0062 138.461 71.0611 138.437 71.1117C138.412 71.1624 138.378 71.2077 138.337 71.2452C138.295 71.2828 138.246 71.3117 138.193 71.3304C138.14 71.3491 138.084 71.3571 138.028 71.3542C137.972 71.3512 137.917 71.3372 137.867 71.313C137.764 71.2641 137.686 71.1766 137.648 71.0697L137.648 71.0695C137.486 70.6104 137.185 70.213 136.787 69.9319C136.39 69.6509 135.915 69.5 135.428 69.5002L134.928 69.5003V70.0002V73.7092V74.2092H135.428C136.279 74.2092 137.095 74.5473 137.697 75.1491C138.299 75.7509 138.637 76.5672 138.637 77.4183C138.637 78.2694 138.299 79.0856 137.697 79.6874C137.095 80.2892 136.279 80.6273 135.428 80.6273H134.928V81.1273V81.5546H134.073V81.1273V80.6273L133.573 80.6273C132.91 80.6273 132.262 80.4215 131.72 80.0383C131.178 79.6551 130.768 79.1134 130.547 78.4876L130.547 78.4875L130.542 78.4744C130.522 78.4211 130.512 78.3642 130.514 78.3071C130.516 78.25 130.529 78.1939 130.553 78.142C130.577 78.0901 130.611 78.0435 130.653 78.005L130.317 77.6367L130.653 78.005C130.695 77.9665 130.745 77.9369 130.799 77.9179C130.852 77.8988 130.91 77.8908 130.967 77.8942C131.024 77.8977 131.079 77.9125 131.131 77.9379C131.182 77.9632 131.227 77.9986 131.265 78.0419C131.302 78.0852 131.33 78.1355 131.348 78.1899L131.35 78.1969L131.352 78.2039C131.677 79.1186 132.548 79.7728 133.573 79.7728H134.073V79.2728V75.5637V75.0637H133.573C132.722 75.0637 131.906 74.7256 131.304 74.1238C130.702 73.522 130.364 72.7058 130.364 71.8547C130.364 71.0036 130.702 70.1874 131.304 69.5856C131.906 68.9837 132.722 68.6456 133.573 68.6456H134.073V68.1456V67.7184H134.928V68.1456ZM134.073 70.0002V69.5002H133.573C132.949 69.5002 132.35 69.7482 131.908 70.1898C131.467 70.6314 131.219 71.2302 131.219 71.8547C131.219 72.4792 131.467 73.078 131.908 73.5196C132.35 73.9612 132.949 74.2092 133.573 74.2092H134.073V73.7092V70.0002ZM134.928 79.2728V79.7728H135.428C136.052 79.7728 136.651 79.5247 137.093 79.0832C137.534 78.6416 137.782 78.0427 137.782 77.4183C137.782 76.7938 137.534 76.1949 137.093 75.7534C136.651 75.3118 136.052 75.0637 135.428 75.0637H134.928V75.5637V79.2728Z" fill="#FAFAFA" stroke="#FAFAFA"/>
<path d="M127.206 62.5777L127.522 62.6998C131.871 64.3798 137.108 64.3797 141.457 62.698L141.769 62.5772L142 62.8203C143.898 64.8211 145.486 67.0948 146.711 69.5658L146.711 69.5677C147.987 72.1703 148.704 74.8133 148.587 77.1301L148.587 77.1301C148.472 79.3912 147.572 81.3572 145.522 82.806L145.522 82.806C143.413 84.296 139.947 85.3336 134.535 85.3336C129.12 85.3336 125.64 84.3141 123.513 82.8421L123.513 82.842C121.449 81.412 120.538 79.472 120.41 77.2374L127.206 62.5777ZM127.206 62.5777L126.975 62.8262M127.206 62.5777L126.975 62.8262M126.975 62.8262C125.157 64.7856 123.466 67.1897 122.251 69.6929L122.251 69.6929M126.975 62.8262L122.251 69.6929M122.251 69.6929C120.98 72.3123 120.278 74.9432 120.41 77.2372L122.251 69.6929ZM144.343 56.1814C144.783 56.3992 145.164 56.6076 145.478 56.7943L142.346 61.3725L142.114 61.7111L142.401 62.0044C144.339 63.9861 146.17 66.5163 147.48 69.1919C148.794 71.8721 149.568 74.6624 149.441 77.1735C149.315 79.6637 148.305 81.8863 146.016 83.5035C143.705 85.1363 140.038 86.1881 134.536 86.1881C129.033 86.1881 125.354 85.1551 123.028 83.5441C120.724 81.9489 119.699 79.7543 119.558 77.2856C119.416 74.7951 120.176 72.0153 121.484 69.3201C122.789 66.6299 124.623 64.0598 126.581 61.9993L126.859 61.7071L126.632 61.3738L123.522 56.7979C123.68 56.7052 123.854 56.6075 124.043 56.5066L124.043 56.5066L124.045 56.5056C124.235 56.4032 124.441 56.2977 124.661 56.1901L124.857 56.0946C127.103 55.024 130.665 53.8094 134.536 53.8094C138.438 53.8094 141.998 55.0428 144.216 56.12C144.217 56.12 144.217 56.1201 144.217 56.1201L144.341 56.1806C144.342 56.1808 144.342 56.1811 144.343 56.1814ZM140.725 62.0592L140.878 62.0047L140.97 61.8703L143.712 57.8618L144.297 57.0064L143.263 57.0808C140.67 57.2675 137.6 57.8748 134.655 58.7274C132.671 59.3006 130.439 59.2193 128.334 58.8311C127.805 58.7329 127.279 58.6161 126.758 58.4809L125.473 58.1471L126.219 59.2457L127.999 61.8671L128.091 62.0024L128.245 62.0572C132.169 63.4543 136.8 63.4542 140.725 62.0592ZM126.08 56.4803L124.8 57.0235L126.133 57.4198C126.89 57.645 127.682 57.8413 128.488 57.9905L128.488 57.9905C130.523 58.3653 132.608 58.4298 134.417 57.9058L134.417 57.9056C136.386 57.3322 138.388 56.8812 140.412 56.5552L140.477 55.5828C138.735 55.0585 136.691 54.664 134.535 54.664C131.254 54.664 128.206 55.5779 126.08 56.4803Z" fill="#FAFAFA" stroke="#FAFAFA"/>
<path d="M105.386 161V157.455L113.67 149.784C114.375 149.102 114.966 148.489 115.443 147.943C115.928 147.398 116.295 146.864 116.545 146.341C116.795 145.811 116.92 145.239 116.92 144.625C116.92 143.943 116.765 143.356 116.455 142.864C116.144 142.364 115.72 141.981 115.182 141.716C114.644 141.443 114.034 141.307 113.352 141.307C112.64 141.307 112.019 141.451 111.489 141.739C110.958 142.027 110.549 142.439 110.261 142.977C109.973 143.515 109.83 144.155 109.83 144.898H105.159C105.159 143.375 105.504 142.053 106.193 140.932C106.883 139.811 107.848 138.943 109.091 138.33C110.333 137.716 111.765 137.409 113.386 137.409C115.053 137.409 116.504 137.705 117.739 138.295C118.981 138.879 119.947 139.689 120.636 140.727C121.326 141.765 121.67 142.955 121.67 144.295C121.67 145.174 121.496 146.042 121.148 146.898C120.807 147.754 120.197 148.705 119.318 149.75C118.439 150.788 117.201 152.034 115.602 153.489L112.205 156.818V156.977H121.977V161H105.386ZM135.323 161.318C133.717 161.318 132.285 161.023 131.027 160.432C129.777 159.841 128.785 159.027 128.05 157.989C127.315 156.951 126.932 155.761 126.902 154.42H131.675C131.728 155.322 132.107 156.053 132.811 156.614C133.516 157.174 134.353 157.455 135.323 157.455C136.095 157.455 136.777 157.284 137.368 156.943C137.967 156.595 138.432 156.114 138.766 155.5C139.107 154.879 139.277 154.167 139.277 153.364C139.277 152.545 139.103 151.826 138.754 151.205C138.414 150.583 137.94 150.098 137.334 149.75C136.728 149.402 136.035 149.223 135.254 149.216C134.573 149.216 133.91 149.356 133.266 149.636C132.629 149.917 132.133 150.299 131.777 150.784L127.402 150L128.504 137.727H142.732V141.75H132.561L131.959 147.58H132.095C132.504 147.004 133.122 146.527 133.948 146.148C134.773 145.769 135.698 145.58 136.72 145.58C138.122 145.58 139.372 145.909 140.47 146.568C141.569 147.227 142.436 148.133 143.073 149.284C143.709 150.428 144.023 151.746 144.016 153.239C144.023 154.807 143.66 156.201 142.925 157.42C142.198 158.633 141.179 159.587 139.868 160.284C138.565 160.973 137.05 161.318 135.323 161.318ZM153.159 155.977L153.171 150.17H153.875L159.466 143.545H165.023L157.512 152.318H156.364L153.159 155.977ZM148.773 161V137.727H153.614V161H148.773ZM159.682 161L154.546 153.398L157.773 149.977L165.353 161H159.682Z" fill="black"/>
<path d="M35.824 191.52H30.96L30.064 194H28.528L32.56 182.912H34.24L38.256 194H36.72L35.824 191.52ZM35.408 190.336L33.392 184.704L31.376 190.336H35.408ZM44.2853 185.072C45.3519 185.072 46.2159 185.397 46.8773 186.048C47.5386 186.688 47.8693 187.616 47.8693 188.832V194H46.4293V189.04C46.4293 188.165 46.2106 187.499 45.7733 187.04C45.3359 186.571 44.7386 186.336 43.9813 186.336C43.2133 186.336 42.5999 186.576 42.1413 187.056C41.6933 187.536 41.4693 188.235 41.4693 189.152V194H40.0133V185.232H41.4693V186.48C41.7573 186.032 42.1466 185.685 42.6373 185.44C43.1386 185.195 43.6879 185.072 44.2853 185.072ZM58.0236 185.232V194H56.5676V192.704C56.2903 193.152 55.901 193.504 55.3996 193.76C54.909 194.005 54.365 194.128 53.7676 194.128C53.085 194.128 52.4716 193.989 51.9276 193.712C51.3836 193.424 50.9516 192.997 50.6316 192.432C50.3223 191.867 50.1676 191.179 50.1676 190.368V185.232H51.6076V190.176C51.6076 191.04 51.8263 191.707 52.2636 192.176C52.701 192.635 53.2983 192.864 54.0556 192.864C54.8343 192.864 55.4476 192.624 55.8956 192.144C56.3436 191.664 56.5676 190.965 56.5676 190.048V185.232H58.0236ZM59.938 189.584C59.938 188.688 60.1193 187.904 60.482 187.232C60.8447 186.549 61.3407 186.021 61.97 185.648C62.61 185.275 63.3193 185.088 64.098 185.088C64.866 185.088 65.5327 185.253 66.098 185.584C66.6633 185.915 67.0847 186.331 67.362 186.832V185.232H68.834V194H67.362V192.368C67.074 192.88 66.642 193.307 66.066 193.648C65.5007 193.979 64.8393 194.144 64.082 194.144C63.3033 194.144 62.5993 193.952 61.97 193.568C61.3407 193.184 60.8447 192.645 60.482 191.952C60.1193 191.259 59.938 190.469 59.938 189.584ZM67.362 189.6C67.362 188.939 67.2287 188.363 66.962 187.872C66.6953 187.381 66.3327 187.008 65.874 186.752C65.426 186.485 64.93 186.352 64.386 186.352C63.842 186.352 63.346 186.48 62.898 186.736C62.45 186.992 62.0927 187.365 61.826 187.856C61.5593 188.347 61.426 188.923 61.426 189.584C61.426 190.256 61.5593 190.843 61.826 191.344C62.0927 191.835 62.45 192.213 62.898 192.48C63.346 192.736 63.842 192.864 64.386 192.864C64.93 192.864 65.426 192.736 65.874 192.48C66.3327 192.213 66.6953 191.835 66.962 191.344C67.2287 190.843 67.362 190.261 67.362 189.6ZM72.7505 182.16V194H71.2945V182.16H72.7505ZM83.1136 185.088C83.871 185.088 84.5323 185.253 85.0976 185.584C85.6736 185.915 86.1003 186.331 86.3776 186.832V185.232H87.8496V194.192C87.8496 194.992 87.679 195.701 87.3376 196.32C86.9963 196.949 86.5056 197.44 85.8656 197.792C85.2363 198.144 84.5003 198.32 83.6576 198.32C82.5056 198.32 81.5456 198.048 80.7776 197.504C80.0096 196.96 79.5563 196.219 79.4176 195.28H80.8576C81.0176 195.813 81.3483 196.24 81.8496 196.56C82.351 196.891 82.9536 197.056 83.6576 197.056C84.4576 197.056 85.1083 196.805 85.6096 196.304C86.1216 195.803 86.3776 195.099 86.3776 194.192V192.352C86.0896 192.864 85.663 193.291 85.0976 193.632C84.5323 193.973 83.871 194.144 83.1136 194.144C82.335 194.144 81.6256 193.952 80.9856 193.568C80.3563 193.184 79.8603 192.645 79.4976 191.952C79.135 191.259 78.9536 190.469 78.9536 189.584C78.9536 188.688 79.135 187.904 79.4976 187.232C79.8603 186.549 80.3563 186.021 80.9856 185.648C81.6256 185.275 82.335 185.088 83.1136 185.088ZM86.3776 189.6C86.3776 188.939 86.2443 188.363 85.9776 187.872C85.711 187.381 85.3483 187.008 84.8896 186.752C84.4416 186.485 83.9456 186.352 83.4016 186.352C82.8576 186.352 82.3616 186.48 81.9136 186.736C81.4656 186.992 81.1083 187.365 80.8416 187.856C80.575 188.347 80.4416 188.923 80.4416 189.584C80.4416 190.256 80.575 190.843 80.8416 191.344C81.1083 191.835 81.4656 192.213 81.9136 192.48C82.3616 192.736 82.8576 192.864 83.4016 192.864C83.9456 192.864 84.4416 192.736 84.8896 192.48C85.3483 192.213 85.711 191.835 85.9776 191.344C86.2443 190.843 86.3776 190.261 86.3776 189.6ZM91.7661 186.656C92.0221 186.155 92.3848 185.765 92.8541 185.488C93.3341 185.211 93.9155 185.072 94.5981 185.072V186.576H94.2141C92.5821 186.576 91.7661 187.461 91.7661 189.232V194H90.3101V185.232H91.7661V186.656ZM100.103 194.144C99.2815 194.144 98.5349 193.957 97.8629 193.584C97.2015 193.211 96.6789 192.683 96.2949 192C95.9215 191.307 95.7349 190.507 95.7349 189.6C95.7349 188.704 95.9269 187.915 96.3109 187.232C96.7055 186.539 97.2389 186.011 97.9109 185.648C98.5829 185.275 99.3349 185.088 100.167 185.088C100.999 185.088 101.751 185.275 102.423 185.648C103.095 186.011 103.623 186.533 104.007 187.216C104.402 187.899 104.599 188.693 104.599 189.6C104.599 190.507 104.396 191.307 103.991 192C103.596 192.683 103.058 193.211 102.375 193.584C101.692 193.957 100.935 194.144 100.103 194.144ZM100.103 192.864C100.626 192.864 101.116 192.741 101.575 192.496C102.034 192.251 102.402 191.883 102.679 191.392C102.967 190.901 103.111 190.304 103.111 189.6C103.111 188.896 102.972 188.299 102.695 187.808C102.418 187.317 102.055 186.955 101.607 186.72C101.159 186.475 100.674 186.352 100.151 186.352C99.6175 186.352 99.1269 186.475 98.6789 186.72C98.2415 186.955 97.8895 187.317 97.6229 187.808C97.3562 188.299 97.2229 188.896 97.2229 189.6C97.2229 190.315 97.3509 190.917 97.6069 191.408C97.8735 191.899 98.2255 192.267 98.6629 192.512C99.1002 192.747 99.5802 192.864 100.103 192.864ZM109.617 194.144C108.945 194.144 108.343 194.032 107.809 193.808C107.276 193.573 106.855 193.253 106.545 192.848C106.236 192.432 106.065 191.957 106.033 191.424H107.537C107.58 191.861 107.783 192.219 108.145 192.496C108.519 192.773 109.004 192.912 109.601 192.912C110.156 192.912 110.593 192.789 110.913 192.544C111.233 192.299 111.393 191.989 111.393 191.616C111.393 191.232 111.223 190.949 110.881 190.768C110.54 190.576 110.012 190.389 109.297 190.208C108.647 190.037 108.113 189.867 107.697 189.696C107.292 189.515 106.94 189.253 106.641 188.912C106.353 188.56 106.209 188.101 106.209 187.536C106.209 187.088 106.343 186.677 106.609 186.304C106.876 185.931 107.255 185.637 107.745 185.424C108.236 185.2 108.796 185.088 109.425 185.088C110.396 185.088 111.18 185.333 111.777 185.824C112.375 186.315 112.695 186.987 112.737 187.84H111.281C111.249 187.381 111.063 187.013 110.721 186.736C110.391 186.459 109.943 186.32 109.377 186.32C108.855 186.32 108.439 186.432 108.129 186.656C107.82 186.88 107.665 187.173 107.665 187.536C107.665 187.824 107.756 188.064 107.937 188.256C108.129 188.437 108.364 188.587 108.641 188.704C108.929 188.811 109.324 188.933 109.825 189.072C110.455 189.243 110.967 189.413 111.361 189.584C111.756 189.744 112.092 189.989 112.369 190.32C112.657 190.651 112.807 191.083 112.817 191.616C112.817 192.096 112.684 192.528 112.417 192.912C112.151 193.296 111.772 193.6 111.281 193.824C110.801 194.037 110.247 194.144 109.617 194.144ZM117.977 194.144C117.305 194.144 116.702 194.032 116.169 193.808C115.635 193.573 115.214 193.253 114.905 192.848C114.595 192.432 114.425 191.957 114.393 191.424H115.897C115.939 191.861 116.142 192.219 116.505 192.496C116.878 192.773 117.363 192.912 117.961 192.912C118.515 192.912 118.953 192.789 119.273 192.544C119.593 192.299 119.753 191.989 119.753 191.616C119.753 191.232 119.582 190.949 119.241 190.768C118.899 190.576 118.371 190.389 117.657 190.208C117.006 190.037 116.473 189.867 116.057 189.696C115.651 189.515 115.299 189.253 115.001 188.912C114.713 188.56 114.569 188.101 114.569 187.536C114.569 187.088 114.702 186.677 114.969 186.304C115.235 185.931 115.614 185.637 116.105 185.424C116.595 185.2 117.155 185.088 117.785 185.088C118.755 185.088 119.539 185.333 120.137 185.824C120.734 186.315 121.054 186.987 121.097 187.84H119.641C119.609 187.381 119.422 187.013 119.081 186.736C118.75 186.459 118.302 186.32 117.737 186.32C117.214 186.32 116.798 186.432 116.489 186.656C116.179 186.88 116.025 187.173 116.025 187.536C116.025 187.824 116.115 188.064 116.297 188.256C116.489 188.437 116.723 188.587 117.001 188.704C117.289 188.811 117.683 188.933 118.185 189.072C118.814 189.243 119.326 189.413 119.721 189.584C120.115 189.744 120.451 189.989 120.729 190.32C121.017 190.651 121.166 191.083 121.177 191.616C121.177 192.096 121.043 192.528 120.777 192.912C120.51 193.296 120.131 193.6 119.641 193.824C119.161 194.037 118.606 194.144 117.977 194.144ZM130.602 194.144C129.93 194.144 129.327 194.032 128.794 193.808C128.26 193.573 127.839 193.253 127.53 192.848C127.22 192.432 127.05 191.957 127.018 191.424H128.522C128.564 191.861 128.767 192.219 129.13 192.496C129.503 192.773 129.988 192.912 130.586 192.912C131.14 192.912 131.578 192.789 131.898 192.544C132.218 192.299 132.378 191.989 132.378 191.616C132.378 191.232 132.207 190.949 131.866 190.768C131.524 190.576 130.996 190.389 130.282 190.208C129.631 190.037 129.098 189.867 128.682 189.696C128.276 189.515 127.924 189.253 127.626 188.912C127.338 188.56 127.194 188.101 127.194 187.536C127.194 187.088 127.327 186.677 127.594 186.304C127.86 185.931 128.239 185.637 128.73 185.424C129.22 185.2 129.78 185.088 130.41 185.088C131.38 185.088 132.164 185.333 132.762 185.824C133.359 186.315 133.679 186.987 133.722 187.84H132.266C132.234 187.381 132.047 187.013 131.706 186.736C131.375 186.459 130.927 186.32 130.362 186.32C129.839 186.32 129.423 186.432 129.114 186.656C128.804 186.88 128.65 187.173 128.65 187.536C128.65 187.824 128.74 188.064 128.922 188.256C129.114 188.437 129.348 188.587 129.626 188.704C129.914 188.811 130.308 188.933 130.81 189.072C131.439 189.243 131.951 189.413 132.346 189.584C132.74 189.744 133.076 189.989 133.354 190.32C133.642 190.651 133.791 191.083 133.802 191.616C133.802 192.096 133.668 192.528 133.402 192.912C133.135 193.296 132.756 193.6 132.266 193.824C131.786 194.037 131.231 194.144 130.602 194.144ZM135.313 189.584C135.313 188.688 135.494 187.904 135.857 187.232C136.22 186.549 136.716 186.021 137.345 185.648C137.985 185.275 138.694 185.088 139.473 185.088C140.241 185.088 140.908 185.253 141.473 185.584C142.038 185.915 142.46 186.331 142.737 186.832V185.232H144.209V194H142.737V192.368C142.449 192.88 142.017 193.307 141.441 193.648C140.876 193.979 140.214 194.144 139.457 194.144C138.678 194.144 137.974 193.952 137.345 193.568C136.716 193.184 136.22 192.645 135.857 191.952C135.494 191.259 135.313 190.469 135.313 189.584ZM142.737 189.6C142.737 188.939 142.604 188.363 142.337 187.872C142.07 187.381 141.708 187.008 141.249 186.752C140.801 186.485 140.305 186.352 139.761 186.352C139.217 186.352 138.721 186.48 138.273 186.736C137.825 186.992 137.468 187.365 137.201 187.856C136.934 188.347 136.801 188.923 136.801 189.584C136.801 190.256 136.934 190.843 137.201 191.344C137.468 191.835 137.825 192.213 138.273 192.48C138.721 192.736 139.217 192.864 139.761 192.864C140.305 192.864 140.801 192.736 141.249 192.48C141.708 192.213 142.07 191.835 142.337 191.344C142.604 190.843 142.737 190.261 142.737 189.6ZM148.126 182.16V194H146.67V182.16H148.126ZM158.607 189.28C158.607 189.557 158.591 189.851 158.559 190.16H151.551C151.604 191.024 151.898 191.701 152.431 192.192C152.975 192.672 153.631 192.912 154.399 192.912C155.028 192.912 155.551 192.768 155.967 192.48C156.394 192.181 156.692 191.787 156.863 191.296H158.431C158.196 192.139 157.727 192.827 157.023 193.36C156.319 193.883 155.444 194.144 154.399 194.144C153.567 194.144 152.82 193.957 152.159 193.584C151.508 193.211 150.996 192.683 150.623 192C150.25 191.307 150.063 190.507 150.063 189.6C150.063 188.693 150.244 187.899 150.607 187.216C150.97 186.533 151.476 186.011 152.127 185.648C152.788 185.275 153.546 185.088 154.399 185.088C155.231 185.088 155.967 185.269 156.607 185.632C157.247 185.995 157.738 186.496 158.079 187.136C158.431 187.765 158.607 188.48 158.607 189.28ZM157.103 188.976C157.103 188.421 156.98 187.947 156.735 187.552C156.49 187.147 156.154 186.843 155.727 186.64C155.311 186.427 154.847 186.32 154.335 186.32C153.599 186.32 152.97 186.555 152.447 187.024C151.935 187.493 151.642 188.144 151.567 188.976H157.103ZM165.547 183.808C165.269 183.808 165.035 183.712 164.843 183.52C164.651 183.328 164.555 183.093 164.555 182.816C164.555 182.539 164.651 182.304 164.843 182.112C165.035 181.92 165.269 181.824 165.547 181.824C165.813 181.824 166.037 181.92 166.219 182.112C166.411 182.304 166.507 182.539 166.507 182.816C166.507 183.093 166.411 183.328 166.219 183.52C166.037 183.712 165.813 183.808 165.547 183.808ZM166.251 185.232V194H164.795V185.232H166.251ZM173.004 185.072C174.071 185.072 174.935 185.397 175.596 186.048C176.257 186.688 176.588 187.616 176.588 188.832V194H175.148V189.04C175.148 188.165 174.929 187.499 174.492 187.04C174.055 186.571 173.457 186.336 172.7 186.336C171.932 186.336 171.319 186.576 170.86 187.056C170.412 187.536 170.188 188.235 170.188 189.152V194H168.732V185.232H170.188V186.48C170.476 186.032 170.865 185.685 171.356 185.44C171.857 185.195 172.407 185.072 173.004 185.072ZM187.056 194.144C186.235 194.144 185.488 193.957 184.816 193.584C184.155 193.211 183.632 192.683 183.248 192C182.875 191.307 182.688 190.507 182.688 189.6C182.688 188.704 182.88 187.915 183.264 187.232C183.659 186.539 184.192 186.011 184.864 185.648C185.536 185.275 186.288 185.088 187.12 185.088C187.952 185.088 188.704 185.275 189.376 185.648C190.048 186.011 190.576 186.533 190.96 187.216C191.355 187.899 191.552 188.693 191.552 189.6C191.552 190.507 191.349 191.307 190.944 192C190.549 192.683 190.011 193.211 189.328 193.584C188.645 193.957 187.888 194.144 187.056 194.144ZM187.056 192.864C187.579 192.864 188.069 192.741 188.528 192.496C188.987 192.251 189.355 191.883 189.632 191.392C189.92 190.901 190.064 190.304 190.064 189.6C190.064 188.896 189.925 188.299 189.648 187.808C189.371 187.317 189.008 186.955 188.56 186.72C188.112 186.475 187.627 186.352 187.104 186.352C186.571 186.352 186.08 186.475 185.632 186.72C185.195 186.955 184.843 187.317 184.576 187.808C184.309 188.299 184.176 188.896 184.176 189.6C184.176 190.315 184.304 190.917 184.56 191.408C184.827 191.899 185.179 192.267 185.616 192.512C186.053 192.747 186.533 192.864 187.056 192.864ZM201.242 185.232V194H199.786V192.704C199.509 193.152 199.12 193.504 198.618 193.76C198.128 194.005 197.584 194.128 196.986 194.128C196.304 194.128 195.69 193.989 195.146 193.712C194.602 193.424 194.17 192.997 193.85 192.432C193.541 191.867 193.386 191.179 193.386 190.368V185.232H194.826V190.176C194.826 191.04 195.045 191.707 195.482 192.176C195.92 192.635 196.517 192.864 197.274 192.864C198.053 192.864 198.666 192.624 199.114 192.144C199.562 191.664 199.786 190.965 199.786 190.048V185.232H201.242ZM205.157 186.656C205.413 186.155 205.775 185.765 206.245 185.488C206.725 185.211 207.306 185.072 207.989 185.072V186.576H207.605C205.973 186.576 205.157 187.461 205.157 189.232V194H203.701V185.232H205.157V186.656ZM217.039 194.144C216.367 194.144 215.764 194.032 215.231 193.808C214.698 193.573 214.276 193.253 213.967 192.848C213.658 192.432 213.487 191.957 213.455 191.424H214.959C215.002 191.861 215.204 192.219 215.567 192.496C215.94 192.773 216.426 192.912 217.023 192.912C217.578 192.912 218.015 192.789 218.335 192.544C218.655 192.299 218.815 191.989 218.815 191.616C218.815 191.232 218.644 190.949 218.303 190.768C217.962 190.576 217.434 190.389 216.719 190.208C216.068 190.037 215.535 189.867 215.119 189.696C214.714 189.515 214.362 189.253 214.063 188.912C213.775 188.56 213.631 188.101 213.631 187.536C213.631 187.088 213.764 186.677 214.031 186.304C214.298 185.931 214.676 185.637 215.167 185.424C215.658 185.2 216.218 185.088 216.847 185.088C217.818 185.088 218.602 185.333 219.199 185.824C219.796 186.315 220.116 186.987 220.159 187.84H218.703C218.671 187.381 218.484 187.013 218.143 186.736C217.812 186.459 217.364 186.32 216.799 186.32C216.276 186.32 215.86 186.432 215.551 186.656C215.242 186.88 215.087 187.173 215.087 187.536C215.087 187.824 215.178 188.064 215.359 188.256C215.551 188.437 215.786 188.587 216.063 188.704C216.351 188.811 216.746 188.933 217.247 189.072C217.876 189.243 218.388 189.413 218.783 189.584C219.178 189.744 219.514 189.989 219.791 190.32C220.079 190.651 220.228 191.083 220.239 191.616C220.239 192.096 220.106 192.528 219.839 192.912C219.572 193.296 219.194 193.6 218.703 193.824C218.223 194.037 217.668 194.144 217.039 194.144ZM223.047 183.808C222.769 183.808 222.535 183.712 222.343 183.52C222.151 183.328 222.055 183.093 222.055 182.816C222.055 182.539 222.151 182.304 222.343 182.112C222.535 181.92 222.769 181.824 223.047 181.824C223.313 181.824 223.537 181.92 223.719 182.112C223.911 182.304 224.007 182.539 224.007 182.816C224.007 183.093 223.911 183.328 223.719 183.52C223.537 183.712 223.313 183.808 223.047 183.808ZM223.751 185.232V194H222.295V185.232H223.751ZM228.008 186.432V191.6C228.008 192.027 228.099 192.331 228.28 192.512C228.461 192.683 228.776 192.768 229.224 192.768H230.296V194H228.984C228.173 194 227.565 193.813 227.16 193.44C226.755 193.067 226.552 192.453 226.552 191.6V186.432H225.416V185.232H226.552V183.024H228.008V185.232H230.296V186.432H228.008ZM240.06 189.28C240.06 189.557 240.044 189.851 240.012 190.16H233.004C233.057 191.024 233.351 191.701 233.884 192.192C234.428 192.672 235.084 192.912 235.852 192.912C236.481 192.912 237.004 192.768 237.42 192.48C237.847 192.181 238.145 191.787 238.316 191.296H239.884C239.649 192.139 239.18 192.827 238.476 193.36C237.772 193.883 236.897 194.144 235.852 194.144C235.02 194.144 234.273 193.957 233.612 193.584C232.961 193.211 232.449 192.683 232.076 192C231.703 191.307 231.516 190.507 231.516 189.6C231.516 188.693 231.697 187.899 232.06 187.216C232.423 186.533 232.929 186.011 233.58 185.648C234.241 185.275 234.999 185.088 235.852 185.088C236.684 185.088 237.42 185.269 238.06 185.632C238.7 185.995 239.191 186.496 239.532 187.136C239.884 187.765 240.06 188.48 240.06 189.28ZM238.556 188.976C238.556 188.421 238.433 187.947 238.188 187.552C237.943 187.147 237.607 186.843 237.18 186.64C236.764 186.427 236.3 186.32 235.788 186.32C235.052 186.32 234.423 186.555 233.9 187.024C233.388 187.493 233.095 188.144 233.02 188.976H238.556Z" fill="black"/>
</svg>
