<svg width="270" height="284" viewBox="0 0 270 284" fill="none" xmlns="http://www.w3.org/2000/svg">
<g clip-path="url(#clip0_95_2553)">
<rect width="270" height="284" rx="4" fill="black"/>
<g filter="url(#filter0_f_95_2553)">
<path d="M254 142C254 207.722 200.722 261 135 261C69.2781 261 16 207.722 16 142C16 76.2781 69.2781 23 135 23C200.722 23 254 76.2781 254 142Z" fill="#D9D9D9" fill-opacity="0.9"/>
</g>
<rect x="34" y="38" width="201" height="203"/>
<path d="M25.7216 196V178.545H32.267C33.608 178.545 34.733 178.795 35.642 179.295C36.5568 179.795 37.2472 180.483 37.7131 181.358C38.1847 182.227 38.4205 183.216 38.4205 184.324C38.4205 185.443 38.1847 186.437 37.7131 187.307C37.2415 188.176 36.5455 188.861 35.625 189.361C34.7045 189.855 33.571 190.102 32.2244 190.102H27.8864V187.503H31.7983C32.5824 187.503 33.2244 187.366 33.7244 187.094C34.2244 186.821 34.5938 186.446 34.8324 185.969C35.0767 185.491 35.1989 184.943 35.1989 184.324C35.1989 183.705 35.0767 183.159 34.8324 182.688C34.5938 182.216 34.2216 181.849 33.7159 181.588C33.2159 181.321 32.571 181.188 31.7812 181.188H28.8835V196H25.7216ZM47.3585 196.256C46.046 196.256 44.9125 195.983 43.9579 195.438C43.0091 194.886 42.2789 194.108 41.7676 193.102C41.2562 192.091 41.0005 190.901 41.0005 189.531C41.0005 188.185 41.2562 187.003 41.7676 185.986C42.2846 184.963 43.0062 184.168 43.9324 183.599C44.8585 183.026 45.9466 182.739 47.1966 182.739C48.0034 182.739 48.7647 182.869 49.4807 183.131C50.2022 183.386 50.8386 183.784 51.3897 184.324C51.9466 184.864 52.3841 185.551 52.7022 186.386C53.0204 187.216 53.1795 188.205 53.1795 189.352V190.298H42.4494V188.219H50.2221C50.2164 187.628 50.0886 187.102 49.8386 186.642C49.5886 186.176 49.2392 185.81 48.7903 185.543C48.3471 185.276 47.8301 185.142 47.2392 185.142C46.6085 185.142 46.0545 185.295 45.5772 185.602C45.1 185.903 44.7278 186.301 44.4608 186.795C44.1994 187.284 44.0659 187.821 44.0602 188.406V190.222C44.0602 190.983 44.1994 191.636 44.4778 192.182C44.7562 192.722 45.1454 193.136 45.6454 193.426C46.1454 193.71 46.7307 193.852 47.4011 193.852C47.85 193.852 48.2562 193.79 48.6199 193.665C48.9835 193.534 49.2988 193.344 49.5659 193.094C49.8329 192.844 50.0346 192.534 50.171 192.165L53.0517 192.489C52.8699 193.25 52.5233 193.915 52.0119 194.483C51.5062 195.045 50.8585 195.483 50.0687 195.795C49.2789 196.102 48.3755 196.256 47.3585 196.256ZM56.5096 196V182.909H59.5011V185.091H59.6374C59.8761 184.335 60.2852 183.753 60.8647 183.344C61.4499 182.929 62.1176 182.722 62.8676 182.722C63.038 182.722 63.2284 182.73 63.4386 182.747C63.6545 182.759 63.8335 182.778 63.9755 182.807V185.645C63.8448 185.599 63.6374 185.56 63.3534 185.526C63.0749 185.486 62.8051 185.466 62.5437 185.466C61.9812 185.466 61.4755 185.588 61.0266 185.832C60.5835 186.071 60.234 186.403 59.9784 186.83C59.7227 187.256 59.5948 187.747 59.5948 188.304V196H56.5096ZM74.079 182.909V185.295H66.3404V182.909H74.079ZM68.2751 196V181.673C68.2751 180.793 68.4569 180.06 68.8205 179.474C69.1898 178.889 69.6841 178.452 70.3035 178.162C70.9228 177.872 71.6103 177.727 72.366 177.727C72.9001 177.727 73.3745 177.77 73.7893 177.855C74.204 177.94 74.5109 178.017 74.7097 178.085L74.0961 180.472C73.9654 180.432 73.8006 180.392 73.6018 180.352C73.4029 180.307 73.1813 180.284 72.937 180.284C72.3631 180.284 71.9569 180.423 71.7182 180.702C71.4853 180.974 71.3688 181.366 71.3688 181.878V196H68.2751ZM85.559 190.494V182.909H88.6442V196H85.6527V193.673H85.5164C85.2209 194.406 84.7351 195.006 84.059 195.472C83.3885 195.937 82.5618 196.17 81.5789 196.17C80.7209 196.17 79.9624 195.98 79.3033 195.599C78.6499 195.213 78.1385 194.653 77.7692 193.92C77.3999 193.182 77.2152 192.29 77.2152 191.244V182.909H80.3005V190.767C80.3005 191.597 80.5277 192.256 80.9823 192.744C81.4368 193.233 82.0334 193.477 82.772 193.477C83.2266 193.477 83.6669 193.366 84.0931 193.145C84.5192 192.923 84.8686 192.594 85.1414 192.156C85.4198 191.713 85.559 191.159 85.559 190.494ZM92.5368 196V182.909H95.4857V185.134H95.6391C95.9118 184.384 96.3635 183.798 96.9942 183.378C97.6249 182.952 98.3777 182.739 99.2527 182.739C100.139 182.739 100.886 182.955 101.494 183.386C102.108 183.812 102.54 184.395 102.79 185.134H102.926C103.216 184.406 103.704 183.827 104.392 183.395C105.085 182.957 105.906 182.739 106.855 182.739C108.06 182.739 109.042 183.119 109.804 183.881C110.565 184.642 110.946 185.753 110.946 187.213V196H107.852V187.69C107.852 186.878 107.636 186.284 107.204 185.909C106.773 185.528 106.244 185.338 105.619 185.338C104.875 185.338 104.292 185.571 103.872 186.037C103.457 186.497 103.25 187.097 103.25 187.835V196H100.224V187.562C100.224 186.886 100.02 186.347 99.6107 185.943C99.2072 185.54 98.6788 185.338 98.0254 185.338C97.5822 185.338 97.1788 185.452 96.8152 185.679C96.4516 185.901 96.1618 186.216 95.9459 186.625C95.73 187.028 95.622 187.5 95.622 188.04V196H92.5368ZM120.591 196.256C119.279 196.256 118.145 195.983 117.191 195.438C116.242 194.886 115.512 194.108 115 193.102C114.489 192.091 114.233 190.901 114.233 189.531C114.233 188.185 114.489 187.003 115 185.986C115.517 184.963 116.239 184.168 117.165 183.599C118.091 183.026 119.179 182.739 120.429 182.739C121.236 182.739 121.998 182.869 122.713 183.131C123.435 183.386 124.071 183.784 124.623 184.324C125.179 184.864 125.617 185.551 125.935 186.386C126.253 187.216 126.412 188.205 126.412 189.352V190.298H115.682V188.219H123.455C123.449 187.628 123.321 187.102 123.071 186.642C122.821 186.176 122.472 185.81 122.023 185.543C121.58 185.276 121.063 185.142 120.472 185.142C119.841 185.142 119.287 185.295 118.81 185.602C118.333 185.903 117.961 186.301 117.694 186.795C117.432 187.284 117.299 187.821 117.293 188.406V190.222C117.293 190.983 117.432 191.636 117.711 192.182C117.989 192.722 118.378 193.136 118.878 193.426C119.378 193.71 119.963 193.852 120.634 193.852C121.083 193.852 121.489 193.79 121.853 193.665C122.216 193.534 122.532 193.344 122.799 193.094C123.066 192.844 123.267 192.534 123.404 192.165L126.284 192.489C126.103 193.25 125.756 193.915 125.245 194.483C124.739 195.045 124.091 195.483 123.302 195.795C122.512 196.102 121.608 196.256 120.591 196.256Z" fill="#FAFAFA"/>
<path d="M32.47 215.07C32.1993 214.501 31.8073 214.062 31.294 213.754C30.7807 213.437 30.1833 213.278 29.502 213.278C28.8207 213.278 28.2047 213.437 27.654 213.754C27.1127 214.062 26.6833 214.51 26.366 215.098C26.058 215.677 25.904 216.349 25.904 217.114C25.904 217.879 26.058 218.551 26.366 219.13C26.6833 219.709 27.1127 220.157 27.654 220.474C28.2047 220.782 28.8207 220.936 29.502 220.936C30.454 220.936 31.238 220.651 31.854 220.082C32.47 219.513 32.8293 218.743 32.932 217.772H29.04V216.736H34.29V217.716C34.2153 218.519 33.9633 219.256 33.534 219.928C33.1047 220.591 32.54 221.118 31.84 221.51C31.14 221.893 30.3607 222.084 29.502 222.084C28.5967 222.084 27.7707 221.874 27.024 221.454C26.2773 221.025 25.6847 220.432 25.246 219.676C24.8167 218.92 24.602 218.066 24.602 217.114C24.602 216.162 24.8167 215.308 25.246 214.552C25.6847 213.787 26.2773 213.194 27.024 212.774C27.7707 212.345 28.5967 212.13 29.502 212.13C30.538 212.13 31.4527 212.387 32.246 212.9C33.0487 213.413 33.632 214.137 33.996 215.07H32.47ZM37.2205 212.242V218.416C37.2205 219.284 37.4305 219.928 37.8505 220.348C38.2798 220.768 38.8725 220.978 39.6285 220.978C40.3752 220.978 40.9585 220.768 41.3785 220.348C41.8078 219.928 42.0225 219.284 42.0225 218.416V212.242H43.2965V218.402C43.2965 219.214 43.1332 219.9 42.8065 220.46C42.4798 221.011 42.0365 221.421 41.4765 221.692C40.9258 221.963 40.3052 222.098 39.6145 222.098C38.9238 222.098 38.2985 221.963 37.7385 221.692C37.1878 221.421 36.7492 221.011 36.4225 220.46C36.1052 219.9 35.9465 219.214 35.9465 218.402V212.242H37.2205ZM44.9458 217.114C44.9458 216.162 45.1604 215.308 45.5898 214.552C46.0191 213.787 46.6024 213.189 47.3398 212.76C48.0864 212.331 48.9124 212.116 49.8178 212.116C50.8818 212.116 51.8104 212.373 52.6038 212.886C53.3971 213.399 53.9758 214.127 54.3398 215.07H52.8138C52.5431 214.482 52.1511 214.029 51.6378 213.712C51.1338 213.395 50.5271 213.236 49.8178 213.236C49.1364 213.236 48.5251 213.395 47.9838 213.712C47.4424 214.029 47.0178 214.482 46.7098 215.07C46.4018 215.649 46.2478 216.33 46.2478 217.114C46.2478 217.889 46.4018 218.57 46.7098 219.158C47.0178 219.737 47.4424 220.185 47.9838 220.502C48.5251 220.819 49.1364 220.978 49.8178 220.978C50.5271 220.978 51.1338 220.824 51.6378 220.516C52.1511 220.199 52.5431 219.746 52.8138 219.158H54.3398C53.9758 220.091 53.3971 220.815 52.6038 221.328C51.8104 221.832 50.8818 222.084 49.8178 222.084C48.9124 222.084 48.0864 221.874 47.3398 221.454C46.6024 221.025 46.0191 220.432 45.5898 219.676C45.1604 218.92 44.9458 218.066 44.9458 217.114ZM55.7602 217.114C55.7602 216.162 55.9749 215.308 56.4042 214.552C56.8335 213.787 57.4169 213.189 58.1542 212.76C58.9009 212.331 59.7269 212.116 60.6322 212.116C61.6962 212.116 62.6249 212.373 63.4182 212.886C64.2115 213.399 64.7902 214.127 65.1542 215.07H63.6282C63.3575 214.482 62.9655 214.029 62.4522 213.712C61.9482 213.395 61.3415 213.236 60.6322 213.236C59.9509 213.236 59.3395 213.395 58.7982 213.712C58.2569 214.029 57.8322 214.482 57.5242 215.07C57.2162 215.649 57.0622 216.33 57.0622 217.114C57.0622 217.889 57.2162 218.57 57.5242 219.158C57.8322 219.737 58.2569 220.185 58.7982 220.502C59.3395 220.819 59.9509 220.978 60.6322 220.978C61.3415 220.978 61.9482 220.824 62.4522 220.516C62.9655 220.199 63.3575 219.746 63.6282 219.158H65.1542C64.7902 220.091 64.2115 220.815 63.4182 221.328C62.6249 221.832 61.6962 222.084 60.6322 222.084C59.7269 222.084 58.9009 221.874 58.1542 221.454C57.4169 221.025 56.8335 220.432 56.4042 219.676C55.9749 218.92 55.7602 218.066 55.7602 217.114ZM68.3247 212.242V222H67.0507V212.242H68.3247ZM75.5024 212.242V222H74.2284V212.242H75.5024ZM85.3457 222H84.0717L78.9477 214.23V222H77.6737V212.228H78.9477L84.0717 219.984V212.228H85.3457V222ZM93.5235 212.242V213.278H90.8635V222H89.5895V213.278H86.9155V212.242H93.5235ZM96.3657 213.278V216.54H99.9217V217.59H96.3657V220.95H100.342V222H95.0917V212.228H100.342V213.278H96.3657ZM109.941 222H108.667L103.543 214.23V222H102.269V212.228H103.543L108.667 219.984V212.228H109.941V222ZM115.207 222.098C114.563 222.098 113.984 221.986 113.471 221.762C112.967 221.529 112.57 221.211 112.281 220.81C111.992 220.399 111.842 219.928 111.833 219.396H113.191C113.238 219.853 113.424 220.241 113.751 220.558C114.087 220.866 114.572 221.02 115.207 221.02C115.814 221.02 116.29 220.871 116.635 220.572C116.99 220.264 117.167 219.872 117.167 219.396C117.167 219.023 117.064 218.719 116.859 218.486C116.654 218.253 116.397 218.075 116.089 217.954C115.781 217.833 115.366 217.702 114.843 217.562C114.199 217.394 113.681 217.226 113.289 217.058C112.906 216.89 112.575 216.629 112.295 216.274C112.024 215.91 111.889 215.425 111.889 214.818C111.889 214.286 112.024 213.815 112.295 213.404C112.566 212.993 112.944 212.676 113.429 212.452C113.924 212.228 114.488 212.116 115.123 212.116C116.038 212.116 116.784 212.345 117.363 212.802C117.951 213.259 118.282 213.866 118.357 214.622H116.957C116.91 214.249 116.714 213.922 116.369 213.642C116.024 213.353 115.566 213.208 114.997 213.208C114.465 213.208 114.031 213.348 113.695 213.628C113.359 213.899 113.191 214.281 113.191 214.776C113.191 215.131 113.289 215.42 113.485 215.644C113.69 215.868 113.938 216.041 114.227 216.162C114.526 216.274 114.941 216.405 115.473 216.554C116.117 216.731 116.635 216.909 117.027 217.086C117.419 217.254 117.755 217.52 118.035 217.884C118.315 218.239 118.455 218.724 118.455 219.34C118.455 219.816 118.329 220.264 118.077 220.684C117.825 221.104 117.452 221.445 116.957 221.706C116.462 221.967 115.879 222.098 115.207 222.098ZM121.604 213.278V216.54H125.16V217.59H121.604V220.95H125.58V222H120.33V212.228H125.58V213.278H121.604ZM135.664 222.098C134.759 222.098 133.933 221.888 133.186 221.468C132.439 221.039 131.847 220.446 131.408 219.69C130.979 218.925 130.764 218.066 130.764 217.114C130.764 216.162 130.979 215.308 131.408 214.552C131.847 213.787 132.439 213.194 133.186 212.774C133.933 212.345 134.759 212.13 135.664 212.13C136.579 212.13 137.409 212.345 138.156 212.774C138.903 213.194 139.491 213.782 139.92 214.538C140.349 215.294 140.564 216.153 140.564 217.114C140.564 218.075 140.349 218.934 139.92 219.69C139.491 220.446 138.903 221.039 138.156 221.468C137.409 221.888 136.579 222.098 135.664 222.098ZM135.664 220.992C136.345 220.992 136.957 220.833 137.498 220.516C138.049 220.199 138.478 219.746 138.786 219.158C139.103 218.57 139.262 217.889 139.262 217.114C139.262 216.33 139.103 215.649 138.786 215.07C138.478 214.482 138.053 214.029 137.512 213.712C136.971 213.395 136.355 213.236 135.664 213.236C134.973 213.236 134.357 213.395 133.816 213.712C133.275 214.029 132.845 214.482 132.528 215.07C132.22 215.649 132.066 216.33 132.066 217.114C132.066 217.889 132.22 218.57 132.528 219.158C132.845 219.746 133.275 220.199 133.816 220.516C134.367 220.833 134.983 220.992 135.664 220.992ZM143.492 212.242V218.416C143.492 219.284 143.702 219.928 144.122 220.348C144.551 220.768 145.144 220.978 145.9 220.978C146.647 220.978 147.23 220.768 147.65 220.348C148.079 219.928 148.294 219.284 148.294 218.416V212.242H149.568V218.402C149.568 219.214 149.405 219.9 149.078 220.46C148.751 221.011 148.308 221.421 147.748 221.692C147.197 221.963 146.577 222.098 145.886 222.098C145.195 222.098 144.57 221.963 144.01 221.692C143.459 221.421 143.021 221.011 142.694 220.46C142.377 219.9 142.218 219.214 142.218 218.402V212.242H143.492ZM154.731 212.242C155.795 212.242 156.715 212.443 157.489 212.844C158.273 213.236 158.871 213.801 159.281 214.538C159.701 215.275 159.911 216.143 159.911 217.142C159.911 218.141 159.701 219.009 159.281 219.746C158.871 220.474 158.273 221.034 157.489 221.426C156.715 221.809 155.795 222 154.731 222H151.693V212.242H154.731ZM154.731 220.95C155.991 220.95 156.953 220.619 157.615 219.956C158.278 219.284 158.609 218.346 158.609 217.142C158.609 215.929 158.273 214.981 157.601 214.3C156.939 213.619 155.982 213.278 154.731 213.278H152.967V220.95H154.731ZM166.598 213.278V216.54H170.154V217.59H166.598V220.95H170.574V222H165.324V212.228H170.574V213.278H166.598ZM175.54 212.242C176.604 212.242 177.523 212.443 178.298 212.844C179.082 213.236 179.679 213.801 180.09 214.538C180.51 215.275 180.72 216.143 180.72 217.142C180.72 218.141 180.51 219.009 180.09 219.746C179.679 220.474 179.082 221.034 178.298 221.426C177.523 221.809 176.604 222 175.54 222H172.502V212.242H175.54ZM175.54 220.95C176.8 220.95 177.761 220.619 178.424 219.956C179.086 219.284 179.418 218.346 179.418 217.142C179.418 215.929 179.082 214.981 178.41 214.3C177.747 213.619 176.79 213.278 175.54 213.278H173.776V220.95H175.54ZM188.924 215.098C188.924 215.91 188.644 216.587 188.084 217.128C187.534 217.66 186.689 217.926 185.55 217.926H183.674V222H182.4V212.242H185.55C186.652 212.242 187.487 212.508 188.056 213.04C188.635 213.572 188.924 214.258 188.924 215.098ZM185.55 216.876C186.26 216.876 186.782 216.722 187.118 216.414C187.454 216.106 187.622 215.667 187.622 215.098C187.622 213.894 186.932 213.292 185.55 213.292H183.674V216.876H185.55Z" fill="#FAFAFA"/>
<path d="M28.864 254.112C28.1173 254.112 27.4453 253.984 26.848 253.728C26.2507 253.461 25.7813 253.088 25.44 252.608C25.0987 252.128 24.928 251.568 24.928 250.928H26.88C26.9227 251.408 27.1093 251.803 27.44 252.112C27.7813 252.421 28.256 252.576 28.864 252.576C29.4933 252.576 29.984 252.427 30.336 252.128C30.688 251.819 30.864 251.424 30.864 250.944C30.864 250.571 30.752 250.267 30.528 250.032C30.3147 249.797 30.0427 249.616 29.712 249.488C29.392 249.36 28.944 249.221 28.368 249.072C27.6427 248.88 27.0507 248.688 26.592 248.496C26.144 248.293 25.76 247.984 25.44 247.568C25.12 247.152 24.96 246.597 24.96 245.904C24.96 245.264 25.12 244.704 25.44 244.224C25.76 243.744 26.208 243.376 26.784 243.12C27.36 242.864 28.0267 242.736 28.784 242.736C29.8613 242.736 30.7413 243.008 31.424 243.552C32.1173 244.085 32.5013 244.821 32.576 245.76H30.56C30.528 245.355 30.336 245.008 29.984 244.72C29.632 244.432 29.168 244.288 28.592 244.288C28.0693 244.288 27.6427 244.421 27.312 244.688C26.9813 244.955 26.816 245.339 26.816 245.84C26.816 246.181 26.9173 246.464 27.12 246.688C27.3333 246.901 27.6 247.072 27.92 247.2C28.24 247.328 28.6773 247.467 29.232 247.616C29.968 247.819 30.5653 248.021 31.024 248.224C31.4933 248.427 31.888 248.741 32.208 249.168C32.5387 249.584 32.704 250.144 32.704 250.848C32.704 251.413 32.5493 251.947 32.24 252.448C31.9413 252.949 31.4987 253.355 30.912 253.664C30.336 253.963 29.6533 254.112 28.864 254.112ZM39.4163 245.04C40.0883 245.04 40.6856 245.184 41.2083 245.472C41.7416 245.76 42.1576 246.187 42.4563 246.752C42.7656 247.317 42.9203 248 42.9203 248.8V254H41.1123V249.072C41.1123 248.283 40.9149 247.68 40.5203 247.264C40.1256 246.837 39.5869 246.624 38.9043 246.624C38.2216 246.624 37.6776 246.837 37.2723 247.264C36.8776 247.68 36.6803 248.283 36.6803 249.072V254H34.8563V242.16H36.6803V246.208C36.9896 245.835 37.3789 245.547 37.8483 245.344C38.3283 245.141 38.8509 245.04 39.4163 245.04ZM49.0709 254.144C48.2389 254.144 47.4869 253.957 46.8149 253.584C46.1429 253.2 45.6149 252.667 45.2309 251.984C44.8469 251.291 44.6549 250.491 44.6549 249.584C44.6549 248.688 44.8522 247.893 45.2469 247.2C45.6415 246.507 46.1802 245.973 46.8629 245.6C47.5455 245.227 48.3082 245.04 49.1509 245.04C49.9935 245.04 50.7562 245.227 51.4389 245.6C52.1215 245.973 52.6602 246.507 53.0549 247.2C53.4495 247.893 53.6469 248.688 53.6469 249.584C53.6469 250.48 53.4442 251.275 53.0389 251.968C52.6335 252.661 52.0789 253.2 51.3749 253.584C50.6815 253.957 49.9135 254.144 49.0709 254.144ZM49.0709 252.56C49.5402 252.56 49.9775 252.448 50.3829 252.224C50.7989 252 51.1349 251.664 51.3909 251.216C51.6469 250.768 51.7749 250.224 51.7749 249.584C51.7749 248.944 51.6522 248.405 51.4069 247.968C51.1615 247.52 50.8362 247.184 50.4309 246.96C50.0255 246.736 49.5882 246.624 49.1189 246.624C48.6495 246.624 48.2122 246.736 47.8069 246.96C47.4122 247.184 47.0975 247.52 46.8629 247.968C46.6282 248.405 46.5109 248.944 46.5109 249.584C46.5109 250.533 46.7509 251.269 47.2309 251.792C47.7215 252.304 48.3349 252.56 49.0709 252.56ZM57.274 246.48C57.5833 246.075 58.0047 245.733 58.538 245.456C59.0713 245.179 59.674 245.04 60.346 245.04C61.114 245.04 61.8127 245.232 62.442 245.616C63.082 245.989 63.5833 246.517 63.946 247.2C64.3087 247.883 64.49 248.667 64.49 249.552C64.49 250.437 64.3087 251.232 63.946 251.936C63.5833 252.629 63.082 253.173 62.442 253.568C61.8127 253.952 61.114 254.144 60.346 254.144C59.674 254.144 59.0767 254.011 58.554 253.744C58.0313 253.467 57.6047 253.125 57.274 252.72V258.192H55.45V245.184H57.274V246.48ZM62.634 249.552C62.634 248.944 62.506 248.421 62.25 247.984C62.0047 247.536 61.674 247.2 61.258 246.976C60.8527 246.741 60.4153 246.624 59.946 246.624C59.4873 246.624 59.05 246.741 58.634 246.976C58.2287 247.211 57.898 247.552 57.642 248C57.3967 248.448 57.274 248.976 57.274 249.584C57.274 250.192 57.3967 250.725 57.642 251.184C57.898 251.632 58.2287 251.973 58.634 252.208C59.05 252.443 59.4873 252.56 59.946 252.56C60.4153 252.56 60.8527 252.443 61.258 252.208C61.674 251.963 62.0047 251.611 62.25 251.152C62.506 250.693 62.634 250.16 62.634 249.552ZM79.586 254H77.762L72.274 245.696V254H70.45V242.864H72.274L77.762 251.152V242.864H79.586V254ZM85.8053 254.144C84.9733 254.144 84.2213 253.957 83.5493 253.584C82.8773 253.2 82.3493 252.667 81.9653 251.984C81.5813 251.291 81.3893 250.491 81.3893 249.584C81.3893 248.688 81.5866 247.893 81.9813 247.2C82.3759 246.507 82.9146 245.973 83.5973 245.6C84.2799 245.227 85.0426 245.04 85.8853 245.04C86.7279 245.04 87.4906 245.227 88.1733 245.6C88.8559 245.973 89.3946 246.507 89.7893 247.2C90.1839 247.893 90.3813 248.688 90.3813 249.584C90.3813 250.48 90.1786 251.275 89.7733 251.968C89.3679 252.661 88.8133 253.2 88.1093 253.584C87.4159 253.957 86.6479 254.144 85.8053 254.144ZM85.8053 252.56C86.2746 252.56 86.7119 252.448 87.1173 252.224C87.5333 252 87.8693 251.664 88.1253 251.216C88.3813 250.768 88.5093 250.224 88.5093 249.584C88.5093 248.944 88.3866 248.405 88.1413 247.968C87.8959 247.52 87.5706 247.184 87.1653 246.96C86.7599 246.736 86.3226 246.624 85.8533 246.624C85.3839 246.624 84.9466 246.736 84.5413 246.96C84.1466 247.184 83.8319 247.52 83.5973 247.968C83.3626 248.405 83.2453 248.944 83.2453 249.584C83.2453 250.533 83.4853 251.269 83.9653 251.792C84.4559 252.304 85.0693 252.56 85.8053 252.56ZM104.024 245.184L101.288 254H99.3684L97.5924 247.488L95.8164 254H93.8964L91.1444 245.184H93.0004L94.8404 252.272L96.7124 245.184H98.6164L100.408 252.24L102.232 245.184H104.024Z" fill="white"/>
<g opacity="0.5">
<line x1="24" y1="259.5" x2="105" y2="259.5" stroke="white"/>
</g>
</g>
<defs>
<filter id="filter0_f_95_2553" x="-284" y="-277" width="838" height="838" filterUnits="userSpaceOnUse" color-interpolation-filters="sRGB">
<feFlood flood-opacity="0" result="BackgroundImageFix"/>
<feBlend mode="normal" in="SourceGraphic" in2="BackgroundImageFix" result="shape"/>
<feGaussianBlur stdDeviation="150" result="effect1_foregroundBlur_95_2553"/>
</filter>
<clipPath id="clip0_95_2553">
<rect width="270" height="284" rx="4" fill="white"/>
</clipPath>
</defs>
</svg>
